<?xml version="1.0" standalone="no"?>
<!DOCTYPE svg PUBLIC "-//W3C//DTD SVG 1.1//EN" "http://www.w3.org/Graphics/SVG/1.1/DTD/svg11.dtd" >
<svg xmlns="http://www.w3.org/2000/svg" xmlns:xlink="http://www.w3.org/1999/xlink" version="1.1">
<metadata>
Created by FontForge 20230101 at Mon Feb 20 22:20:13 2012
 By Unknown
Copyright (c) 1995-2010 Microsoft Corporation. All rights reserved.
</metadata>
<defs>
<font id="ComicSansProW99-Bold" horiz-adv-x="1249" >
  <font-face 
    font-family="ComicSansProW99-Bold"
    font-weight="700"
    font-stretch="normal"
    units-per-em="2048"
    panose-1="3 15 9 2 3 3 2 2 2 4"
    ascent="1638"
    descent="-410"
    x-height="1036"
    cap-height="1567"
    bbox="-768 -598 5872 2257"
    underline-thickness="175"
    underline-position="-359"
    unicode-range="U+0020-FB02"
  />
<missing-glyph horiz-adv-x="1024" 
d="M127 0v1638h768v-1638h-768zM256 127h512v1382h-512v-1382z" />
    <glyph glyph-name="uniFB01" unicode="fi" horiz-adv-x="1350" 
d="M578 1026q392 33 417 33q215 0 215 -144q0 -89 -10 -225t-10 -223v-72l6 -272q0 -59 -40 -97t-97 -38t-97 38t-40 97q0 58 -4 172q-5 143 -5 172l19 328l-20 2q-20 2 -347 -23q-6 -150 -6 -180q0 -58 4 -178t4 -178q0 -184 -22 -291t-131 -107q-58 0 -99 36.5t-41 90.5
v13l14 104q9 65 9 172v79l-2 419q-77 -6 -119 -6q-65 0 -103 37t-38 94q0 61 45.5 98.5t226.5 40.5q2 9 5 37q34 314 152 427t306 113q87 0 132.5 -19.5t45.5 -94.5q0 -138 -166 -138q-102 0 -141.5 -57.5t-60.5 -232.5zM967 1354q0 62 48 105.5t109 43.5q65 0 111.5 -44
t46.5 -105t-45.5 -105.5t-112.5 -44.5q-63 0 -110 44t-47 106z" />
    <glyph glyph-name="uniFB02" unicode="fl" horiz-adv-x="1343" 
d="M1001 1380q-16 8 -177.5 -6t-198.5 -81.5t-52 -266.5q130 10 179 10q198 0 198 -135q0 -131 -176 -131l-98 4q-43 0 -115 -8l-2 -36l8 -492q0 -184 -22 -291t-131 -107q-58 0 -99 36.5t-41 90.5q0 31 11 137q12 96 12 152l-8 489q-72 -8 -119 -8q-60 0 -99.5 35.5
t-39.5 95.5q0 61 43.5 98.5t228.5 41.5q17 280 58 372t130 145t249.5 72.5t263.5 19.5q16 0 59 -3q56 -4 76 -4q61 0 100 -38.5t39 -94.5q0 -152 -6 -347q-4 -194 -4 -346q0 -99 -7 -292l-10 -303q-3 -110 -14.5 -149.5t-43.5 -63t-85 -23.5q-63 0 -101 37.5t-38 97.5
q0 118 10 348q12 231 12 348q0 218 10 596z" />
    <glyph glyph-name=".notdef" horiz-adv-x="1024" 
d="M127 0v1638h768v-1638h-768zM256 127h512v1382h-512v-1382z" />
    <glyph glyph-name="glyph1" horiz-adv-x="0" 
 />
    <glyph glyph-name="glyph2" horiz-adv-x="1268" 
 />
    <glyph glyph-name="space" unicode=" " horiz-adv-x="889" 
 />
    <glyph glyph-name="exclam" unicode="!" horiz-adv-x="487" 
d="M113 420v49q0 29 -2 68l-2 67v221q0 103 2 242l2 242v164q-1 62 37 97.5t92 35.5q55 0 92 -36.5t37 -88.5v-1061q0 -54 -36.5 -88.5t-92.5 -34.5t-92.5 34.5t-36.5 88.5zM80 109q0 50 41 85t92 35q61 0 110.5 -60.5t49.5 -111.5q0 -49 -41 -86t-92 -37q-60 0 -110 60.5
t-50 114.5z" />
    <glyph glyph-name="quotedbl" unicode="&#x22;" horiz-adv-x="895" 
d="M76 1120v73l6 280q0 49 36.5 81.5t92.5 32.5q57 0 93 -34t36 -80q0 -56 -4 -170l-2 -99q-2 -75 5 -117q5 -32 5 -43q0 -46 -39 -79t-92 -33q-137 0 -137 188zM793 1042q-1 -46 -36.5 -80t-92.5 -34q-53 0 -91 31t-38 83q0 302 13 421.5t130 119.5q56 0 92.5 -32.5
t36.5 -82.5l-6 -77z" />
    <glyph glyph-name="numbersign" unicode="#" horiz-adv-x="1726" 
d="M309 629q83 202 150 387q-46 -3 -119 0l-77 2q-72 2 -98.5 9t-51.5 37.5t-25 74.5q0 40 17 67.5t49 41t141 17.5l244 7l65 186q12 35 45.5 80t71.5 45q133 0 133 -121q0 -55 -47 -188h356q68 247 98.5 292.5t96.5 45.5q52 0 92.5 -36t40.5 -85q0 -26 -59 -215l53 2
q217 8 217 -127q0 -76 -51.5 -104.5t-200.5 -28.5h-86q-15 -42 -129 -389h141q205 0 205 -133q0 -51 -36.5 -82t-90.5 -31h-49q-36 0 -96 -2h-146q-30 -91 -80 -283q-27 -121 -153 -121q-113 0 -113 107q0 38 78 299h-408q-86 -207 -127 -328q-24 -78 -116 -78
q-52 0 -92.5 35t-40.5 84q0 14 102 287h-115q-54 0 -89.5 41.5t-35.5 93.5q0 56 34 84t104 28.5t198 -1.5zM731 1018l-145 -389h383l125 389h-363z" />
    <glyph glyph-name="dollar" unicode="$" horiz-adv-x="1419" 
d="M803 -31v-250q0 -106 -117 -106q-46 0 -72 31t-26 75v222l-39 -2q-173 -9 -313 40.5t-140 137.5q0 141 160 141q41 0 137 -29q100 -28 127 -28q28 0 68 4v440q-197 13 -329 92.5t-132 208.5q0 158 132.5 292.5t328.5 195.5v165q0 117 108 117q107 0 107 -117v-133
q122 -6 263.5 -56.5t141.5 -117.5q0 -55 -41 -96t-98 -41q-51 0 -133 21q-70 14 -133 20v-307h20q85 0 215.5 -47.5t204.5 -152t74 -259.5q0 -177 -142.5 -295.5t-371.5 -165.5zM588 1153q-164 -62 -164 -154q0 -79 164 -100v254zM803 256q219 55 219 188q0 172 -219 193
v-381z" />
    <glyph glyph-name="percent" unicode="%" horiz-adv-x="1679" 
d="M106 1343q0 109 113 204t227 95q164 0 258.5 -102.5t94.5 -255.5q0 -131 -107 -212t-250 -81q-148 0 -242 100.5t-94 251.5zM354 1343q0 -114 88 -114q48 0 78.5 17.5t30.5 37.5q0 121 -109 121q-31 0 -59.5 -20.5t-28.5 -41.5zM512 440l182 363q118 234 271 571
q97 230 200 230q52 0 89.5 -35t37.5 -82q0 -32 -24 -70q-28 -44 -344 -706q-2 -6 -107 -214.5t-152 -312t-65 -139t-47.5 -56t-67.5 -20.5q-49 0 -87 34t-38 83q0 48 152 354zM899 307q0 162 101 266.5t257 104.5q159 0 275.5 -89.5t116.5 -230.5q0 -157 -108.5 -267.5
t-280.5 -110.5q-157 0 -259 93.5t-102 233.5zM1149 307q0 -92 133 -92q67 0 93 31.5t26 111.5q0 31 -42 57.5t-102 26.5q-108 0 -108 -135z" />
    <glyph glyph-name="ampersand" unicode="&#x26;" horiz-adv-x="1339" 
d="M975 123q-202 -166 -443 -166q-195 0 -346 125.5t-151 312.5q0 113 54 206.5t138.5 152.5t280.5 184q-68 157 -68 276q0 145 92.5 248t231.5 103q125 0 209 -83.5t84 -207.5q0 -231 -240 -412q56 -114 156 -272l33 158q6 27 35 60.5t77 33.5q55 0 91 -48.5t36 -111.5
q0 -187 -98 -356q162 -240 162 -299q0 -50 -41 -85.5t-92 -35.5q-49 0 -80 29.5t-121 187.5zM729 1061q100 102 100 176q0 82 -61 82q-35 0 -57.5 -32t-22.5 -73q0 -60 41 -153zM612 721l-206 -133q-113 -89 -113 -193q0 -84 71 -137t168 -53q166 0 299 127
q-79 122 -219 389z" />
    <glyph glyph-name="quotesingle" unicode="'" horiz-adv-x="889" 
d="M559 1042q-1 -52 -37.5 -83t-91.5 -31q-53 0 -91 33.5t-38 80.5q0 405 28 473t117 68q56 0 92.5 -32.5t36.5 -82.5l-6 -77z" />
    <glyph glyph-name="parenleft" unicode="(" horiz-adv-x="750" 
d="M356 559q0 -236 64.5 -432.5t191.5 -282.5q125 -88 125 -155q0 -52 -39.5 -86.5t-89.5 -34.5q-88 0 -231 122.5t-224 345t-81 546.5q0 251 95.5 502.5t230 386.5t208.5 135q55 0 93 -39t38 -90q0 -34 -30.5 -76.5t-131.5 -136.5q-101 -110 -160 -313t-59 -392z" />
    <glyph glyph-name="parenright" unicode=")" horiz-adv-x="750" 
d="M201 -432q-50 0 -89.5 35t-39.5 86q0 37 20.5 66t91.5 79q271 195 271 725q0 186 -60 391t-159 314q-106 98 -135 139t-29 74q0 50 38 89.5t93 39.5q74 0 207.5 -134t230 -385.5t96.5 -504.5q0 -319 -79 -541t-223.5 -347.5t-233.5 -125.5z" />
    <glyph glyph-name="asterisk" unicode="*" horiz-adv-x="1085" 
d="M725 1135q170 -173 170 -236q0 -48 -40.5 -83.5t-90.5 -35.5q-55 0 -113 58q-80 104 -153 174q-208 -197 -281 -197q-53 0 -92 36.5t-39 84.5q0 39 28.5 69.5t136.5 114.5q11 9 19 17q-187 60 -225.5 85t-38.5 81q0 50 37.5 86t91.5 36q30 0 227 -69q-4 86 -4 121
q0 49 36 82.5t93 33.5q56 0 92.5 -32.5t36.5 -83.5q0 -48 5 -111q180 27 256 27q54 0 90.5 -35t36.5 -84q0 -64 -50 -93.5t-229 -45.5z" />
    <glyph glyph-name="plus" unicode="+" 
d="M754 526v-176q0 -49 -36.5 -84t-92.5 -35q-55 0 -92 34t-37 85v43q0 37 -2 129q-78 -4 -132 -4q-80 0 -137 32.5t-57 88.5q0 52 32.5 83.5t161.5 31.5q56 0 132 4q0 134 4 173.5t37 77.5t92 38q53 0 92 -34t39 -81l-6 -101v-69l19 -2l136 4q205 0 205 -121
q0 -47 -35.5 -84t-91.5 -37l-72 8h-34q-19 0 -45 -2l-46 -2h-34z" />
    <glyph glyph-name="comma" unicode="," horiz-adv-x="889" 
d="M342 -344q-53 0 -90 34.5t-37 76.5q0 26 74.5 171.5t100 174t79.5 28.5t91.5 -33.5t37.5 -76.5q0 -22 -111 -242l-34 -68q-35 -65 -111 -65z" />
    <glyph glyph-name="hyphen" unicode="-" 
d="M383 422q-72 0 -118 33t-46 86q0 54 49 87.5t115 33.5l473 10q70 0 120 -31.5t50 -89.5q0 -113 -143 -121t-500 -8z" />
    <glyph glyph-name="period" unicode="." horiz-adv-x="889" 
d="M276 31q0 54 49 96.5t115 42.5q72 0 118 -40.5t46 -98.5q0 -54 -49 -94.5t-115 -40.5q-65 0 -114.5 41.5t-49.5 93.5z" />
    <glyph glyph-name="slash" unicode="/" horiz-adv-x="1049" 
d="M176 -90q-53 0 -93 35.5t-40 85.5q0 96 303 637q215 382 297 594q86 232 139.5 298t96.5 66q44 0 88.5 -34t44.5 -89q0 -33 -15 -65q-24 -51 -112 -260q-81 -211 -301 -608l-115 -210q-20 -40 -174 -370q-41 -80 -119 -80z" />
    <glyph glyph-name="zero" unicode="0" 
d="M66 795q0 311 163.5 535t436.5 224q257 0 407 -198t150 -502q0 -455 -143 -674t-445 -219q-279 0 -424 216.5t-145 617.5zM340 809q0 -348 78 -469t217 -121q158 0 232.5 142t74.5 456q0 246 -65.5 361.5t-210.5 115.5q-151 0 -238.5 -140.5t-87.5 -344.5z" />
    <glyph glyph-name="one" unicode="1" horiz-adv-x="922" 
d="M315 0q-190 0 -190 119q0 135 211 135h22q11 0 23 -2v887q-93 -60 -113 -60q-55 0 -97 39t-42 94q0 53 66 113l114 82l121 98q67 54 145 54q91 0 91 -109q0 -94 -11 -336q-10 -216 -10 -614v-244h66q57 0 97 -36t40 -93q0 -54 -38.5 -90.5t-98.5 -36.5h-396z" />
    <glyph glyph-name="two" unicode="2" 
d="M401 258q28 5 68 8t94 8q174 13 305 13q89 0 182 -42.5t93 -113.5q0 -52 -40.5 -92.5t-94.5 -40.5q-36 0 -78 8t-76 8l-293 2q-37 0 -117 -10q-61 -8 -114 -8q-114 0 -159.5 40t-45.5 181q0 145 46.5 247t123.5 169.5t255 179.5q200 126 246 191t46 141q0 51 -53.5 91
t-133.5 40q-106 0 -225 -94q-118 -94 -162 -94q-60 0 -101.5 31t-41.5 83q0 44 22.5 75.5t128 110.5t199 112.5t180.5 33.5q199 0 335 -99.5t136 -262.5q0 -185 -89 -305.5t-273 -227.5q-190 -110 -268 -190.5t-95 -192.5z" />
    <glyph glyph-name="three" unicode="3" 
d="M918 811q204 -116 204 -369q0 -202 -149.5 -344.5t-368.5 -142.5q-145 0 -260 50t-176.5 135.5t-61.5 140.5q0 53 43 90t99 37q61 0 100 -52q47 -64 68 -87.5t69.5 -39.5t118.5 -16q100 0 170 58.5t70 136.5q0 247 -336 280q-148 15 -148 123q0 48 39 81.5t88 43.5
l203 45q137 46 137 137q0 150 -233 150q-73 0 -172 -60q-94 -59 -125 -59q-56 0 -96.5 40.5t-40.5 92.5q0 82 158 163t253 81q235 0 375.5 -106.5t140.5 -299.5q0 -223 -169 -309z" />
    <glyph glyph-name="four" unicode="4" 
d="M727 414h-397q-322 0 -322 131q0 66 103 175q24 26 47 52q90 131 268 377l219 305q42 57 94 82t113 25q62 0 107 -36t45 -95l2 -752q136 -3 179.5 -32.5t43.5 -100.5q0 -143 -223 -131q2 -90 0 -215.5t-12 -153t-41 -50t-81 -22.5q-151 0 -145 201v240zM727 1126
q-91 -146 -299 -448h299v448z" />
    <glyph glyph-name="five" unicode="5" 
d="M430 1268q-3 -62 -24 -203q129 63 313 63q228 0 351.5 -157t123.5 -398q0 -273 -174 -454.5t-459 -181.5q-220 0 -347.5 107t-127.5 183q0 54 42.5 92.5t98.5 38.5q37 0 62 -15t89 -82q60 -64 183 -64q157 0 257 110t100 266q0 297 -199 297q-97 0 -169 -33t-156 -128
q-56 -61 -87 -80t-71 -19q-56 0 -96 38.5t-40 92.5q0 15 17 174q33 292 33 390q0 15 -17 66q-18 51 -18 67q0 44 42 70t103 26l121 -8h481q18 0 76 4q58 6 80 6q54 0 88.5 -33.5t34.5 -89.5q0 -59 -49 -94.5t-113.5 -43t-249.5 -7.5h-299z" />
    <glyph glyph-name="six" unicode="6" 
d="M459 940q108 41 184 41q248 0 386 -128.5t138 -365.5q0 -249 -150 -404t-401 -155q-260 0 -393 167t-133 454q0 485 414 844l104 98q69 65 121 65q57 0 99 -38t42 -91q0 -34 -38.5 -81.5t-239.5 -229.5q-93 -89 -133 -176zM369 625q-4 -40 -4 -76q0 -379 256 -379
q130 0 201 86t71 231q0 224 -277 224q-108 0 -247 -86z" />
    <glyph glyph-name="seven" unicode="7" 
d="M807 1235q-143 0 -339 5l-277 8q-82 1 -121 34t-39 96q0 56 41 92.5t96 36.5q176 0 379 -8q252 -6 379 -6h182q67 0 106 -27.5t39 -70.5q0 -40 -26 -82t-133 -162q-157 -172 -293 -458.5t-207 -485.5q-36 -100 -82 -186.5t-131 -86.5q-56 0 -98.5 37.5t-42.5 91.5
q0 39 135.5 364t224.5 496t207 312z" />
    <glyph glyph-name="eight" unicode="8" 
d="M276 784q-145 115 -145 289q0 190 141.5 321.5t354.5 131.5q218 0 338 -112.5t120 -319.5q0 -195 -155 -283q235 -129 235 -422q0 -209 -158 -325.5t-393 -116.5q-236 0 -384 107.5t-148 305.5q0 300 194 424zM596 924q215 52 215 170q0 186 -188 186q-217 0 -217 -207
q0 -103 190 -149zM608 674q-162 -70 -208 -135.5t-46 -165.5q0 -86 77 -135.5t183 -49.5q144 0 203.5 55.5t59.5 176.5q0 172 -269 254z" />
    <glyph glyph-name="nine" unicode="9" 
d="M791 543q-115 -43 -203 -43q-234 0 -384.5 133.5t-150.5 351.5q0 260 161 405.5t437 145.5q223 0 374 -161t151 -386q0 -317 -137.5 -573.5t-393.5 -383t-362 -126.5q-54 0 -95 38.5t-41 94.5q0 107 181 151q315 77 463 353zM891 879q10 70 10 110q0 117 -79.5 212
t-198.5 95q-140 0 -218.5 -79.5t-78.5 -215.5q0 -109 82.5 -177t207.5 -68q169 0 275 123z" />
    <glyph glyph-name="colon" unicode=":" horiz-adv-x="889" 
d="M301 999q0 55 42 92t103 37q150 0 150 -196q0 -57 -40.5 -94t-100.5 -37t-102 36t-42 95q0 9 -5 33q-5 23 -5 34zM315 356q0 57 43.5 93t102.5 36q151 0 151 -229q0 -56 -40.5 -94.5t-102.5 -38.5q-154 0 -154 233z" />
    <glyph glyph-name="semicolon" unicode=";" horiz-adv-x="889" 
d="M330 991q0 54 41.5 93.5t101.5 39.5q152 0 152 -200q0 -59 -41 -97.5t-103 -38.5t-101.5 39t-39.5 97q0 9 -5 34t-5 33zM344 -195q-56 0 -93.5 35t-37.5 92q0 74 99 208t175 134q52 0 91.5 -36.5t39.5 -83.5q0 -66 -97 -159q-45 -43 -50 -77q-15 -113 -127 -113z" />
    <glyph glyph-name="semicolon" unicode="&#x37e;" horiz-adv-x="889" 
d="M330 991q0 54 41.5 93.5t101.5 39.5q152 0 152 -200q0 -59 -41 -97.5t-103 -38.5t-101.5 39t-39.5 97q0 9 -5 34t-5 33zM344 -195q-56 0 -93.5 35t-37.5 92q0 74 99 208t175 134q52 0 91.5 -36.5t39.5 -83.5q0 -66 -97 -159q-45 -43 -50 -77q-15 -113 -127 -113z" />
    <glyph glyph-name="semicolon" unicode="&#x37e;" horiz-adv-x="889" 
d="M330 991q0 54 41.5 93.5t101.5 39.5q152 0 152 -200q0 -59 -41 -97.5t-103 -38.5t-101.5 39t-39.5 97q0 9 -5 34t-5 33zM344 -195q-56 0 -93.5 35t-37.5 92q0 74 99 208t175 134q52 0 91.5 -36.5t39.5 -83.5q0 -66 -97 -159q-45 -43 -50 -77q-15 -113 -127 -113z" />
    <glyph glyph-name="less" unicode="&#x3c;" 
d="M623 616q38 -39 231 -210q51 -39 51 -91q0 -47 -38 -83.5t-93 -36.5q-58 0 -139 69l-117 113q-95 92 -176 119q-102 33 -102 110q0 68 90 109q88 39 200 145q151 147 186 174t81 27q54 0 92.5 -36t38.5 -85q0 -36 -32 -73t-273 -251z" />
    <glyph glyph-name="equal" unicode="=" 
d="M453 766l-136 -4q-54 0 -91.5 33t-37.5 84q0 120 199 120h68l467 -2q57 0 93 -34t36 -80q0 -49 -36 -83t-93 -34h-469zM907 279h-82q-50 0 -116 2l-116 2q-90 2 -171 -4q-121 -8 -171 19t-50 93q0 73 50.5 98t260.5 25h81q50 0 116 -2l116 -2h61q89 -1 119.5 -38.5
t30.5 -78.5q0 -46 -36 -80t-93 -34z" />
    <glyph glyph-name="greater" unicode="&#x3e;" 
d="M694 643q-354 267 -354 363q0 47 39.5 82.5t91.5 35.5q56 0 98 -43q228 -232 402 -315q80 -40 80 -102q0 -41 -40.5 -84.5t-199 -161.5t-256.5 -175t-133 -57q-53 0 -91 36.5t-38 84.5q0 60 63.5 101.5t337.5 234.5z" />
    <glyph glyph-name="question" unicode="?" horiz-adv-x="1159" 
d="M442 348q-56 0 -99.5 42t-43.5 95q0 109 249 265t249 262q0 88 -95 172t-196 84q-53 0 -150 -62q-94 -61 -133 -61q-56 0 -97.5 42.5t-41.5 96.5q0 97 160.5 175.5t261.5 78.5q215 0 391 -160t176 -366q0 -120 -65.5 -217.5t-139.5 -147.5q-255 -174 -319 -246
q-48 -53 -107 -53zM233 63q0 75 47 136t121 61q63 0 100.5 -43.5t37.5 -105.5q0 -72 -42 -127.5t-110 -55.5q-59 0 -106.5 39t-47.5 96z" />
    <glyph glyph-name="at" unicode="@" horiz-adv-x="1907" 
d="M1028 520q-115 -117 -235 -117q-150 0 -249.5 91.5t-99.5 224.5q0 193 157.5 350.5t359.5 157.5q120 0 120 -103q0 -48 -34 -78t-156 -74q-166 -59 -166 -214q0 -28 21 -55t47 -27q70 0 120 67l78 131q42 70 113 70q104 0 104 -121q0 -17 -7 -57t-7 -59q0 -58 127 -58
q186 0 186 228q0 213 -171.5 347t-413.5 134q-259 0 -412.5 -182t-153.5 -463q0 -247 166.5 -418.5t435.5 -171.5q70 0 129.5 14.5t209.5 75.5q40 16 77 16q59 0 100.5 -42.5t41.5 -98.5q0 -95 -196.5 -161t-358.5 -66q-370 0 -630.5 242.5t-260.5 609.5q0 393 234.5 655
t617.5 262q363 0 616.5 -213.5t253.5 -539.5q0 -235 -126.5 -362.5t-358.5 -127.5q-140 0 -279 133z" />
    <glyph glyph-name="A" unicode="A" horiz-adv-x="1497" 
d="M999 428q-78 -10 -241 -22q-168 -11 -242 -25q-122 -273 -165 -338.5t-118 -65.5q-58 0 -100.5 39t-42.5 95q0 51 148 346q-13 23 -13 53q0 51 97 80q181 311 377.5 600t246.5 289q110 0 148 -133q41 -248 122 -599l88 -380q9 -30 52 -134q37 -88 37 -129q0 -57 -43 -96
t-101 -39q-125 0 -250 459zM877 995l-215 -364q46 10 141 16q110 6 139 10q-16 98 -65 338z" />
    <glyph glyph-name="B" unicode="B" horiz-adv-x="1290" 
d="M975 764q115 -57 186.5 -160.5t71.5 -193.5q0 -225 -258.5 -341t-679.5 -116q-62 0 -109 49.5t-47 106.5v1060l-6 189q0 111 40 140.5t143.5 51t250.5 21.5q205 0 385.5 -137.5t180.5 -339.5q0 -203 -158 -330zM567 1300h-103q-38 0 -52 -2l2 -213l-2 -208
q65 -10 111 -10q126 0 228.5 54.5t102.5 172.5q0 75 -92.5 140.5t-194.5 65.5zM412 600v-375q546 33 546 174q0 85 -109.5 140t-164.5 55q-90 0 -272 6z" />
    <glyph glyph-name="C" unicode="C" horiz-adv-x="1268" 
d="M993 1481q48 43 107 43q74 0 108.5 -64t34.5 -250q0 -59 -37 -102t-102 -43q-91 0 -133 94q-24 50 -40.5 56t-78.5 6q-140 0 -331 -246.5t-191 -462.5q0 -112 73 -188t175 -76q83 0 151 29t203 120q76 52 117 52q59 0 100 -41t41 -97q0 -45 -28 -79.5t-134 -106.5
t-220 -111t-230 -39q-221 0 -375 160t-154 377q0 318 264 649.5t539 331.5q88 0 141 -12z" />
    <glyph glyph-name="D" unicode="D" horiz-adv-x="1479" 
d="M283 -10q-62 3 -101 42t-39 95q0 119 9 299q10 200 10 299l-8 668q0 57 52.5 110t112.5 53q36 0 166 -63q153 -73 185 -82q316 -102 530.5 -326.5t214.5 -490.5q0 -258 -184.5 -475t-599.5 -217q-196 0 -348 88zM428 1210v-991q76 -49 203 -49q199 0 291.5 49.5
t152.5 154t60 216.5q0 159 -129.5 302t-577.5 318z" />
    <glyph glyph-name="E" unicode="E" horiz-adv-x="1280" 
d="M408 1284q0 -159 -9 -395q102 8 392 37q190 18 241 18q62 0 103 -38t41 -97q0 -116 -114.5 -131.5t-680.5 -63.5q-6 -126 -6 -204q0 -222 29.5 -230t117.5 -8h79l296 6q12 0 92 10q74 9 122 -29.5t48 -105.5q0 -100 -86 -125.5t-444 -25.5q-335 0 -435 96t-100 412
q0 146 19 401q20 244 20 401q0 35 -10 103q-10 70 -10 104q0 154 141 154q44 0 80 -27q226 60 418 60q171 0 296.5 -28.5t162 -64t36.5 -94.5q0 -52 -39 -94.5t-98 -42.5q-22 0 -43 6q-162 43 -315 43q-159 0 -344 -47z" />
    <glyph glyph-name="F" unicode="F" horiz-adv-x="1243" 
d="M373 1270q3 -194 0 -332q146 39 252 39q251 0 351.5 -24t100.5 -130q0 -57 -41.5 -97t-97.5 -40q-73 0 -158 8q-82 8 -155 8q-74 0 -252 -45v-626q0 -58 -44 -97.5t-106 -39.5q-59 0 -95 40t-36 97v1194q0 29 2 67l2 70q2 78 9.5 104.5t42.5 54t88 27.5q41 0 65 -14
q229 39 389 39q122 0 313 -54.5t191 -129.5q0 -57 -41 -98.5t-96 -41.5q-23 0 -51 11q-130 40 -316 40q-109 0 -317 -30z" />
    <glyph glyph-name="G" unicode="G" horiz-adv-x="1393" 
d="M1335 588q-67 -297 -274.5 -477.5t-489.5 -180.5q-532 0 -532 564q0 365 238.5 721t508.5 356q106 0 284.5 -78.5t178.5 -169.5q0 -55 -41.5 -96t-99.5 -41q-33 0 -133 55q-100 57 -189 57q-105 0 -284.5 -252.5t-179.5 -551.5q0 -177 54 -234t195 -57q165 0 282.5 98
t168.5 256q-223 -15 -404 -94q-28 -14 -63 -14q-58 0 -98.5 42.5t-40.5 96.5q0 121 224.5 184.5t612.5 63.5q61 0 101.5 -39.5t40.5 -96.5q0 -72 -60 -112z" />
    <glyph glyph-name="H" unicode="H" horiz-adv-x="1573" 
d="M1180 625q-185 -9 -772 -121q-3 -68 -15 -228q-10 -138 -10 -229q0 -55 -39.5 -93t-95.5 -38t-95.5 38.5t-39.5 92.5q0 103 16 303q18 199 18 301l13 772q0 55 38.5 93t96.5 38q57 0 96 -38t39 -93q0 -76 -6 -229q-4 -150 -4 -227q0 -25 -6 -97q-6 -65 -6 -102l385 74
q197 38 387 45q4 68 14 360q0 86 53.5 192.5t118.5 106.5q53 0 96 -36.5t43 -92.5q0 -17 -4 -31q-20 -71 -20 -126q0 -29 -6 -86q-5 -72 -5 -87q0 -94 -10 -282t-10 -283q0 -73 10 -217q13 -156 13 -219q0 -53 -39 -91t-99 -38t-101.5 38.5t-41.5 90.5q0 102 -8 217
q-6 147 -6 219v54q0 26 2 49z" />
    <glyph glyph-name="I" unicode="I" horiz-adv-x="1118" 
d="M672 1210q-15 -185 -15 -489v-449l134 2q79 1 140.5 -0.5t98.5 -41.5t37 -93q0 -55 -40.5 -95t-98.5 -40h-70q-41 0 -98 -2l-99 -2q-160 -3 -268 -18q-125 -19 -196 -19q-60 0 -100 40t-40 95q0 57 40 97.5t100 40.5q80 0 178 14l-2 172q-6 507 20 799l-217 -7
q-55 -2 -98 37t-43 101q0 52 35 89.5t90.5 44.5t310.5 7q130 0 324 -20t229.5 -32.5t55.5 -44.5t20 -81q0 -61 -41.5 -97t-102.5 -36q-50 0 -284 28z" />
    <glyph glyph-name="J" unicode="J" horiz-adv-x="1362" 
d="M999 1235q0 -596 -66 -976t-304 -380q-196 0 -386 141t-190 324q0 156 142 156q141 0 141 -154q0 -60 100.5 -127t192.5 -67q16 0 33 39.5t36 331t19 640.5v24q0 16 -2 42h-142l-118 4q-63 0 -103.5 39.5t-40.5 97.5q0 135 178 135h43q26 0 58 -2l58 -2q61 -2 231 6
q126 9 188 9q268 0 268 -150q0 -54 -38 -95.5t-101 -41.5l-119 6h-78z" />
    <glyph glyph-name="K" unicode="K" horiz-adv-x="1251" 
d="M393 23q0 -55 -33.5 -94.5t-93.5 -39.5q-69 0 -113 53.5t-44 118.5q0 220 12 666q14 392 14 668q0 56 41 96.5t100 40.5t99.5 -40.5t40.5 -96.5q0 -61 -23 -486q34 28 518 555q46 52 107 52q57 0 99 -41t42 -97q0 -52 -178 -255t-430 -443q267 -260 376.5 -346
t182.5 -111q107 -33 107 -131q0 -52 -35.5 -94.5t-94.5 -42.5q-83 0 -213.5 73t-478.5 414z" />
    <glyph glyph-name="L" unicode="L" horiz-adv-x="1128" 
d="M61 123l9 126q18 279 25 486q11 313 11 670q0 56 40 96.5t100 40.5q61 0 100 -40.5t39 -96.5q0 -615 -45 -1227q236 3 608 117q22 6 43 6q64 0 100.5 -43t36.5 -94q0 -71 -71 -118t-328 -92.5t-424 -45.5q-244 0 -244 215z" />
    <glyph glyph-name="M" unicode="M" horiz-adv-x="1808" 
d="M528 893q-119 -521 -161 -817q-41 -142 -152 -142q-56 0 -94.5 39.5t-38.5 102.5q0 166 70 395q49 166 72.5 268t86.5 426q47 218 99.5 286.5t130.5 68.5q100 0 141.5 -108.5t105.5 -485.5q54 -327 105 -498q103 277 211 733l55 230q34 143 168 143q70 0 118 -74t85 -342
q55 -404 151 -731q91 -313 91 -336q0 -54 -44.5 -94.5t-103.5 -40.5q-109 0 -162 158l-55 241q-15 67 -104 619q-12 -33 -27 -92q-78 -308 -123 -430l-68 -185q-60 -164 -100.5 -218t-116.5 -54q-85 0 -135 111l-55 186q-36 122 -150 641z" />
    <glyph glyph-name="N" unicode="N" horiz-adv-x="1665" 
d="M391 1012q-6 -261 -6 -320v-100l6 -377q0 -295 -143 -295q-71 0 -113.5 41t-42.5 102q0 39 6 119q6 84 6 123l9 354q0 65 -4 191q-3 106 -3 178t-12 191q-10 120 -10 178t50.5 105.5t117.5 47.5q73 0 164 -127q454 -648 897 -1056v151q0 427 -5 549.5t-18 222.5
q-10 70 -10 111q0 137 145 137q164 0 164 -502v-46l-8 -744q0 -101 -26.5 -194t-137.5 -93q-54 0 -137.5 63t-332 327t-556.5 663z" />
    <glyph glyph-name="O" unicode="O" horiz-adv-x="1634" 
d="M59 580q0 359 234.5 647.5t580.5 288.5q699 0 699 -642q0 -375 -221.5 -655t-565.5 -280q-305 0 -516 179t-211 462zM344 580q0 -164 129 -266.5t313 -102.5q217 0 359.5 205.5t142.5 457.5q0 202 -88 285.5t-326 83.5q-221 0 -375.5 -206t-154.5 -457z" />
    <glyph glyph-name="P" unicode="P" horiz-adv-x="1092" 
d="M330 565q-6 -138 -6 -461q0 -54 -37.5 -91.5t-93.5 -37.5q-57 0 -95.5 37t-38.5 92v279q0 156 21 461q15 252 20 461q0 261 146 247q56 19 239 19q204 0 381.5 -137t177.5 -336q0 -247 -185 -394t-445 -147q-33 0 -84 8zM463 1313h-56q-24 0 -42 -2v-142q0 -68 -21 -346
q42 -8 70 -8q160 0 264 78.5t104 204.5q0 86 -101 150.5t-218 64.5z" />
    <glyph glyph-name="Q" unicode="Q" horiz-adv-x="1794" 
d="M1161 -70q-166 -59 -325 -59q-310 0 -554.5 238t-244.5 553q0 360 275 607t646 247q369 0 570 -247t201 -659q0 -312 -302 -536l183 -162l112 -90q68 -55 68 -121q0 -55 -43 -97t-100 -42q-73 0 -486 368zM891 150q-148 142 -148 229q0 56 44 96.5t102 40.5q68 0 117 -61
q88 -111 196 -199q242 146 242 354q0 289 -126.5 459t-359.5 170q-260 0 -448 -167.5t-188 -409.5q0 -202 171.5 -368.5t397.5 -143.5z" />
    <glyph glyph-name="R" unicode="R" horiz-adv-x="1311" 
d="M360 424q13 -273 13 -324q0 -57 -40.5 -96t-101.5 -39q-58 0 -98.5 39.5t-40.5 95.5v94q0 56 2 132l2 131v94l2 807q0 69 44 123.5t137 54.5q119 0 224 -15q158 -23 240 -60t194.5 -114t183.5 -187.5t71 -241.5q0 -264 -358 -402q141 -78 248 -160.5t146.5 -135.5
t39.5 -95q0 -56 -43 -96.5t-99 -40.5q-54 0 -100 43q-302 283 -666 393zM369 1253v-530h43q287 0 393 77t106 118q0 112 -144.5 216t-298.5 113q-4 0 -99 6z" />
    <glyph glyph-name="S" unicode="S" horiz-adv-x="1419" 
d="M47 268q0 65 40 106.5t103 41.5q90 0 134 -92q57 -123 258 -123q176 0 337.5 76t161.5 167q0 89 -58.5 141.5t-342.5 57.5q-194 4 -343 82.5t-149 215.5q0 198 204 361.5t456 163.5q109 0 265.5 -53t156.5 -121q0 -51 -39 -94t-101 -43q-49 0 -141 21q-87 20 -141 20
q-125 0 -245 -61.5t-120 -135.5q0 -77 146 -98q276 -13 363 -26t183.5 -69.5t148.5 -151t52 -224.5q0 -233 -239.5 -362t-565.5 -129q-244 0 -384 99.5t-140 229.5z" />
    <glyph glyph-name="T" unicode="T" horiz-adv-x="1425" 
d="M817 1225q1 -27 5 -86q36 -531 36 -733q0 -29 7 -100q7 -72 7 -101q0 -89 -42.5 -151t-106.5 -62q-60 0 -101.5 39.5t-41.5 93.5q0 11 5 43q5 33 5 43l-58 997l-107 -4q-198 -7 -306.5 21t-108.5 125q0 64 39 103.5t101 39.5l284 -18q76 0 252 11t242 11l313 -6
q32 1 65 0t64.5 -16.5t49.5 -44.5t18 -66q0 -61 -41.5 -102t-93.5 -41l-431 4h-55z" />
    <glyph glyph-name="U" unicode="U" horiz-adv-x="1509" 
d="M88 1036v49q0 30 2 68l2 67q3 113 15.5 164.5t44.5 91.5t77 40q55 0 99.5 -37.5t44.5 -98.5v-72q0 -43 -2 -100v-174q0 -47 -6 -145q-5 -120 -5 -144q0 -299 90 -421.5t269 -122.5q187 0 295 242t108 868q0 63 43 119.5t119 56.5q61 0 94 -39t33 -92q0 -800 -184.5 -1114
t-507.5 -314q-641 0 -641 817q0 50 4 146q6 96 6 145z" />
    <glyph glyph-name="V" unicode="V" horiz-adv-x="1382" 
d="M635 420l233 604l86 240q23 64 87 167t149 103q57 0 100 -39.5t43 -95.5q0 -41 -26 -80q-53 -72 -101 -189q-3 -3 -73 -196l-211 -544q-99 -257 -141.5 -339.5t-75.5 -106.5t-78 -24q-58 0 -103.5 34t-139 322.5t-173.5 579.5l-84 270q-55 186 -55 263q0 57 41.5 95
t99.5 38q50 0 84.5 -27t51 -79t22.5 -93t45 -168l67 -229q79 -289 152 -506z" />
    <glyph glyph-name="W" unicode="W" horiz-adv-x="2130" 
d="M1026 1001q-10 -34 -113 -326q-81 -229 -168 -552q11 -22 11 -47q0 -56 -48 -94.5t-114 -38.5q-74 0 -122 37.5t-52 109.5l-33 119l-80 352q-33 144 -93 331.5t-155 457.5q-10 24 -10 49q0 54 42.5 90.5t103.5 36.5q66 0 113 -53.5t121.5 -319t174.5 -707.5q33 85 78 255
q135 512 222 654t165 142q79 0 124.5 -70t71.5 -291q43 -358 142 -792q32 71 121 308q84 225 131 339q54 161 86 287q61 248 201 248q61 0 101 -38t40 -97q0 -21 -38 -117.5t-77 -219t-196 -472.5l-183 -426q-61 -165 -105 -208.5t-114 -43.5q-56 0 -101 29.5t-54 66
t-27.5 86.5t-33 110t-60.5 360z" />
    <glyph glyph-name="X" unicode="X" horiz-adv-x="1483" 
d="M944 721q304 -427 434 -578q37 -38 37 -90q0 -55 -43 -96t-100 -41q-52 0 -120.5 62.5t-146.5 178.5l-124 183l-127 172q-430 -478 -488 -530t-110 -52q-60 0 -103 41t-43 97q0 25 10.5 49t83 99.5t204.5 221.5l274 301q-75 93 -213 256q-5 5 -115 146q-70 89 -127 135
q-57 45 -57 106q0 55 42 97.5t101 42.5q50 0 126 -63.5t120 -127.5q84 -111 156.5 -195.5t154.5 -187.5l252 332q184 242 264 242q58 0 101 -42t43 -96q0 -47 -37 -90q-156 -183 -203 -252q-77 -110 -246 -321z" />
    <glyph glyph-name="Y" unicode="Y" horiz-adv-x="1300" 
d="M547 477q-107 157 -316 485l-225 354q-16 27 -16 70q0 57 42 96.5t99 39.5q81 0 121 -68l248 -412q135 -224 182 -282q203 408 309 672q41 90 131 90q58 0 101 -40.5t43 -95.5q0 -27 -60 -151q-29 -60 -205 -455q-128 -296 -231 -485l-136 -248q-31 -59 -69 -88t-84 -29
q-58 0 -100.5 37.5t-42.5 98.5q0 49 209 411z" />
    <glyph glyph-name="Z" unicode="Z" horiz-adv-x="1419" 
d="M381 197q531 22 700 22q185 0 252.5 -29t67.5 -96q0 -65 -42.5 -101t-105.5 -36q-30 0 -88 4l-51 2l-948 -14q-71 0 -112.5 37.5t-41.5 97.5q0 95 118.5 247.5t338 447t416.5 470.5q-158 -10 -240 -10h-403q-93 0 -120 5t-58 39.5t-31 88.5q0 137 203 137q94 0 204 -8
t207 -8h96l365 6q299 0 299 -129q0 -90 -133 -176l-127 -84q-58 -39 -111 -89.5t-111 -115t-112 -132.5t-184 -242z" />
    <glyph glyph-name="bracketleft" unicode="[" horiz-adv-x="770" 
d="M404 1253v-1403h37q58 0 86 -2l54 -2q63 -2 87 -10t49 -41t25 -80q0 -56 -35.5 -94.5t-91.5 -38.5q-30 0 -88 4l-51 2q-29 1 -140 -5q-200 -11 -200 151v225l6 852q0 95 -4 289l-2 170q-1 127 5.5 157t45 61.5t90.5 31.5h43q26 0 60 -2l61 -2l156 4q60 0 95.5 -35.5
t35.5 -95.5q0 -138 -242 -138h-26q-20 0 -56 2z" />
    <glyph glyph-name="backslash" unicode="\" horiz-adv-x="1126" 
d="M137 1395q0 54 41 91.5t96 37.5q71 0 124 -83t117.5 -196t324.5 -745q122 -298 198 -451q17 -34 17 -59q0 -54 -40.5 -92.5t-94.5 -38.5q-80 0 -121 77.5t-113 233.5q-264 660 -330 794.5t-198 358.5q-21 36 -21 72z" />
    <glyph glyph-name="bracketright" unicode="]" horiz-adv-x="770" 
d="M399 -150v1403l-55 -2q-268 -10 -268 138q0 60 36.5 95.5t96.5 35.5l113 -4h42q25 0 60 2l60 2q105 3 145.5 -39t40.5 -90q0 -97 -4 -291l-2 -169v-344q0 -134 2 -315l2 -313v-236q-2 -67 -43.5 -104t-124.5 -37l-135 6h-37l-140 -6q-55 0 -91 38t-36 95t36.5 94t90.5 37
h34l143 4h34z" />
    <glyph glyph-name="asciicircum" unicode="^" 
d="M635 1376q-242 -254 -332 -254q-54 0 -92.5 35.5t-38.5 79.5q0 46 43 80q71 63 301 291q40 39 92 39q53 0 119 -41.5t243 -210.5q39 -38 68 -64q37 -36 37 -76q0 -47 -40 -80.5t-93 -33.5q-27 0 -51.5 11.5t-94.5 75.5z" />
    <glyph glyph-name="underscore" unicode="_" horiz-adv-x="1284" 
d="M-76 -344v184h1440v-184h-1440z" />
    <glyph glyph-name="grave" unicode="`" horiz-adv-x="1139" 
d="M109 1546q0 45 38 80t91 35q80 0 229 -153.5t149 -219.5q0 -48 -40 -79t-93 -31q-65 0 -104 51q-127 171 -215 229q-55 37 -55 88z" />
    <glyph glyph-name="a" unicode="a" horiz-adv-x="1139" 
d="M819 35q-185 -90 -280 -90q-484 0 -484 516q0 239 178 411t426 172q103 0 237 -61.5t134 -142.5q0 -36 -22 -64q-21 -79 -21 -241q0 -220 41 -306q72 -155 72 -172q0 -52 -40 -87.5t-95 -35.5q-45 0 -146 101zM735 786q-35 19 -61 19q-139 0 -239.5 -106t-100.5 -246
q0 -271 190 -271q126 0 224 82q-31 231 -31 357q0 84 18 165z" />
    <glyph glyph-name="b" unicode="b" horiz-adv-x="1214" 
d="M311 6q-37 -37 -90 -37t-92 37t-39 90l6 148v1132q0 82 39.5 140.5t106.5 58.5q106 0 106 -117l-6 -82v-383q144 82 272 82q230 0 373 -162.5t143 -396.5q0 -232 -159.5 -395.5t-392.5 -163.5q-142 0 -267 49zM342 698v-424q140 -59 236 -59q123 0 206.5 83t83.5 218
q0 132 -69 217.5t-185 85.5q-106 0 -272 -121z" />
    <glyph glyph-name="c" unicode="c" horiz-adv-x="1053" 
d="M37 410q0 213 155 433t357 220q119 0 265.5 -65t146.5 -150q0 -53 -37 -90t-90 -37q-45 0 -105 45q-59 47 -180 47q-76 0 -164 -148t-88 -255q0 -103 73.5 -162.5t190.5 -59.5q70 0 164 52q99 51 125 51q55 0 93 -39.5t38 -89.5q0 -77 -159 -151t-261 -74
q-227 0 -375.5 130.5t-148.5 342.5z" />
    <glyph glyph-name="d" unicode="d" horiz-adv-x="1202" 
d="M834 1006q20 426 30.5 479t43.5 80.5t87 27.5q57 0 94 -36t37 -95q0 -140 -22 -432q-23 -299 -23 -432q0 -348 23 -473q4 -16 4 -29q0 -51 -40 -89t-93 -38q-76 0 -111 68q-134 -82 -293 -82q-228 0 -375 146.5t-147 367.5q0 266 151 433t398 167q147 0 236 -63zM813 690
q-64 125 -211 125q-297 0 -297 -342q0 -110 80.5 -186t185.5 -76q130 0 242 113l-2 41v183q0 62 2 142z" />
    <glyph glyph-name="e" unicode="e" horiz-adv-x="1145" 
d="M334 301q99 -104 272 -104q133 0 228 55q82 49 133 49q102 0 102 -100q0 -109 -145 -177.5t-318 -68.5q-253 0 -406 124.5t-153 344.5q0 263 144 441.5t389 178.5q205 0 322.5 -74t117.5 -210q0 -90 -72.5 -155t-275.5 -154zM313 555q137 60 226 96q120 55 215 115
q-67 37 -174 37q-184 0 -267 -248z" />
    <glyph glyph-name="f" unicode="f" horiz-adv-x="981" 
d="M578 1026q132 12 190 12q188 0 188 -127t-198 -127q-92 0 -193 -8q-3 -92 -3 -168l5 -370q0 -184 -22 -291t-131 -107q-58 0 -99 36.5t-41 90.5v13l15 116q10 75 10 164v502q-8 -2 -24 -3l-42 -5q-36 -6 -57 -6q-65 0 -103 37t-38 94q0 61 45.5 98.5t226.5 40.5q2 9 5 37
q37 336 162 440t325 104q182 0 182 -131t-170 -131q-101 0 -157 -59t-74 -221z" />
    <glyph glyph-name="g" unicode="g" horiz-adv-x="1087" 
d="M723 53q-97 -104 -254 -104q-201 0 -325 128t-124 333q0 275 170.5 444.5t460.5 169.5q190 0 273 -92q127 -15 127 -152q0 -53 -23 -184q-38 -219 -49 -496q-11 -378 -151 -520.5t-420 -142.5q-390 0 -390 153q0 56 35 89.5t92 33.5q45 0 129 -16q89 -19 150 -19
q144 0 215.5 88.5t83.5 286.5zM772 756q-72 41 -131 41q-163 0 -254.5 -104t-91.5 -269q0 -240 178 -240q77 0 150.5 78.5t95 154.5t53.5 339z" />
    <glyph glyph-name="h" unicode="h" horiz-adv-x="1184" 
d="M399 915q144 144 334 144q140 0 220 -66.5t96 -251.5q13 -404 63 -637q6 -21 6 -36q0 -55 -42 -92t-99 -37q-59 0 -97 34.5t-68 220.5t-30 304l6 151v58q0 84 -55 84q-70 0 -143.5 -49t-181.5 -248q0 -368 -38 -443.5t-122 -75.5q-58 0 -101 39.5t-43 91.5q0 17 13 54
q8 28 8 368l6 602q6 96 6 158q0 34 -10 92q-8 50 -8 93q0 54 40 91.5t99 37.5q154 0 154 -289q0 -101 -6 -203q-7 -87 -7 -195z" />
    <glyph glyph-name="i" unicode="i" horiz-adv-x="573" 
d="M174 1350q0 59 47 103t111 44q62 0 109.5 -42.5t47.5 -104.5t-47.5 -105t-109.5 -43q-65 0 -111.5 44t-46.5 104zM418 469v-75l6 -292q0 -57 -39 -95t-98 -38q-62 0 -101 38.5t-39 94.5q0 57 -4 183l-2 109q-2 121 11 296q10 136 10 225q0 58 39.5 96t97.5 38t97.5 -38
t39.5 -96q0 -89 -10 -225q-8 -106 -8 -221z" />
    <glyph glyph-name="j" unicode="j" horiz-adv-x="678" 
d="M145 1346q0 60 46.5 104.5t111.5 44.5q64 0 111 -44t47 -105t-47 -105.5t-111 -44.5q-65 0 -111.5 45t-46.5 105zM70 -190l36 -68q37 -70 84 -70q33 0 49.5 55t16.5 87q0 88 -35 553t-35 532q0 65 39.5 114.5t102.5 49.5q43 0 88 -30.5t54 -64.5q2 -7 32 -505t30 -660
q0 -153 -100 -277t-242 -124q-153 0 -264.5 138t-111.5 206q0 54 41.5 92.5t101.5 38.5q64 0 113 -67z" />
    <glyph glyph-name="k" unicode="k" horiz-adv-x="1106" 
d="M514 455q-102 -74 -131 -90q-10 -140 -10 -267q0 -55 -38 -94t-99 -39q-142 0 -142 168q0 78 10 236q13 145 13 237l10 662q0 34 -5 101q-5 68 -5 101q0 58 39.5 96t99.5 38q58 0 97.5 -38t39.5 -96q0 -34 5 -104t5 -104q0 -118 -6 -281q-6 -156 -6 -279q144 111 416 381
q42 45 98 45q58 0 101 -41.5t43 -95.5q0 -21 -10.5 -47.5t-111 -128t-200.5 -188.5l209 -269q151 -194 151 -268q0 -54 -44 -92.5t-101 -38.5q-79 0 -119 76q-51 97 -263 363z" />
    <glyph glyph-name="l" unicode="l" horiz-adv-x="561" 
d="M410 147q0 -190 -138 -190q-58 0 -98.5 37.5t-40.5 97.5v1385q0 56 41.5 92.5t99.5 36.5q60 0 98 -37t38 -92v-1330z" />
    <glyph glyph-name="m" unicode="m" horiz-adv-x="1591" 
d="M360 885q153 176 287 176q155 0 225 -119q120 109 295 109q102 0 171.5 -54.5t92 -128.5t46.5 -282q12 -101 42 -302q29 -198 29 -249q0 -53 -42 -87t-97 -34q-84 0 -114 55.5t-58 349.5q-31 292 -50 382t-52 90q-20 0 -108 -49.5t-118 -75.5q0 -108 29 -328
q27 -218 27 -330q0 -55 -39.5 -94t-98.5 -39q-57 0 -98 38.5t-41 94.5q0 116 -24 336q-25 215 -25 336q0 62 -10 102q-124 -69 -250 -243q-4 -206 -4 -318l-4 -145q0 -54 -41 -84.5t-103 -30.5q-66 0 -100.5 48t-34.5 186v370q0 52 -4 148t-4 145q0 101 39.5 176.5
t101.5 75.5q56 0 101 -42.5t45 -96.5q0 -16 -11 -86z" />
    <glyph glyph-name="n" unicode="n" horiz-adv-x="1071" 
d="M371 924q144 147 307 147q154 0 231.5 -107t77.5 -368v-72l-2 -39q-4 -82 21 -227q22 -124 22 -199q0 -57 -40.5 -94t-96.5 -37q-59 0 -92.5 28t-41.5 75.5t-17 122.5q-7 51 -15 102q-14 98 -14 209v34l10 226q0 82 -43 82q-55 0 -108 -39t-105 -114t-86.5 -167.5
t-34.5 -234.5q0 -28 6 -86q6 -56 6 -84q0 -59 -40 -95t-99 -36q-57 0 -97 36t-40 95q0 28 -6 84q-6 58 -6 86q0 115 14 264q14 152 14 268q0 32 -4 90t-4 89q0 54 40 91.5t101 37.5q130 0 140 -156z" />
    <glyph glyph-name="o" unicode="o" horiz-adv-x="1077" 
d="M43 438q0 258 149.5 428t395.5 170q191 0 307.5 -148t116.5 -368q0 -242 -137 -410.5t-361 -168.5q-200 0 -335.5 144.5t-135.5 352.5zM319 438q0 -97 52 -165t143 -68q109 0 169 78.5t60 205.5q0 283 -170 283q-115 0 -184.5 -100t-69.5 -234z" />
    <glyph glyph-name="p" unicode="p" horiz-adv-x="1096" 
d="M389 -39v-407q0 -59 -39.5 -97.5t-99.5 -38.5q-61 0 -99.5 39t-38.5 97l5 592q0 369 -30 723q-7 86 34 158.5t116 72.5q56 0 95 -38t39 -91l-3 -10q136 73 271 73q416 0 416 -575q0 -237 -143 -377.5t-343 -140.5q-94 0 -180 20zM381 649q10 -206 10 -411q90 -29 178 -29
q209 0 209 287q0 272 -139 272q-127 0 -258 -119z" />
    <glyph glyph-name="q" unicode="q" horiz-adv-x="1065" 
d="M633 -49q-40 -10 -76 -10q-241 0 -389 124.5t-148 340.5q0 292 176.5 474.5t489.5 182.5q55 0 86 -27q38 23 72 23q55 0 97 -41.5t42 -97.5q0 -338 -57 -793q-47 -368 -47 -549q0 -56 -39.5 -94.5t-100.5 -38.5q-137 0 -137 166v25zM713 817h-14l-70 6
q-116 0 -223 -114.5t-107 -307.5q0 -98 64.5 -158.5t187.5 -60.5q76 0 110.5 96.5t38.5 327.5q0 1 13 211z" />
    <glyph glyph-name="r" unicode="r" horiz-adv-x="983" 
d="M940 721q0 -60 -33 -107t-106 -47q-125 0 -125 131l-6 101q-226 -35 -322 -232v-501q0 -59 -39 -96.5t-98 -37.5q-56 0 -91.5 37.5t-35.5 96.5v655l2 165v19q0 56 33.5 93.5t95.5 37.5q112 0 133 -114q177 133 393 133q199 0 199 -267v-67z" />
    <glyph glyph-name="s" unicode="s" horiz-adv-x="997" 
d="M686 815q-41 6 -82 6q-239 0 -239 -65q0 -40 145 -105q240 -111 326 -192t86 -187q0 -156 -130.5 -243.5t-347.5 -87.5q-151 0 -272 53.5t-121 150.5q0 101 119 101q46 0 133 -29q93 -29 135 -29q203 0 203 82q0 51 -139 113q-207 90 -272 136.5t-99.5 106t-34.5 130.5
q0 149 122.5 230t469.5 81q118 0 166.5 -37t48.5 -119q0 -180 -96 -180q-100 0 -121 84z" />
    <glyph glyph-name="t" unicode="t" horiz-adv-x="965" 
d="M635 801q18 -407 18 -529q0 -157 -4.5 -202.5t-40 -89t-98.5 -43.5q-61 0 -100 36t-39 86v46l6 171q0 139 -19 519q-203 11 -240 26t-55 45t-18 74q0 56 39 94.5t98 38.5q38 0 170 -10q-10 100 -10 205q0 54 40.5 91.5t100.5 37.5q148 0 148 -248l-2 -82q48 8 100 8
q132 0 185 -26.5t53 -110.5q0 -56 -38.5 -94.5t-99.5 -38.5l-100 4q-54 0 -94 -8z" />
    <glyph glyph-name="u" unicode="u" horiz-adv-x="1065" 
d="M979 377l2 -119q2 -136 5 -182q5 -83 -39.5 -119.5t-98.5 -36.5q-83 0 -123 76q-127 -47 -264 -47q-93 0 -167.5 26t-118 70t-62 89.5t-39.5 203.5t-21 317q0 107 20.5 239t61 152.5t82.5 20.5q60 0 100.5 -37t40.5 -92t-14 -139t-14 -144q0 -288 37 -419q42 -23 94 -23
q113 0 244 31v454q2 155 14 231t45.5 104t91.5 28q60 0 100.5 -37t40.5 -89q0 -4 -4 -83l-12 -246l-2 -28v-201z" />
    <glyph glyph-name="v" unicode="v" horiz-adv-x="995" 
d="M639 74q-4 -50 -41.5 -82.5t-87.5 -32.5q-104 0 -143 104q-54 137 -137 337l-198 477q-9 21 -9 51q0 53 43 91t100 38q82 0 120.5 -75.5t223.5 -569.5q68 149 145 344q80 216 116 255.5t95 39.5q58 0 101 -38t43 -91q0 -71 -371 -848z" />
    <glyph glyph-name="w" unicode="w" horiz-adv-x="1401" 
d="M682 610q-24 -53 -93 -248q-104 -292 -149 -365t-106 -73q-58 0 -121 116.5t-119.5 450t-56.5 422.5q0 54 40.5 90.5t98.5 36.5q54 0 90 -48t56 -220q10 -111 55 -395q101 278 180 530q40 129 154 129q77 0 113.5 -64.5t84.5 -344.5q31 -184 56 -305l151 597
q33 119 125 119q57 0 101 -37t44 -92q0 -18 -111 -404t-177 -486.5t-154 -100.5q-163 0 -262 692z" />
    <glyph glyph-name="x" unicode="x" horiz-adv-x="1208" 
d="M786 496l306 -373q32 -39 32 -82q0 -49 -41 -89t-96 -40q-32 0 -60 16t-120.5 122.5t-216.5 260.5q-63 -64 -250 -235q-56 -46 -84 -76q-42 -45 -98 -45q-54 0 -96 39.5t-42 89.5q0 37 27.5 74t122.5 117q48 39 256 243q-29 38 -57 78q-115 160 -187 221q-53 44 -53 96
q0 56 40.5 95t94.5 39q71 0 197 -144l160 -205q43 35 86 72q42 37 84 72q98 84 151 157q44 62 111 62q54 0 96.5 -39.5t42.5 -89.5q0 -38 -36.5 -88.5t-81.5 -89t-134 -117.5z" />
    <glyph glyph-name="y" unicode="y" horiz-adv-x="1133" 
d="M430 102q-76 154 -209 392.5t-163 284.5q-52 76 -52 122q0 53 43 95t98 42q44 0 78 -23t137 -189.5t220 -405.5q209 460 263.5 540t123.5 80q56 0 99.5 -38.5t43.5 -92.5q0 -21 -8.5 -45t-147.5 -310l-339 -703q-39 -87 -89 -228q-49 -139 -77 -171t-89 -32
q-58 0 -100.5 38.5t-42.5 92.5q0 95 211 551z" />
    <glyph glyph-name="z" unicode="z" horiz-adv-x="1102" 
d="M549 227l55 2q81 3 162 -14q67 -14 117 -14q61 0 100 -38.5t39 -94.5q0 -58 -40.5 -94.5t-98.5 -36.5q-52 0 -119 14q-66 14 -115 14q-229 0 -418 -37q-27 -6 -45 -6q-55 0 -96 32.5t-41 86.5q0 65 64 117q247 210 520 616q-62 -4 -119 -4q-231 0 -331.5 27.5
t-100.5 126.5q0 55 38.5 94t94.5 39q55 0 150 -13q102 -10 149 -10q94 0 203 8q152 11 205 11q125 0 125 -103q0 -91 -86 -186q-78 -90 -203 -258z" />
    <glyph glyph-name="braceleft" unicode="{" horiz-adv-x="750" 
d="M317 565q105 -138 105 -225q0 -45 -8 -96t-8 -94q0 -97 32.5 -187t83.5 -90q108 0 152.5 -24t44.5 -103q0 -131 -197 -131q-180 0 -281.5 154.5t-101.5 380.5q0 35 8 77q9 47 9 80q0 58 -97 123q-94 64 -94 127q0 57 69.5 127t137.5 102q0 43 -4 193q-4 156 -4 192
q0 240 111 346.5t260 106.5q77 0 139.5 -37.5t62.5 -105.5q0 -113 -159 -113q-87 0 -119.5 -40.5t-32.5 -129.5q0 -40 6 -197q6 -153 6 -194q0 -57 -37.5 -131t-83.5 -111z" />
    <glyph glyph-name="bar" unicode="|" horiz-adv-x="862" 
d="M311 -115v86l2 47v1573q0 54 38 88.5t93 34.5q57 0 92 -34.5t35 -88.5v-1804q0 -53 -32 -101t-95 -48q-130 0 -133 247z" />
    <glyph glyph-name="braceright" unicode="}" horiz-adv-x="750" 
d="M385 565q-46 37 -83.5 111t-37.5 131q0 41 6 194q9 157 9 197q0 156 -107 168q-113 9 -160 29t-47 86q0 67 63 105t140 38q147 0 259 -106t112 -347l-9 -383q76 -38 141.5 -106.5t65.5 -124.5q0 -36 -19 -59.5t-118 -96.5q-53 -42 -53 -94q0 -38 8 -80t8 -77
q0 -200 -106 -367.5t-277 -167.5q-196 0 -196 131q0 75 42 101t154 26q53 0 85 93t32 184q0 43 -8 94t-8 96q0 88 104 225z" />
    <glyph glyph-name="asciitilde" unicode="~" 
d="M453 713q-66 0 -162 -144q-41 -59 -113 -59q-52 0 -92.5 31.5t-40.5 74.5q0 73 124.5 195.5t283.5 122.5q80 0 124 -26t138 -126q92 -92 145 -92q9 0 37 78q49 131 139 131q131 0 131 -127q0 -110 -92.5 -207.5t-220.5 -97.5q-116 0 -193 50t-186 171z" />
    <glyph glyph-name="uni00A0" unicode="&#xa0;" horiz-adv-x="975" 
 />
    <glyph glyph-name="exclamdown" unicode="&#xa1;" horiz-adv-x="487" 
d="M125 1483q0 50 40 86.5t91 36.5q57 0 108.5 -61t51.5 -113q0 -50 -40 -86.5t-93 -36.5q-60 0 -109 58.5t-49 115.5zM125 57v1061q0 54 36.5 88.5t92.5 34.5q57 0 93 -36t36 -87v-49q0 -29 2 -68l2 -66v-221q0 -104 -2 -243l-2 -242v-163q1 -60 -36 -96t-93 -36
t-92.5 34.5t-36.5 88.5z" />
    <glyph glyph-name="cent" unicode="&#xa2;" 
d="M711 266v-102q0 -129 -97 -129q-55 0 -74.5 20.5t-19.5 71.5v149q-440 158 -440 596q0 200 122 379.5t318 231.5q0 166 23 210t57 44q51 0 85 -34t34 -85v-87q0 -33 -2 -48q138 -23 180 -47q46 51 117 51q48 0 75 -29.5t27 -73.5q0 -61 -49.5 -172.5t-95.5 -111.5
q-41 0 -93 62q-67 79 -161 79v-735q71 12 111 51t104 152q31 57 74 57q50 0 96.5 -32.5t46.5 -78.5q0 -71 -110.5 -218t-327.5 -171zM520 522v703q-85 -33 -139.5 -136.5t-54.5 -216.5q0 -270 194 -350z" />
    <glyph glyph-name="sterling" unicode="&#xa3;" horiz-adv-x="1624" 
d="M588 211q74 -4 219 -59q136 -56 217 -56q190 0 211 101q21 96 29.5 112.5t33.5 31.5t70 15q62 0 96.5 -37.5t34.5 -93.5q0 -163 -117 -269t-358 -106q-95 0 -242 58q-143 55 -231 55q-68 0 -150 -39q-86 -41 -110 -41q-52 0 -89.5 37.5t-37.5 83.5q0 43 49 92
q85 90 113 145.5t28 149.5q0 89 -51 285l-55 -2q-141 -5 -195.5 26.5t-54.5 100.5q0 50 36.5 87.5t90.5 37.5l108 -4h31v16q0 298 168 485t451 187q189 0 341 -86t152 -238q0 -50 -40 -85.5t-93 -35.5q-64 0 -98 54q-44 64 -63 88.5t-73.5 42.5t-140.5 18q-162 0 -254 -118
t-92 -312q81 8 193 8q58 0 172 -6q118 -4 176 -4q54 0 91.5 -35.5t37.5 -89.5q0 -53 -37 -88t-92 -35q-59 0 -176 6q-114 6 -172 6q-64 0 -154 -6q51 -202 51 -303q0 -95 -24 -180z" />
    <glyph glyph-name="currency" unicode="&#xa4;" 
d="M979 889q22 -64 22 -146q0 -86 -63 -180q213 -177 213 -252q0 -52 -43 -91.5t-100 -39.5q-52 0 -109 49l-86 86q-47 47 -80 70q-62 -14 -121 -14q-100 0 -206 61l-156 -168q-46 -49 -105 -49q-57 0 -100 39t-43 92q0 34 22 68t111 123q62 64 78 88q-31 78 -31 147
q0 91 60 178q-181 175 -181 240q0 51 42.5 90t101.5 39q50 0 86 -33l184 -186q75 20 180 20q46 0 127 -37q299 170 336 170q55 0 97 -41.5t42 -93.5q0 -63 -52 -97.5t-226 -131.5zM461 772q0 -63 43 -101t112 -38q44 0 75.5 38t31.5 72q0 117 -102 117q-60 0 -110 -28.5
t-50 -59.5z" />
    <glyph glyph-name="yen" unicode="&#xa5;" 
d="M481 621q-25 32 -63 88q-8 2 -59 6l-144 12q-57 5 -86 34.5t-29 82.5q0 112 123 112h22q11 0 23 -2q-219 350 -219 387q0 48 39 82.5t88 34.5q60 0 113 -67.5t114 -190.5q56 -103 107 -184l106 -166q78 93 314 528q33 74 112 74q51 0 88 -32.5t37 -82.5q0 -45 -196 -376
l17 2q56 7 99 -26.5t43 -90.5q0 -52 -35 -85.5t-87 -33.5q-49 0 -183 -18q-19 -22 -90 -107l44 -2q33 -2 123 10q67 9 106 -28.5t39 -87.5q0 -125 -209 -125q-23 0 -107 4v-92l2 -62q2 -55 7 -119q11 -153 -119 -153q-53 0 -88 33.5t-35 85.5q0 30 -4 88l-2 53v174
q-212 8 -257 46t-45 83q0 127 179 113l55 -2h57z" />
    <glyph glyph-name="brokenbar" unicode="&#xa6;" horiz-adv-x="862" 
d="M571 1587v-651q0 -152 -129 -152q-127 0 -127 154v649q0 52 39.5 88.5t94.5 36.5t88.5 -34.5t33.5 -90.5zM571 442v-653q0 -149 -129 -149q-127 0 -127 153v649q0 52 39.5 88.5t94.5 36.5t88.5 -34.5t33.5 -90.5z" />
    <glyph glyph-name="section" unicode="&#xa7;" horiz-adv-x="1300" 
d="M1067 518q72 -101 72 -217q0 -178 -137.5 -278.5t-356.5 -100.5q-257 0 -412 112t-155 324q0 54 36 88.5t93 34.5q41 0 65.5 -16.5t34.5 -37.5t39 -134q52 -150 293 -150q221 0 221 150q0 119 -235 174q-237 57 -346 146t-109 231q0 137 121 256q-68 88 -68 196
q0 157 130.5 250.5t322.5 93.5q182 0 319.5 -88t137.5 -174q0 -50 -36.5 -86.5t-86.5 -36.5q-44 0 -148 76q-103 76 -184 76q-68 0 -129.5 -29.5t-61.5 -79.5t46 -89.5t227 -100.5q259 -88 325 -164t66 -192q0 -150 -84 -234zM883 635q20 49 20 96q0 36 -57 83.5t-414 170.5
q-39 -45 -39 -104q0 -53 40 -94.5t112.5 -64t208.5 -52.5q28 -6 129 -35z" />
    <glyph glyph-name="dieresis" unicode="&#xa8;" horiz-adv-x="1139" 
d="M193 1307q0 46 58 87.5t116 41.5q192 0 192 -146q0 -49 -66 -88t-114 -39q-186 0 -186 144zM637 1292q0 140 207 140q55 0 111.5 -39t56.5 -95q0 -62 -58.5 -98.5t-144.5 -36.5q-64 0 -118 38t-54 91z" />
    <glyph glyph-name="copyright" unicode="&#xa9;" horiz-adv-x="1628" 
d="M804 252q-367 0 -561 168t-194 493q0 276 261 491.5t593 215.5q300 0 480 -180t180 -469q0 -255 -227 -487t-532 -232zM932 1372q-274 0 -449.5 -129.5t-175.5 -329.5t114.5 -313t303.5 -113q222 0 400 145.5t178 356.5q0 383 -371 383zM795 604q-154 0 -268.5 81
t-114.5 214q0 161 149 269t334 108q176 0 176 -113q0 -98 -92 -98q-11 0 -29 4q-19 4 -30 4q-105 0 -188 -51.5t-83 -106.5q0 -104 146 -104q61 0 143 51q83 53 123 53q82 0 82 -104q0 -89 -106.5 -148t-241.5 -59z" />
    <glyph glyph-name="ordfeminine" unicode="&#xaa;" horiz-adv-x="1122" 
d="M725 971q-97 -64 -223 -64q-348 0 -348 361q0 172 135.5 290.5t316.5 118.5q101 0 210.5 -42.5t109.5 -100.5q0 -27 -19 -45q-14 -48 -14 -170q0 -158 29 -213q55 -104 55 -121q0 -33 -47.5 -59.5t-93.5 -26.5q-36 0 -111 72zM664 1473q-27 14 -72 14q-73 0 -126.5 -65.5
t-53.5 -174.5q0 -80 27 -117.5t100 -37.5q75 0 125 49q-15 84 -15 217q0 63 15 115z" />
    <glyph glyph-name="guillemotleft" unicode="&#xab;" horiz-adv-x="1309" 
d="M389 614q45 -42 236 -211q49 -40 49 -90q0 -48 -38.5 -84t-90.5 -36q-60 0 -142 69l-114 113q-87 86 -180 121q-101 33 -101 110q0 68 90 109q94 42 201 145q159 157 192.5 179t73.5 22q53 0 92 -36.5t39 -84.5q0 -34 -21.5 -64t-285.5 -262zM993 596q102 -99 236 -213
q49 -40 49 -88q0 -49 -38.5 -86t-92.5 -37q-39 0 -89 33.5t-167 150.5q-99 93 -178 119q-101 37 -101 111q0 68 90 108q92 41 199 148q159 153 193 176.5t75 23.5q53 0 92 -36.5t39 -83.5q0 -37 -25 -68t-282 -258z" />
    <glyph glyph-name="logicalnot" unicode="&#xac;" 
d="M829 520q-398 -16 -483 -16q-80 0 -137 30t-57 82q0 80 61 130.5t133 50.5h88l461 10q69 0 136 -59.5t67 -124.5q0 -36 -4 -162q-4 -136 -4 -162q0 -46 -37 -78.5t-92 -32.5q-56 0 -93 31.5t-37 79.5v121q0 55 -2 100z" />
    <glyph glyph-name="uni00AD" unicode="&#xad;" 
d="M383 422q-72 0 -118 33t-46 86q0 54 49 87.5t115 33.5l473 10q70 0 120 -31.5t50 -89.5q0 -113 -143 -121t-500 -8z" />
    <glyph glyph-name="registered" unicode="&#xae;" horiz-adv-x="1628" 
d="M51 848q0 370 229 576t650 206q272 0 460.5 -201.5t188.5 -474.5q0 -321 -246.5 -534t-564.5 -213q-324 0 -520.5 171t-196.5 470zM309 848q0 -192 119.5 -294.5t339.5 -102.5q221 0 386 145t165 356q0 183 -119.5 310t-288.5 127q-602 0 -602 -541zM858 823
q213 -101 213 -172q0 -96 -92 -96q-59 0 -123 33.5t-199 171.5q-20 -139 -56.5 -169t-84.5 -30q-42 0 -70 52.5t-28 119.5q0 88 24 213t46 193t108 124.5t170 59.5l31 2q145 9 254.5 -45.5t109.5 -198.5q0 -100 -55 -163t-248 -95zM729 1176l-41 -218q262 14 262 148
q0 79 -170 70h-51z" />
    <glyph glyph-name="macron" unicode="&#xaf;" horiz-adv-x="1139" 
d="M850 1147h-271q-36 0 -85 2l-85 2q-96 2 -123.5 9t-57 36.5t-29.5 71.5q0 116 215 116q40 0 116 -4l70 -2h172l71 2q208 6 208 -114q0 -119 -201 -119z" />
    <glyph glyph-name="degree" unicode="&#xb0;" 
d="M219 1333q0 150 116.5 248t268.5 98q173 0 283 -104t110 -262q0 -142 -122.5 -240t-286.5 -98q-167 0 -268 103t-101 255zM449 1333q0 -69 38.5 -111t100.5 -42q73 0 126.5 40t53.5 93q0 75 -44 118.5t-120 43.5q-60 0 -107.5 -42t-47.5 -100z" />
    <glyph glyph-name="plusminus" unicode="&#xb1;" 
d="M739 512l2 -35q7 -122 -21.5 -195t-119.5 -73q-55 0 -87 35.5t-32 87.5v50q0 34 -2 126q-76 -4 -131 -4q-85 0 -139.5 33t-54.5 90q0 76 46 97t148 21q37 0 129 5q0 131 4.5 174.5t38 83t92.5 39.5q56 0 93.5 -35t37.5 -84l-8 -105v-69l20 -2q10 -1 113 5
q230 14 230 -126q0 -54 -38 -88.5t-87 -34.5l-74 6h-34q-20 0 -46 -2h-80zM696 125h99l57 2q246 9 246 -127q0 -51 -36.5 -87t-88.5 -36q-15 0 -58 7q-27 4 -290 -5q-149 -8 -277 -8q-75 0 -134.5 33t-59.5 92q0 119 149 119q67 0 199 4q132 6 194 6z" />
    <glyph glyph-name="uni00B2" unicode="&#xb2;" horiz-adv-x="942" 
d="M395 1053q198 0 272 12q24 4 40 4q46 0 79 -31.5t33 -74.5q0 -66 -70.5 -93.5t-236.5 -27.5h-43q-25 0 -59 2l-58 2q-92 3 -124 11.5t-61.5 39t-29.5 76.5q0 90 58.5 158t242.5 174q66 39 86.5 63.5t20.5 65.5q0 20 -18.5 37.5t-49.5 17.5q-76 0 -121 -76
q-43 -72 -106 -72q-48 0 -78.5 30t-30.5 75q0 103 110 172.5t230 69.5q110 0 201.5 -78t91.5 -176q0 -161 -127 -234z" />
    <glyph glyph-name="uni00B3" unicode="&#xb3;" horiz-adv-x="942" 
d="M606 1292q176 -56 176 -219q0 -116 -106.5 -191t-267.5 -75q-129 0 -213 33t-84 100q0 48 27 84.5t71 36.5q12 0 27 -5q84 -28 172 -28q139 0 139 80q0 49 -62 59q-128 13 -156 30.5t-28 68.5t29.5 75t124.5 48q59 17 59 55q0 43 -108 43q-43 0 -98 -13q-56 -14 -72 -14
q-44 0 -73.5 26.5t-29.5 69.5q0 89 111 115.5t205 26.5q159 0 238 -61t79 -156q0 -121 -160 -189z" />
    <glyph glyph-name="acute" unicode="&#xb4;" horiz-adv-x="1139" 
d="M303 1188q-51 0 -91 34t-40 78q0 39 51 87t159 163t193 115q52 0 91 -34.5t39 -80.5q0 -49 -54 -88q-54 -35 -131 -121q-137 -153 -217 -153z" />
    <glyph glyph-name="uni00B5" unicode="&#xb5;" 
d="M752 -23q-135 -45 -271 -45q-71 0 -123 15q-72 -212 -107.5 -282.5t-117.5 -70.5q-58 0 -97.5 36.5t-39.5 86.5q0 29 80 242q82 212 87.5 254.5t12.5 136.5q28 242 85.5 436t102 237.5t111.5 43.5q50 0 86.5 -32t36.5 -79q0 -45 -41 -153q-50 -131 -82.5 -289.5
t-32.5 -277.5v-17q40 -18 82 -18q129 0 258 32l76 361q50 238 101.5 352.5t152.5 114.5q47 0 86 -30t39 -79q0 -21 -73 -279q-34 -122 -122 -519q-17 -121 -28.5 -154t-52.5 -64.5t-101 -31.5q-81 0 -108 73z" />
    <glyph glyph-name="paragraph" unicode="&#xb6;" horiz-adv-x="1559" 
d="M1036 1419l2 -37q9 -170 -24.5 -555t-91.5 -666.5t-93.5 -319.5t-93.5 -38q-50 0 -91.5 34t-41.5 87q0 14 6 35q8 32 70 408h-16q-250 0 -440.5 134.5t-190.5 352.5q0 262 161.5 450t459 270.5t331.5 82.5q53 0 90 -39t37 -88q0 -76 -74 -111zM780 1350
q-491 -118 -491 -496q0 -103 115 -172.5t258 -69.5q28 0 67 13q51 289 51 628v97zM1081 -184q-58 0 -95.5 36t-37.5 85q0 22 8 45q75 223 148.5 632t73.5 615q0 41 -17 143q-14 84 -14 146q0 54 37.5 87t93.5 33q104 0 131 -119.5t27 -289.5q0 -139 -58 -511.5t-109 -593
t-92 -264.5t-96 -44z" />
    <glyph glyph-name="periodcentered" unicode="&#xb7;" 
d="M452 715q0 54 49 96.5t115 42.5q72 0 118 -40.5t46 -98.5q0 -54 -49 -94.5t-115 -40.5q-65 0 -114.5 41.5t-49.5 93.5z" />
    <glyph glyph-name="cedilla" unicode="&#xb8;" horiz-adv-x="1139" 
d="M602 -119l-127 43q-65 22 -65 88q0 42 31 72.5t79 30.5q138 0 261.5 -94t123.5 -214q0 -117 -73 -184t-209 -67q-113 0 -205 46.5t-92 116.5q0 82 108 82q30 0 90 -21q59 -22 86 -22q60 0 60 45q0 54 -68 78z" />
    <glyph glyph-name="uni00B9" unicode="&#xb9;" horiz-adv-x="1024" 
d="M305 795q-47 0 -79.5 33.5t-32.5 78.5q0 54 27.5 70.5t127.5 21.5l60 5v364q-58 -51 -105 -51q-102 0 -102 104q0 56 43 86l86 49q29 17 96 66q65 41 96 41q101 0 101 -117v-545h43q161 0 161 -92q0 -45 -32.5 -79.5t-81.5 -34.5h-408z" />
    <glyph glyph-name="ordmasculine" unicode="&#xba;" horiz-adv-x="1122" 
d="M158 1260q0 178 126 298.5t328 120.5q155 0 255 -105.5t100 -256.5q0 -166 -115.5 -286t-298.5 -120q-166 0 -280.5 102t-114.5 247zM416 1260q0 -142 137 -142q162 0 162 178q0 181 -121 181q-81 0 -129.5 -62.5t-48.5 -154.5z" />
    <glyph glyph-name="guillemotright" unicode="&#xbb;" horiz-adv-x="1309" 
d="M918 614q-249 220 -277.5 254t-28.5 72q0 48 39.5 84.5t91.5 36.5q46 0 87 -33t180 -168q104 -103 200 -145q90 -41 90 -109q0 -77 -102 -110q-82 -31 -178 -121l-117 -113q-71 -69 -139 -69q-52 0 -90.5 36t-38.5 84q0 51 49 90zM313 596q-225 198 -265 242.5t-40 83.5
q0 48 39.5 84t91.5 36q57 0 147 -85q163 -157 213 -197.5t107 -65.5q90 -39 90 -108q0 -74 -100 -111q-57 -19 -108 -59.5t-187 -171.5q-84 -72 -139 -72q-54 0 -92.5 37t-38.5 86q0 48 49 88q155 137 233 213z" />
    <glyph glyph-name="onequarter" unicode="&#xbc;" 
d="M414 860q-49 0 -81 34t-32 79q0 53 28 70t128 22l59 4v365q-60 -52 -104 -52q-103 0 -103 105q0 54 43 86l86 49q34 19 97 66q66 41 96 41q100 0 100 -117v-545h43q162 0 162 -92q0 -47 -33 -81t-82 -34h-407zM467 776l17 -1h38l58 -2l78 -1l358 -8q190 -6 190 -119
q0 -49 -33.5 -79.5t-82.5 -30.5q-15 0 -207 10q-214 10 -416 10h-57q-34 0 -80 -2l-79 -2q-88 -2 -129.5 23.5t-41.5 87.5q0 45 33 76.5t82 31.5h56zM829 -158l2 -76q3 -98 -13.5 -126.5t-106.5 -28.5q-33 0 -58.5 37t-25.5 200q-320 -18 -322 -18q-51 0 -85 32t-34 81
q0 63 58 114q114 105 348 389q46 52 125 52q47 0 83 -32.5t36 -76.5q0 -21 -5 -59q-6 -39 -6 -60v-105q0 -59 2 -136q102 -14 136 -38t34 -71q0 -84 -77 -84q-57 0 -91 6zM434 29q45 0 91 6q45 6 102 6l-2 170q-45 -40 -90 -85q-45 -46 -101 -97z" />
    <glyph glyph-name="onehalf" unicode="&#xbd;" 
d="M414 860q-49 0 -81 34t-32 79q0 53 28 70t128 22l59 4v365q-60 -52 -104 -52q-103 0 -103 105q0 54 43 86l86 49q34 19 97 66q66 41 96 41q100 0 100 -117v-545h43q162 0 162 -92q0 -47 -33 -81t-82 -34h-407zM453 555h-57q-34 0 -81 -2l-80 -2q-68 -2 -96.5 6t-52 36.5
t-23.5 68.5q0 44 34 76t81 32h57l218 6q76 0 220 -4l287 -8q143 -3 188.5 -34t45.5 -85q0 -47 -34 -78.5t-87 -31.5q-4 0 -205.5 10t-414.5 10zM586 -186h76q32 0 96 10q51 8 96 8q50 0 81.5 -33t31.5 -80q0 -50 -50.5 -88.5t-259.5 -38.5h-42l-158 5q-69 0 -121.5 33.5
t-52.5 101.5q0 76 30 136.5t78.5 100t190.5 125.5q108 68 108 121q0 16 -19 37.5t-46 21.5q-66 0 -113 -77q-42 -76 -106 -76q-48 0 -82.5 32t-34.5 76q0 106 108 180t232 74q111 0 201 -84t90 -184q0 -93 -35.5 -160.5t-83.5 -98t-215 -142.5z" />
    <glyph glyph-name="threequarters" unicode="&#xbe;" 
d="M778 1321q176 -58 176 -219q0 -117 -107 -191.5t-267 -74.5q-297 0 -297 133q0 48 27 84.5t71 36.5q12 0 27 -5q84 -28 172 -28q139 0 139 80q0 49 -62 59q-138 14 -161 32t-23 66q0 52 31.5 76.5t122.5 46.5q59 17 59 56q0 43 -108 43q-43 0 -98 -13q-56 -14 -72 -14
q-44 0 -73.5 26.5t-29.5 69.5q0 88 111.5 114.5t204.5 26.5q159 0 238 -61t79 -156q0 -121 -160 -188zM453 555h-57q-34 0 -81 -2l-80 -2q-91 -2 -131.5 23.5t-40.5 84.5q0 48 33.5 79.5t81.5 31.5h57l218 6q176 0 400.5 -9t259 -19.5t58 -35t23.5 -67.5q0 -49 -34.5 -79.5
t-86.5 -30.5l-200 10q-202 10 -420 10zM829 -158l2 -76q3 -98 -13.5 -126.5t-106.5 -28.5q-33 0 -58.5 37t-25.5 200q-320 -18 -322 -18q-51 0 -85 32t-34 81q0 63 58 114q114 105 348 389q46 52 125 52q47 0 83 -32.5t36 -76.5q0 -21 -5 -59q-6 -39 -6 -60v-105
q0 -59 2 -136q102 -14 136 -38t34 -71q0 -84 -77 -84q-57 0 -91 6zM434 29q45 0 91 6q45 6 102 6l-2 170q-45 -40 -90 -85q-45 -46 -101 -97z" />
    <glyph glyph-name="questiondown" unicode="&#xbf;" horiz-adv-x="1159" 
d="M621 1415q0 75 40 128.5t107 53.5q62 0 109 -38.5t47 -96.5q0 -75 -44 -131.5t-118 -56.5q-63 0 -102 39.5t-39 101.5zM84 455q0 132 62 219t243 215q159 107 219 176q45 51 107 51q57 0 99 -41t42 -94q0 -108 -247 -264t-247 -262q0 -93 93.5 -174.5t197.5 -81.5
q53 0 148 61q95 62 133 62q55 0 97 -43.5t42 -98.5q0 -93 -156.5 -172.5t-263.5 -79.5q-217 0 -393 160t-176 367z" />
    <glyph glyph-name="Agrave" unicode="&#xc0;" horiz-adv-x="1497" 
d="M999 428q-78 -10 -241 -22q-168 -11 -242 -25q-122 -273 -165 -338.5t-118 -65.5q-58 0 -100.5 39t-42.5 95q0 51 148 346q-13 23 -13 53q0 51 97 80q181 311 377.5 600t246.5 289q110 0 148 -133q41 -248 122 -599l88 -380q9 -30 52 -134q37 -88 37 -129q0 -57 -43 -96
t-101 -39q-125 0 -250 459zM877 995l-215 -364q46 10 141 16q110 6 139 10q-16 98 -65 338zM629 2007q0 45 38 80t91 35q80 0 229 -153.5t149 -219.5q0 -48 -40 -79t-93 -31q-65 0 -104 51q-127 171 -215 229q-55 37 -55 88z" />
    <glyph glyph-name="Aacute" unicode="&#xc1;" horiz-adv-x="1497" 
d="M999 428q-78 -10 -241 -22q-168 -11 -242 -25q-122 -273 -165 -338.5t-118 -65.5q-58 0 -100.5 39t-42.5 95q0 51 148 346q-13 23 -13 53q0 51 97 80q181 311 377.5 600t246.5 289q110 0 148 -133q41 -248 122 -599l88 -380q9 -30 52 -134q37 -88 37 -129q0 -57 -43 -96
t-101 -39q-125 0 -250 459zM877 995l-215 -364q46 10 141 16q110 6 139 10q-16 98 -65 338zM930 1630q-51 0 -91 34t-40 78q0 39 51 87t159 163t193 115q52 0 91 -34.5t39 -80.5q0 -49 -54 -88q-54 -35 -131 -121q-137 -153 -217 -153z" />
    <glyph glyph-name="Acircumflex" unicode="&#xc2;" horiz-adv-x="1497" 
d="M999 428q-78 -10 -241 -22q-168 -11 -242 -25q-122 -273 -165 -338.5t-118 -65.5q-58 0 -100.5 39t-42.5 95q0 51 148 346q-13 23 -13 53q0 51 97 80q181 311 377.5 600t246.5 289q110 0 148 -133q41 -248 122 -599l88 -380q9 -30 52 -134q37 -88 37 -129q0 -57 -43 -96
t-101 -39q-125 0 -250 459zM877 995l-215 -364q46 10 141 16q110 6 139 10q-16 98 -65 338zM936 1888q-242 -256 -329 -256q-54 0 -92.5 35.5t-38.5 79.5q0 45 43 82q89 79 303 291q40 37 90 37q47 0 110 -36.5t167.5 -136.5t147 -136.5t42.5 -80.5q0 -46 -39.5 -80
t-93.5 -34q-56 0 -100.5 44.5t-209.5 190.5z" />
    <glyph glyph-name="Atilde" unicode="&#xc3;" horiz-adv-x="1497" 
d="M999 428q-78 -10 -241 -22q-168 -11 -242 -25q-122 -273 -165 -338.5t-118 -65.5q-58 0 -100.5 39t-42.5 95q0 51 148 346q-13 23 -13 53q0 51 97 80q181 311 377.5 600t246.5 289q110 0 148 -133q41 -248 122 -599l88 -380q9 -30 52 -134q37 -88 37 -129q0 -57 -43 -96
t-101 -39q-125 0 -250 459zM877 995l-215 -364q46 10 141 16q110 6 139 10q-16 98 -65 338zM1192 1635q-119 0 -185 28.5t-135 110.5q-33 43 -67 43q-55 0 -99 -74q-39 -71 -108 -71q-49 0 -84 26.5t-35 65.5q0 60 85.5 150.5t240.5 90.5q95 0 142 -27.5t124 -111.5
q40 -43 90 -43q30 0 45.5 13t48.5 71q22 57 45.5 73.5t71.5 16.5q47 0 81 -26.5t34 -67.5q0 -43 -75 -155.5t-220 -112.5z" />
    <glyph glyph-name="Adieresis" unicode="&#xc4;" horiz-adv-x="1497" 
d="M999 428q-78 -10 -241 -22q-168 -11 -242 -25q-122 -273 -165 -338.5t-118 -65.5q-58 0 -100.5 39t-42.5 95q0 51 148 346q-13 23 -13 53q0 51 97 80q181 311 377.5 600t246.5 289q110 0 148 -133q41 -248 122 -599l88 -380q9 -30 52 -134q37 -88 37 -129q0 -57 -43 -96
t-101 -39q-125 0 -250 459zM877 995l-215 -364q46 10 141 16q110 6 139 10q-16 98 -65 338zM562 1758q0 46 58 87.5t116 41.5q192 0 192 -146q0 -49 -66 -88t-114 -39q-186 0 -186 144zM1006 1743q0 140 207 140q55 0 111.5 -39t56.5 -95q0 -62 -58.5 -98.5t-144.5 -36.5
q-64 0 -118 38t-54 91z" />
    <glyph glyph-name="Aring" unicode="&#xc5;" horiz-adv-x="1497" 
d="M999 428q-78 -10 -241 -22q-168 -11 -242 -25q-122 -273 -165 -338.5t-118 -65.5q-58 0 -100.5 39t-42.5 95q0 51 148 346q-13 23 -13 53q0 51 97 80q181 311 377.5 600t246.5 289q110 0 148 -133q41 -248 122 -599l88 -380q9 -30 52 -134q37 -88 37 -129q0 -57 -43 -96
t-101 -39q-125 0 -250 459zM877 995l-215 -364q46 10 141 16q110 6 139 10q-16 98 -65 338zM940 1430q-142 0 -244 77.5t-102 188.5q0 141 113 223t291 82q146 0 248 -76.5t102 -193.5q0 -146 -108 -223.5t-300 -77.5zM824 1699q0 -27 51.5 -49t107.5 -22q136 0 136 103
q0 30 -34.5 49.5t-86.5 19.5q-174 0 -174 -101z" />
    <glyph glyph-name="AE" unicode="&#xc6;" horiz-adv-x="2226" 
d="M1417 1300q4 -40 4 -71q0 -147 -14 -326q16 0 391 37q193 21 242 21q61 0 102 -39t41 -99q0 -53 -27.5 -86t-61 -41t-250.5 -26l-455 -39q-7 -96 -7 -205q0 -214 27 -226t123 -12h77q47 0 219 6q103 3 169 11q75 9 123.5 -30t48.5 -105q0 -72 -64.5 -114t-275.5 -42h-219
q-297 0 -401.5 97.5t-104.5 414.5q0 100 6 211q-128 -13 -481 -39q-83 -109 -246 -352q-111 -172 -146.5 -205t-86.5 -33q-56 0 -100 39.5t-44 91.5q0 30 15 61.5t199.5 299.5t352.5 458l312 375q71 85 180.5 169.5t196.5 84.5q42 0 81 -24q233 59 418 59q496 0 496 -186
q0 -56 -41.5 -98t-97.5 -42q-19 0 -41 7q-182 45 -316 45q-142 0 -344 -48zM1143 1206q-54 -51 -273 -319q142 12 258 16q9 109 15 303z" />
    <glyph glyph-name="Ccedilla" unicode="&#xc7;" horiz-adv-x="1268" 
d="M801 0q30 -59 30 -115q0 -148 -109.5 -220.5t-352.5 -72.5q-170 0 -170 113q0 47 31.5 80t80.5 33l115 -4q108 0 142 14.5t34 56.5q0 31 -46.5 53.5t-201.5 71.5q-305 174 -305 492q0 319 263 655t540 336q92 0 141 -14q46 45 107 45q77 0 110 -71.5t33 -246.5
q0 -57 -37.5 -101t-101.5 -44q-87 0 -137 104q-21 39 -30 46.5t-85 7.5q-141 0 -331.5 -250t-190.5 -467q0 -106 71.5 -187.5t176.5 -81.5q75 0 145.5 30t208.5 122q77 53 117 53q57 0 99 -41.5t42 -97.5q0 -67 -122.5 -155.5t-266.5 -143.5z" />
    <glyph glyph-name="Egrave" unicode="&#xc8;" horiz-adv-x="1280" 
d="M408 1284q0 -159 -9 -395q102 8 392 37q190 18 241 18q62 0 103 -38t41 -97q0 -116 -114.5 -131.5t-680.5 -63.5q-6 -126 -6 -204q0 -222 29.5 -230t117.5 -8h79l296 6q12 0 92 10q74 9 122 -29.5t48 -105.5q0 -100 -86 -125.5t-444 -25.5q-335 0 -435 96t-100 412
q0 146 19 401q20 244 20 401q0 35 -10 103q-10 70 -10 104q0 154 141 154q44 0 80 -27q226 60 418 60q171 0 296.5 -28.5t162 -64t36.5 -94.5q0 -52 -39 -94.5t-98 -42.5q-22 0 -43 6q-162 43 -315 43q-159 0 -344 -47zM416 2115q0 45 38 80t91 35q80 0 229 -153.5
t149 -219.5q0 -48 -40 -79t-93 -31q-65 0 -104 51q-127 171 -215 229q-55 37 -55 88z" />
    <glyph glyph-name="Eacute" unicode="&#xc9;" horiz-adv-x="1280" 
d="M408 1284q0 -159 -9 -395q102 8 392 37q190 18 241 18q62 0 103 -38t41 -97q0 -116 -114.5 -131.5t-680.5 -63.5q-6 -126 -6 -204q0 -222 29.5 -230t117.5 -8h79l296 6q12 0 92 10q74 9 122 -29.5t48 -105.5q0 -100 -86 -125.5t-444 -25.5q-335 0 -435 96t-100 412
q0 146 19 401q20 244 20 401q0 35 -10 103q-10 70 -10 104q0 154 141 154q44 0 80 -27q226 60 418 60q171 0 296.5 -28.5t162 -64t36.5 -94.5q0 -52 -39 -94.5t-98 -42.5q-22 0 -43 6q-162 43 -315 43q-159 0 -344 -47zM655 1766q-51 0 -91 34t-40 78q0 39 51 87t159 163
t193 115q52 0 91 -34.5t39 -80.5q0 -49 -54 -88q-54 -35 -131 -121q-137 -153 -217 -153z" />
    <glyph glyph-name="Ecircumflex" unicode="&#xca;" horiz-adv-x="1280" 
d="M408 1284q0 -159 -9 -395q102 8 392 37q190 18 241 18q62 0 103 -38t41 -97q0 -116 -114.5 -131.5t-680.5 -63.5q-6 -126 -6 -204q0 -222 29.5 -230t117.5 -8h79l296 6q12 0 92 10q74 9 122 -29.5t48 -105.5q0 -100 -86 -125.5t-444 -25.5q-335 0 -435 96t-100 412
q0 146 19 401q20 244 20 401q0 35 -10 103q-10 70 -10 104q0 154 141 154q44 0 80 -27q226 60 418 60q171 0 296.5 -28.5t162 -64t36.5 -94.5q0 -52 -39 -94.5t-98 -42.5q-22 0 -43 6q-162 43 -315 43q-159 0 -344 -47zM714 1988q-242 -256 -329 -256q-54 0 -92.5 35.5
t-38.5 79.5q0 45 43 82q89 79 303 291q40 37 90 37q47 0 110 -36.5t167.5 -136.5t147 -136.5t42.5 -80.5q0 -46 -39.5 -80t-93.5 -34q-56 0 -100.5 44.5t-209.5 190.5z" />
    <glyph glyph-name="Edieresis" unicode="&#xcb;" horiz-adv-x="1280" 
d="M408 1284q0 -159 -9 -395q102 8 392 37q190 18 241 18q62 0 103 -38t41 -97q0 -116 -114.5 -131.5t-680.5 -63.5q-6 -126 -6 -204q0 -222 29.5 -230t117.5 -8h79l296 6q12 0 92 10q74 9 122 -29.5t48 -105.5q0 -100 -86 -125.5t-444 -25.5q-335 0 -435 96t-100 412
q0 146 19 401q20 244 20 401q0 35 -10 103q-10 70 -10 104q0 154 141 154q44 0 80 -27q226 60 418 60q171 0 296.5 -28.5t162 -64t36.5 -94.5q0 -52 -39 -94.5t-98 -42.5q-22 0 -43 6q-162 43 -315 43q-159 0 -344 -47zM293 1874q0 46 58 87.5t116 41.5q192 0 192 -146
q0 -49 -66 -88t-114 -39q-186 0 -186 144zM737 1859q0 140 207 140q55 0 111.5 -39t56.5 -95q0 -62 -58.5 -98.5t-144.5 -36.5q-64 0 -118 38t-54 91z" />
    <glyph glyph-name="Igrave" unicode="&#xcc;" horiz-adv-x="1118" 
d="M672 1210q-15 -185 -15 -489v-449l134 2q79 1 140.5 -0.5t98.5 -41.5t37 -93q0 -55 -40.5 -95t-98.5 -40h-70q-41 0 -98 -2l-99 -2q-160 -3 -268 -18q-125 -19 -196 -19q-60 0 -100 40t-40 95q0 57 40 97.5t100 40.5q80 0 178 14l-2 172q-6 507 20 799l-217 -7
q-55 -2 -98 37t-43 101q0 52 35 89.5t90.5 44.5t310.5 7q130 0 324 -20t229.5 -32.5t55.5 -44.5t20 -81q0 -61 -41.5 -97t-102.5 -36q-50 0 -284 28zM285 1986q0 45 38 80t91 35q80 0 229 -153.5t149 -219.5q0 -48 -40 -79t-93 -31q-65 0 -104 51q-127 171 -215 229
q-55 37 -55 88z" />
    <glyph glyph-name="Iacute" unicode="&#xcd;" horiz-adv-x="1118" 
d="M672 1210q-15 -185 -15 -489v-449l134 2q79 1 140.5 -0.5t98.5 -41.5t37 -93q0 -55 -40.5 -95t-98.5 -40h-70q-41 0 -98 -2l-99 -2q-160 -3 -268 -18q-125 -19 -196 -19q-60 0 -100 40t-40 95q0 57 40 97.5t100 40.5q80 0 178 14l-2 172q-6 507 20 799l-217 -7
q-55 -2 -98 37t-43 101q0 52 35 89.5t90.5 44.5t310.5 7q130 0 324 -20t229.5 -32.5t55.5 -44.5t20 -81q0 -61 -41.5 -97t-102.5 -36q-50 0 -284 28zM463 1630q-51 0 -91 34t-40 78q0 39 51 87t159 163t193 115q52 0 91 -34.5t39 -80.5q0 -49 -54 -88q-54 -35 -131 -121
q-137 -153 -217 -153z" />
    <glyph glyph-name="Icircumflex" unicode="&#xce;" horiz-adv-x="1118" 
d="M672 1210q-15 -185 -15 -489v-449l134 2q79 1 140.5 -0.5t98.5 -41.5t37 -93q0 -55 -40.5 -95t-98.5 -40h-70q-41 0 -98 -2l-99 -2q-160 -3 -268 -18q-125 -19 -196 -19q-60 0 -100 40t-40 95q0 57 40 97.5t100 40.5q80 0 178 14l-2 172q-6 507 20 799l-217 -7
q-55 -2 -98 37t-43 101q0 52 35 89.5t90.5 44.5t310.5 7q130 0 324 -20t229.5 -32.5t55.5 -44.5t20 -81q0 -61 -41.5 -97t-102.5 -36q-50 0 -284 28zM600 1908q-242 -256 -329 -256q-54 0 -92.5 35.5t-38.5 79.5q0 45 43 82q89 79 303 291q40 37 90 37q47 0 110 -36.5
t167.5 -136.5t147 -136.5t42.5 -80.5q0 -46 -39.5 -80t-93.5 -34q-56 0 -100.5 44.5t-209.5 190.5z" />
    <glyph glyph-name="Idieresis" unicode="&#xcf;" horiz-adv-x="1118" 
d="M672 1210q-15 -185 -15 -489v-449l134 2q79 1 140.5 -0.5t98.5 -41.5t37 -93q0 -55 -40.5 -95t-98.5 -40h-70q-41 0 -98 -2l-99 -2q-160 -3 -268 -18q-125 -19 -196 -19q-60 0 -100 40t-40 95q0 57 40 97.5t100 40.5q80 0 178 14l-2 172q-6 507 20 799l-217 -7
q-55 -2 -98 37t-43 101q0 52 35 89.5t90.5 44.5t310.5 7q130 0 324 -20t229.5 -32.5t55.5 -44.5t20 -81q0 -61 -41.5 -97t-102.5 -36q-50 0 -284 28zM166 1776q0 46 58 87.5t116 41.5q192 0 192 -146q0 -49 -66 -88t-114 -39q-186 0 -186 144zM610 1761q0 140 207 140
q55 0 111.5 -39t56.5 -95q0 -62 -58.5 -98.5t-144.5 -36.5q-64 0 -118 38t-54 91z" />
    <glyph glyph-name="Eth" unicode="&#xd0;" horiz-adv-x="1479" 
d="M283 -10q-129 6 -129 137v434h-48q-190 0 -190 135t188 135h23q13 0 27 -2v564q0 57 53 110t112 53q32 0 299 -122q46 -21 52 -23q345 -126 545 -340t200 -477q0 -254 -184.5 -473t-599.5 -219q-214 0 -348 88zM428 827q44 0 119 -8q73 -6 119 -6q59 0 99 -38.5t40 -94.5
q0 -58 -41 -94.5t-98 -36.5q-46 0 -119 6q-96 6 -119 6q3 -113 0 -340q100 -51 203 -51q205 0 297 52.5t149.5 154t57.5 213.5q0 145 -113.5 285.5t-593.5 334.5v-383z" />
    <glyph glyph-name="Ntilde" unicode="&#xd1;" horiz-adv-x="1665" 
d="M391 1012q-6 -261 -6 -320v-100l6 -377q0 -295 -143 -295q-71 0 -113.5 41t-42.5 102q0 39 6 119q6 84 6 123l9 354q0 65 -4 191q-3 106 -3 178t-12 191q-10 120 -10 178t50.5 105.5t117.5 47.5q73 0 164 -127q454 -648 897 -1056v151q0 427 -5 549.5t-18 222.5
q-10 70 -10 111q0 137 145 137q164 0 164 -502v-46l-8 -744q0 -101 -26.5 -194t-137.5 -93q-54 0 -137.5 63t-332 327t-556.5 663zM1043 1653q-119 0 -185 28.5t-135 110.5q-33 43 -67 43q-55 0 -99 -74q-39 -71 -108 -71q-49 0 -84 26.5t-35 65.5q0 60 85.5 150.5
t240.5 90.5q95 0 142 -27.5t124 -111.5q40 -43 90 -43q30 0 45.5 13t48.5 71q22 57 45.5 73.5t71.5 16.5q47 0 81 -26.5t34 -67.5q0 -43 -75 -155.5t-220 -112.5z" />
    <glyph glyph-name="Ograve" unicode="&#xd2;" horiz-adv-x="1634" 
d="M59 580q0 359 234.5 647.5t580.5 288.5q699 0 699 -642q0 -375 -221.5 -655t-565.5 -280q-305 0 -516 179t-211 462zM344 580q0 -164 129 -266.5t313 -102.5q217 0 359.5 205.5t142.5 457.5q0 202 -88 285.5t-326 83.5q-221 0 -375.5 -206t-154.5 -457zM768 2009
q0 45 38 80t91 35q80 0 229 -153.5t149 -219.5q0 -48 -40 -79t-93 -31q-65 0 -104 51q-127 171 -215 229q-55 37 -55 88z" />
    <glyph glyph-name="Oacute" unicode="&#xd3;" horiz-adv-x="1634" 
d="M59 580q0 359 234.5 647.5t580.5 288.5q699 0 699 -642q0 -375 -221.5 -655t-565.5 -280q-305 0 -516 179t-211 462zM344 580q0 -164 129 -266.5t313 -102.5q217 0 359.5 205.5t142.5 457.5q0 202 -88 285.5t-326 83.5q-221 0 -375.5 -206t-154.5 -457zM948 1637
q-51 0 -91 34t-40 78q0 39 51 87t159 163t193 115q52 0 91 -34.5t39 -80.5q0 -49 -54 -88q-54 -35 -131 -121q-137 -153 -217 -153z" />
    <glyph glyph-name="Ocircumflex" unicode="&#xd4;" horiz-adv-x="1634" 
d="M59 580q0 359 234.5 647.5t580.5 288.5q699 0 699 -642q0 -375 -221.5 -655t-565.5 -280q-305 0 -516 179t-211 462zM344 580q0 -164 129 -266.5t313 -102.5q217 0 359.5 205.5t142.5 457.5q0 202 -88 285.5t-326 83.5q-221 0 -375.5 -206t-154.5 -457zM1020 1863
q-242 -256 -329 -256q-54 0 -92.5 35.5t-38.5 79.5q0 45 43 82q89 79 303 291q40 37 90 37q47 0 110 -36.5t167.5 -136.5t147 -136.5t42.5 -80.5q0 -46 -39.5 -80t-93.5 -34q-56 0 -100.5 44.5t-209.5 190.5z" />
    <glyph glyph-name="Otilde" unicode="&#xd5;" horiz-adv-x="1634" 
d="M59 580q0 359 234.5 647.5t580.5 288.5q699 0 699 -642q0 -375 -221.5 -655t-565.5 -280q-305 0 -516 179t-211 462zM344 580q0 -164 129 -266.5t313 -102.5q217 0 359.5 205.5t142.5 457.5q0 202 -88 285.5t-326 83.5q-221 0 -375.5 -206t-154.5 -457zM1215 1637
q-119 0 -185 28.5t-135 110.5q-33 43 -67 43q-55 0 -99 -74q-39 -71 -108 -71q-49 0 -84 26.5t-35 65.5q0 60 85.5 150.5t240.5 90.5q95 0 142 -27.5t124 -111.5q40 -43 90 -43q30 0 45.5 13t48.5 71q22 57 45.5 73.5t71.5 16.5q47 0 81 -26.5t34 -67.5q0 -43 -75 -155.5
t-220 -112.5z" />
    <glyph glyph-name="Odieresis" unicode="&#xd6;" horiz-adv-x="1634" 
d="M59 580q0 359 234.5 647.5t580.5 288.5q699 0 699 -642q0 -375 -221.5 -655t-565.5 -280q-305 0 -516 179t-211 462zM344 580q0 -164 129 -266.5t313 -102.5q217 0 359.5 205.5t142.5 457.5q0 202 -88 285.5t-326 83.5q-221 0 -375.5 -206t-154.5 -457zM543 1782
q0 46 58 87.5t116 41.5q192 0 192 -146q0 -49 -66 -88t-114 -39q-186 0 -186 144zM987 1767q0 140 207 140q55 0 111.5 -39t56.5 -95q0 -62 -58.5 -98.5t-144.5 -36.5q-64 0 -118 38t-54 91z" />
    <glyph glyph-name="multiply" unicode="&#xd7;" 
d="M829 641q211 -162 211 -256q0 -51 -33 -91t-92 -40q-70 0 -135 74q-98 110 -108 116q-100 -107 -138 -164t-112 -57q-57 0 -99 35.5t-42 85.5q0 40 15 67.5t83 99.5q51 55 76 97q-123 110 -189 150q-65 39 -65 102q0 51 41.5 91t97.5 40q87 0 283 -178q37 37 170 139
q14 12 28 25q49 43 101 43q56 0 99.5 -38.5t43.5 -88.5q0 -66 -84 -127q-60 -44 -152 -125z" />
    <glyph glyph-name="Oslash" unicode="&#xd8;" horiz-adv-x="1634" 
d="M1530 1227q72 -143 72 -353q0 -369 -222 -653t-565 -284q-253 0 -446 129q-144 -156 -193 -156q-50 0 -91.5 38t-41.5 89q0 46 154 196q-107 153 -107 347q0 360 236 648t579 288q288 0 455 -105q134 131 176 131q56 0 95.5 -36t39.5 -87q0 -42 -72 -123zM399 449
l756 759q-87 35 -250 35q-220 0 -375 -206t-155 -457q0 -67 24 -131zM1307 1010l-738 -744q110 -57 246 -57q220 0 362 206t142 459q0 83 -12 136z" />
    <glyph glyph-name="Ugrave" unicode="&#xd9;" horiz-adv-x="1509" 
d="M88 1036v49q0 30 2 68l2 67q3 113 15.5 164.5t44.5 91.5t77 40q55 0 99.5 -37.5t44.5 -98.5v-72q0 -43 -2 -100v-174q0 -47 -6 -145q-5 -120 -5 -144q0 -299 90 -421.5t269 -122.5q187 0 295 242t108 868q0 63 43 119.5t119 56.5q61 0 94 -39t33 -92q0 -800 -184.5 -1114
t-507.5 -314q-641 0 -641 817q0 50 4 146q6 96 6 145zM431 2003q0 45 38 80t91 35q80 0 229 -153.5t149 -219.5q0 -48 -40 -79t-93 -31q-65 0 -104 51q-127 171 -215 229q-55 37 -55 88z" />
    <glyph glyph-name="Uacute" unicode="&#xda;" horiz-adv-x="1509" 
d="M88 1036v49q0 30 2 68l2 67q3 113 15.5 164.5t44.5 91.5t77 40q55 0 99.5 -37.5t44.5 -98.5v-72q0 -43 -2 -100v-174q0 -47 -6 -145q-5 -120 -5 -144q0 -299 90 -421.5t269 -122.5q187 0 295 242t108 868q0 63 43 119.5t119 56.5q61 0 94 -39t33 -92q0 -800 -184.5 -1114
t-507.5 -314q-641 0 -641 817q0 50 4 146q6 96 6 145zM735 1645q-51 0 -91 34t-40 78q0 39 51 87t159 163t193 115q52 0 91 -34.5t39 -80.5q0 -49 -54 -88q-54 -35 -131 -121q-137 -153 -217 -153z" />
    <glyph glyph-name="Ucircumflex" unicode="&#xdb;" horiz-adv-x="1509" 
d="M88 1036v49q0 30 2 68l2 67q3 113 15.5 164.5t44.5 91.5t77 40q55 0 99.5 -37.5t44.5 -98.5v-72q0 -43 -2 -100v-174q0 -47 -6 -145q-5 -120 -5 -144q0 -299 90 -421.5t269 -122.5q187 0 295 242t108 868q0 63 43 119.5t119 56.5q61 0 94 -39t33 -92q0 -800 -184.5 -1114
t-507.5 -314q-641 0 -641 817q0 50 4 146q6 96 6 145zM823 1878q-242 -256 -329 -256q-54 0 -92.5 35.5t-38.5 79.5q0 45 43 82q89 79 303 291q40 37 90 37q47 0 110 -36.5t167.5 -136.5t147 -136.5t42.5 -80.5q0 -46 -39.5 -80t-93.5 -34q-56 0 -100.5 44.5t-209.5 190.5z
" />
    <glyph glyph-name="Udieresis" unicode="&#xdc;" horiz-adv-x="1509" 
d="M88 1036v49q0 30 2 68l2 67q3 113 15.5 164.5t44.5 91.5t77 40q55 0 99.5 -37.5t44.5 -98.5v-72q0 -43 -2 -100v-174q0 -47 -6 -145q-5 -120 -5 -144q0 -299 90 -421.5t269 -122.5q187 0 295 242t108 868q0 63 43 119.5t119 56.5q61 0 94 -39t33 -92q0 -800 -184.5 -1114
t-507.5 -314q-641 0 -641 817q0 50 4 146q6 96 6 145zM373 1760q0 46 58 87.5t116 41.5q192 0 192 -146q0 -49 -66 -88t-114 -39q-186 0 -186 144zM817 1745q0 140 207 140q55 0 111.5 -39t56.5 -95q0 -62 -58.5 -98.5t-144.5 -36.5q-64 0 -118 38t-54 91z" />
    <glyph glyph-name="Yacute" unicode="&#xdd;" horiz-adv-x="1300" 
d="M547 477q-107 157 -316 485l-225 354q-16 27 -16 70q0 57 42 96.5t99 39.5q81 0 121 -68l248 -412q135 -224 182 -282q203 408 309 672q41 90 131 90q58 0 101 -40.5t43 -95.5q0 -27 -60 -151q-29 -60 -205 -455q-128 -296 -231 -485l-136 -248q-31 -59 -69 -88t-84 -29
q-58 0 -100.5 37.5t-42.5 98.5q0 49 209 411zM643 1729q-51 0 -91 34t-40 78q0 39 51 87t159 163t193 115q52 0 91 -34.5t39 -80.5q0 -49 -54 -88q-54 -35 -131 -121q-137 -153 -217 -153z" />
    <glyph glyph-name="Thorn" unicode="&#xde;" horiz-adv-x="1067" 
d="M489 1366q200 7 381 -123t181 -348q0 -244 -185 -391.5t-446 -147.5q-50 0 -96 9v-261q0 -54 -37.5 -91.5t-93.5 -37.5q-57 0 -95.5 37t-38.5 92v279q0 140 21 395q14 220 20 396v129q0 247 144 247q126 0 123 -188zM362 1110q-13 -184 -30 -487q47 -9 88 -9
q156 0 262 76.5t106 204.5q0 86 -100.5 150.5t-218.5 64.5h-107z" />
    <glyph glyph-name="germandbls" unicode="&#xdf;" horiz-adv-x="1094" 
d="M588 176q33 2 72.5 5t58 23.5t18.5 78.5q0 142 -46 226t-143 153q-112 79 -112 147q0 63 121 166q123 100 123 176q0 160 -98 160q-131 0 -171 -176t-40 -580v-74l6 -278q0 -200 -31.5 -280.5t-122.5 -80.5q-53 0 -95 36t-42 89v13l15 112q8 68 8 148q0 49 4 151
q6 102 6 154v45q0 28 -2 65v111q0 444 119 624.5t350 180.5q172 0 273.5 -121t101.5 -305q0 -148 -185 -330q230 -175 230 -522q0 -175 -100.5 -273t-280.5 -98q-108 0 -149.5 20.5t-41.5 120.5q0 46 29 79.5t78 33.5h47z" />
    <glyph glyph-name="agrave" unicode="&#xe0;" horiz-adv-x="1139" 
d="M819 35q-185 -90 -280 -90q-484 0 -484 516q0 239 178 411t426 172q103 0 237 -61.5t134 -142.5q0 -36 -22 -64q-21 -79 -21 -241q0 -220 41 -306q72 -155 72 -172q0 -52 -40 -87.5t-95 -35.5q-45 0 -146 101zM735 786q-35 19 -61 19q-139 0 -239.5 -106t-100.5 -246
q0 -271 190 -271q126 0 224 82q-31 231 -31 357q0 84 18 165zM265 1542q0 45 38 80t91 35q80 0 229 -153.5t149 -219.5q0 -48 -40 -79t-93 -31q-65 0 -104 51q-127 171 -215 229q-55 37 -55 88z" />
    <glyph glyph-name="aacute" unicode="&#xe1;" horiz-adv-x="1139" 
d="M819 35q-185 -90 -280 -90q-484 0 -484 516q0 239 178 411t426 172q103 0 237 -61.5t134 -142.5q0 -36 -22 -64q-21 -79 -21 -241q0 -220 41 -306q72 -155 72 -172q0 -52 -40 -87.5t-95 -35.5q-45 0 -146 101zM735 786q-35 19 -61 19q-139 0 -239.5 -106t-100.5 -246
q0 -271 190 -271q126 0 224 82q-31 231 -31 357q0 84 18 165zM567 1188q-51 0 -91 34t-40 78q0 39 51 87t159 163t193 115q52 0 91 -34.5t39 -80.5q0 -49 -54 -88q-54 -35 -131 -121q-137 -153 -217 -153z" />
    <glyph glyph-name="acircumflex" unicode="&#xe2;" horiz-adv-x="1139" 
d="M819 35q-185 -90 -280 -90q-484 0 -484 516q0 239 178 411t426 172q103 0 237 -61.5t134 -142.5q0 -36 -22 -64q-21 -79 -21 -241q0 -220 41 -306q72 -155 72 -172q0 -52 -40 -87.5t-95 -35.5q-45 0 -146 101zM735 786q-35 19 -61 19q-139 0 -239.5 -106t-100.5 -246
q0 -271 190 -271q126 0 224 82q-31 231 -31 357q0 84 18 165zM614 1429q-242 -256 -329 -256q-54 0 -92.5 35.5t-38.5 79.5q0 45 43 82q89 79 303 291q40 37 90 37q47 0 110 -36.5t167.5 -136.5t147 -136.5t42.5 -80.5q0 -46 -39.5 -80t-93.5 -34q-56 0 -100.5 44.5
t-209.5 190.5z" />
    <glyph glyph-name="atilde" unicode="&#xe3;" horiz-adv-x="1139" 
d="M819 35q-185 -90 -280 -90q-484 0 -484 516q0 239 178 411t426 172q103 0 237 -61.5t134 -142.5q0 -36 -22 -64q-21 -79 -21 -241q0 -220 41 -306q72 -155 72 -172q0 -52 -40 -87.5t-95 -35.5q-45 0 -146 101zM735 786q-35 19 -61 19q-139 0 -239.5 -106t-100.5 -246
q0 -271 190 -271q126 0 224 82q-31 231 -31 357q0 84 18 165zM801 1166q-119 0 -185 28.5t-135 110.5q-33 43 -67 43q-55 0 -99 -74q-39 -71 -108 -71q-49 0 -84 26.5t-35 65.5q0 60 85.5 150.5t240.5 90.5q95 0 142 -27.5t124 -111.5q40 -43 90 -43q30 0 45.5 13t48.5 71
q22 57 45.5 73.5t71.5 16.5q47 0 81 -26.5t34 -67.5q0 -43 -75 -155.5t-220 -112.5z" />
    <glyph glyph-name="adieresis" unicode="&#xe4;" horiz-adv-x="1139" 
d="M819 35q-185 -90 -280 -90q-484 0 -484 516q0 239 178 411t426 172q103 0 237 -61.5t134 -142.5q0 -36 -22 -64q-21 -79 -21 -241q0 -220 41 -306q72 -155 72 -172q0 -52 -40 -87.5t-95 -35.5q-45 0 -146 101zM735 786q-35 19 -61 19q-139 0 -239.5 -106t-100.5 -246
q0 -271 190 -271q126 0 224 82q-31 231 -31 357q0 84 18 165zM224 1307q0 46 58 87.5t116 41.5q192 0 192 -146q0 -49 -66 -88t-114 -39q-186 0 -186 144zM668 1292q0 140 207 140q55 0 111.5 -39t56.5 -95q0 -62 -58.5 -98.5t-144.5 -36.5q-64 0 -118 38t-54 91z" />
    <glyph glyph-name="aring" unicode="&#xe5;" horiz-adv-x="1139" 
d="M819 35q-185 -90 -280 -90q-484 0 -484 516q0 239 178 411t426 172q103 0 237 -61.5t134 -142.5q0 -36 -22 -64q-21 -79 -21 -241q0 -220 41 -306q72 -155 72 -172q0 -52 -40 -87.5t-95 -35.5q-45 0 -146 101zM735 786q-35 19 -61 19q-139 0 -239.5 -106t-100.5 -246
q0 -271 190 -271q126 0 224 82q-31 231 -31 357q0 84 18 165zM569 1186q-142 0 -244 77.5t-102 188.5q0 141 113 223t291 82q146 0 248 -76.5t102 -193.5q0 -146 -108 -223.5t-300 -77.5zM453 1455q0 -27 51.5 -49t107.5 -22q136 0 136 103q0 30 -34.5 49.5t-86.5 19.5
q-174 0 -174 -101z" />
    <glyph glyph-name="ae" unicode="&#xe6;" horiz-adv-x="1917" 
d="M815 23q-120 -72 -231 -72q-232 0 -380.5 146.5t-148.5 365.5q0 233 188.5 401t442.5 168q72 0 156.5 -19.5t108 -31t40.5 -53.5q134 116 326 116q199 0 319.5 -72t120.5 -214q0 -91 -69.5 -153t-278.5 -154l-336 -150q95 -104 273 -104q211 0 294 108q36 45 93 45
q49 0 89 -35.5t40 -83.5q0 -113 -182.5 -194.5t-333.5 -81.5q-168 0 -293 61q-20 -59 -115 -59q-91 0 -123 66zM776 784q-49 23 -104 23q-136 0 -238 -108t-102 -248q0 -106 78.5 -190.5t181.5 -84.5t184 70q-20 98 -20 145q0 262 20 393zM1053 553l227 94q113 52 213 119
q-64 37 -176 37q-184 0 -264 -250z" />
    <glyph glyph-name="ccedilla" unicode="&#xe7;" horiz-adv-x="1053" 
d="M774 -43q37 -61 37 -127q0 -130 -73 -202t-210 -72q-105 0 -201 50t-96 128q0 88 109 88q24 0 89 -23q64 -24 87 -24q57 0 57 51q0 61 -122 106q-176 41 -280.5 164t-104.5 303q0 212 154.5 438t357.5 226q111 0 261 -64.5t150 -152.5q0 -55 -35.5 -93t-91.5 -38
q-42 0 -104 47q-59 47 -180 47q-76 0 -164 -149.5t-88 -260.5q0 -107 73.5 -167t192.5 -60q68 0 162 51q98 53 125 53q53 0 92 -39.5t39 -89.5q0 -102 -236 -190z" />
    <glyph glyph-name="egrave" unicode="&#xe8;" horiz-adv-x="1145" 
d="M334 301q99 -104 272 -104q133 0 228 55q82 49 133 49q102 0 102 -100q0 -109 -145 -177.5t-318 -68.5q-253 0 -406 124.5t-153 344.5q0 263 144 441.5t389 178.5q205 0 322.5 -74t117.5 -210q0 -90 -72.5 -155t-275.5 -154zM313 555q137 60 226 96q120 55 215 115
q-67 37 -174 37q-184 0 -267 -248zM267 1546q0 45 38 80t91 35q80 0 229 -153.5t149 -219.5q0 -48 -40 -79t-93 -31q-65 0 -104 51q-127 171 -215 229q-55 37 -55 88z" />
    <glyph glyph-name="eacute" unicode="&#xe9;" horiz-adv-x="1145" 
d="M334 301q99 -104 272 -104q133 0 228 55q82 49 133 49q102 0 102 -100q0 -109 -145 -177.5t-318 -68.5q-253 0 -406 124.5t-153 344.5q0 263 144 441.5t389 178.5q205 0 322.5 -74t117.5 -210q0 -90 -72.5 -155t-275.5 -154zM313 555q137 60 226 96q120 55 215 115
q-67 37 -174 37q-184 0 -267 -248zM500 1188q-51 0 -91 34t-40 78q0 39 51 87t159 163t193 115q52 0 91 -34.5t39 -80.5q0 -49 -54 -88q-54 -35 -131 -121q-137 -153 -217 -153z" />
    <glyph glyph-name="ecircumflex" unicode="&#xea;" horiz-adv-x="1145" 
d="M334 301q99 -104 272 -104q133 0 228 55q82 49 133 49q102 0 102 -100q0 -109 -145 -177.5t-318 -68.5q-253 0 -406 124.5t-153 344.5q0 263 144 441.5t389 178.5q205 0 322.5 -74t117.5 -210q0 -90 -72.5 -155t-275.5 -154zM313 555q137 60 226 96q120 55 215 115
q-67 37 -174 37q-184 0 -267 -248zM612 1421q-242 -256 -329 -256q-54 0 -92.5 35.5t-38.5 79.5q0 45 43 82q89 79 303 291q40 37 90 37q47 0 110 -36.5t167.5 -136.5t147 -136.5t42.5 -80.5q0 -46 -39.5 -80t-93.5 -34q-56 0 -100.5 44.5t-209.5 190.5z" />
    <glyph glyph-name="edieresis" unicode="&#xeb;" horiz-adv-x="1145" 
d="M334 301q99 -104 272 -104q133 0 228 55q82 49 133 49q102 0 102 -100q0 -109 -145 -177.5t-318 -68.5q-253 0 -406 124.5t-153 344.5q0 263 144 441.5t389 178.5q205 0 322.5 -74t117.5 -210q0 -90 -72.5 -155t-275.5 -154zM313 555q137 60 226 96q120 55 215 115
q-67 37 -174 37q-184 0 -267 -248zM238 1403q0 46 58 87.5t116 41.5q192 0 192 -146q0 -49 -66 -88t-114 -39q-186 0 -186 144zM682 1388q0 140 207 140q55 0 111.5 -39t56.5 -95q0 -62 -58.5 -98.5t-144.5 -36.5q-64 0 -118 38t-54 91z" />
    <glyph glyph-name="igrave" unicode="&#xec;" horiz-adv-x="573" 
d="M418 469v-75l6 -292q0 -57 -39 -95t-98 -38q-62 0 -101 38.5t-39 94.5q0 57 -4 183l-2 109q-2 121 11 296q10 136 10 225q0 58 39.5 96t97.5 38t97.5 -38t39.5 -96q0 -89 -10 -225q-8 -106 -8 -221zM-14 1546q0 45 38 80t91 35q80 0 229 -153.5t149 -219.5q0 -48 -40 -79
t-93 -31q-65 0 -104 51q-127 171 -215 229q-55 37 -55 88z" />
    <glyph glyph-name="iacute" unicode="&#xed;" horiz-adv-x="573" 
d="M418 469v-75l6 -292q0 -57 -39 -95t-98 -38q-62 0 -101 38.5t-39 94.5q0 57 -4 183l-2 109q-2 121 11 296q10 136 10 225q0 58 39.5 96t97.5 38t97.5 -38t39.5 -96q0 -89 -10 -225q-8 -106 -8 -221zM186 1188q-51 0 -91 34t-40 78q0 39 51 87t159 163t193 115
q52 0 91 -34.5t39 -80.5q0 -49 -54 -88q-54 -35 -131 -121q-137 -153 -217 -153z" />
    <glyph glyph-name="icircumflex" unicode="&#xee;" horiz-adv-x="573" 
d="M418 469v-75l6 -292q0 -57 -39 -95t-98 -38q-62 0 -101 38.5t-39 94.5q0 57 -4 183l-2 109q-2 121 11 296q10 136 10 225q0 58 39.5 96t97.5 38t97.5 -38t39.5 -96q0 -89 -10 -225q-8 -106 -8 -221zM290 1421q-242 -256 -329 -256q-54 0 -92.5 35.5t-38.5 79.5
q0 45 43 82q89 79 303 291q40 37 90 37q47 0 110 -36.5t167.5 -136.5t147 -136.5t42.5 -80.5q0 -46 -39.5 -80t-93.5 -34q-56 0 -100.5 44.5t-209.5 190.5z" />
    <glyph glyph-name="idieresis" unicode="&#xef;" horiz-adv-x="573" 
d="M418 469v-75l6 -292q0 -57 -39 -95t-98 -38q-62 0 -101 38.5t-39 94.5q0 57 -4 183l-2 109q-2 121 11 296q10 136 10 225q0 58 39.5 96t97.5 38t97.5 -38t39.5 -96q0 -89 -10 -225q-8 -106 -8 -221zM-106 1307q0 46 58 87.5t116 41.5q192 0 192 -146q0 -49 -66 -88
t-114 -39q-186 0 -186 144zM338 1292q0 140 207 140q55 0 111.5 -39t56.5 -95q0 -62 -58.5 -98.5t-144.5 -36.5q-64 0 -118 38t-54 91z" />
    <glyph glyph-name="eth" unicode="&#xf0;" horiz-adv-x="1042" 
d="M332 1260q-121 89 -121 151q0 51 39 89t92 38q70 0 217 -158q163 78 229 78q57 0 95.5 -36.5t38.5 -90.5q0 -60 -56 -90q-20 -11 -57 -33q-8 -5 -25 -11t-43 -17l-16 -6q248 -362 248 -619q0 -265 -124.5 -430.5t-348.5 -165.5q-168 0 -290 127.5t-122 292.5
q0 199 138 355.5t347 207.5q-51 98 -65 117q-179 -105 -225 -105q-55 0 -94 40t-39 91q0 36 23 70.5t159 104.5zM674 717q-214 -54 -271 -141t-57 -197q0 -65 47.5 -119.5t106.5 -54.5q215 0 215 350q0 45 -41 162z" />
    <glyph glyph-name="ntilde" unicode="&#xf1;" horiz-adv-x="1071" 
d="M371 924q144 147 307 147q154 0 231.5 -107t77.5 -368v-72l-2 -39q-4 -82 21 -227q22 -124 22 -199q0 -57 -40.5 -94t-96.5 -37q-59 0 -92.5 28t-41.5 75.5t-17 122.5q-7 51 -15 102q-14 98 -14 209v34l10 226q0 82 -43 82q-55 0 -108 -39t-105 -114t-86.5 -167.5
t-34.5 -234.5q0 -28 6 -86q6 -56 6 -84q0 -59 -40 -95t-99 -36q-57 0 -97 36t-40 95q0 28 -6 84q-6 58 -6 86q0 115 14 264q14 152 14 268q0 32 -4 90t-4 89q0 54 40 91.5t101 37.5q130 0 140 -156zM821 1184q-119 0 -185 28.5t-135 110.5q-33 43 -67 43q-55 0 -99 -74
q-39 -71 -108 -71q-49 0 -84 26.5t-35 65.5q0 60 85.5 150.5t240.5 90.5q95 0 142 -27.5t124 -111.5q40 -43 90 -43q30 0 45.5 13t48.5 71q22 57 45.5 73.5t71.5 16.5q47 0 81 -26.5t34 -67.5q0 -43 -75 -155.5t-220 -112.5z" />
    <glyph glyph-name="ograve" unicode="&#xf2;" horiz-adv-x="1077" 
d="M43 438q0 258 149.5 428t395.5 170q191 0 307.5 -148t116.5 -368q0 -242 -137 -410.5t-361 -168.5q-200 0 -335.5 144.5t-135.5 352.5zM319 438q0 -97 52 -165t143 -68q109 0 169 78.5t60 205.5q0 283 -170 283q-115 0 -184.5 -100t-69.5 -234zM340 1546q0 45 38 80
t91 35q80 0 229 -153.5t149 -219.5q0 -48 -40 -79t-93 -31q-65 0 -104 51q-127 171 -215 229q-55 37 -55 88z" />
    <glyph glyph-name="oacute" unicode="&#xf3;" horiz-adv-x="1077" 
d="M43 438q0 258 149.5 428t395.5 170q191 0 307.5 -148t116.5 -368q0 -242 -137 -410.5t-361 -168.5q-200 0 -335.5 144.5t-135.5 352.5zM319 438q0 -97 52 -165t143 -68q109 0 169 78.5t60 205.5q0 283 -170 283q-115 0 -184.5 -100t-69.5 -234zM481 1188q-51 0 -91 34
t-40 78q0 39 51 87t159 163t193 115q52 0 91 -34.5t39 -80.5q0 -49 -54 -88q-54 -35 -131 -121q-137 -153 -217 -153z" />
    <glyph glyph-name="ocircumflex" unicode="&#xf4;" horiz-adv-x="1077" 
d="M43 438q0 258 149.5 428t395.5 170q191 0 307.5 -148t116.5 -368q0 -242 -137 -410.5t-361 -168.5q-200 0 -335.5 144.5t-135.5 352.5zM319 438q0 -97 52 -165t143 -68q109 0 169 78.5t60 205.5q0 283 -170 283q-115 0 -184.5 -100t-69.5 -234zM583 1421
q-242 -256 -329 -256q-54 0 -92.5 35.5t-38.5 79.5q0 45 43 82q89 79 303 291q40 37 90 37q47 0 110 -36.5t167.5 -136.5t147 -136.5t42.5 -80.5q0 -46 -39.5 -80t-93.5 -34q-56 0 -100.5 44.5t-209.5 190.5z" />
    <glyph glyph-name="otilde" unicode="&#xf5;" horiz-adv-x="1077" 
d="M43 438q0 258 149.5 428t395.5 170q191 0 307.5 -148t116.5 -368q0 -242 -137 -410.5t-361 -168.5q-200 0 -335.5 144.5t-135.5 352.5zM319 438q0 -97 52 -165t143 -68q109 0 169 78.5t60 205.5q0 283 -170 283q-115 0 -184.5 -100t-69.5 -234zM824 1184
q-119 0 -185 28.5t-135 110.5q-33 43 -67 43q-55 0 -99 -74q-39 -71 -108 -71q-49 0 -84 26.5t-35 65.5q0 60 85.5 150.5t240.5 90.5q95 0 142 -27.5t124 -111.5q40 -43 90 -43q30 0 45.5 13t48.5 71q22 57 45.5 73.5t71.5 16.5q47 0 81 -26.5t34 -67.5q0 -43 -75 -155.5
t-220 -112.5z" />
    <glyph glyph-name="odieresis" unicode="&#xf6;" horiz-adv-x="1077" 
d="M43 438q0 258 149.5 428t395.5 170q191 0 307.5 -148t116.5 -368q0 -242 -137 -410.5t-361 -168.5q-200 0 -335.5 144.5t-135.5 352.5zM319 438q0 -97 52 -165t143 -68q109 0 169 78.5t60 205.5q0 283 -170 283q-115 0 -184.5 -100t-69.5 -234zM209 1307q0 46 58 87.5
t116 41.5q192 0 192 -146q0 -49 -66 -88t-114 -39q-186 0 -186 144zM653 1292q0 140 207 140q55 0 111.5 -39t56.5 -95q0 -62 -58.5 -98.5t-144.5 -36.5q-64 0 -118 38t-54 91z" />
    <glyph glyph-name="divide" unicode="&#xf7;" 
d="M467 1022q0 49 36 84t95 35q55 0 92 -35.5t37 -83.5q0 -54 -38 -87.5t-93 -33.5q-53 0 -91 34t-38 87zM899 530q-93 0 -276 -6q-182 -6 -275 -6q-80 0 -137 32.5t-57 88.5q0 69 40 93t154 24q57 0 174 6t176 6l74 -4l123 4q203 0 203 -123q0 -49 -37.5 -86t-87.5 -37
q-17 0 -58 7q-10 1 -16 1zM485 305q0 49 37 85t92 36q54 0 91.5 -35.5t37.5 -85.5q0 -49 -38 -84t-91 -35q-54 0 -91.5 35t-37.5 84z" />
    <glyph glyph-name="oslash" unicode="&#xf8;" horiz-adv-x="1092" 
d="M973 788q53 -120 53 -268q0 -245 -136 -412t-360 -167q-155 0 -274 92q-94 -103 -133 -103q-36 0 -64 27.5t-28 65.5q0 39 100 147q-73 125 -73 299q0 222 146 394.5t400 172.5q153 0 258 -94q13 14 43 51q33 39 70 39t64.5 -26t27.5 -62q0 -47 -94 -156zM686 741
q-40 31 -100 31q-114 0 -181 -98.5t-67 -235.5q0 -27 4 -55zM758 559l-318 -330q43 -24 90 -24q95 0 163 67.5t68 218.5q0 29 -3 68z" />
    <glyph glyph-name="ugrave" unicode="&#xf9;" horiz-adv-x="1065" 
d="M979 377l2 -119q2 -136 5 -182q5 -83 -39.5 -119.5t-98.5 -36.5q-83 0 -123 76q-127 -47 -264 -47q-93 0 -167.5 26t-118 70t-62 89.5t-39.5 203.5t-21 317q0 107 20.5 239t61 152.5t82.5 20.5q60 0 100.5 -37t40.5 -92t-14 -139t-14 -144q0 -288 37 -419q42 -23 94 -23
q113 0 244 31v454q2 155 14 231t45.5 104t91.5 28q60 0 100.5 -37t40.5 -89q0 -4 -4 -83l-12 -246l-2 -28v-201zM209 1554q0 45 38 80t91 35q80 0 229 -153.5t149 -219.5q0 -48 -40 -79t-93 -31q-65 0 -104 51q-127 171 -215 229q-55 37 -55 88z" />
    <glyph glyph-name="uacute" unicode="&#xfa;" horiz-adv-x="1065" 
d="M979 377l2 -119q2 -136 5 -182q5 -83 -39.5 -119.5t-98.5 -36.5q-83 0 -123 76q-127 -47 -264 -47q-93 0 -167.5 26t-118 70t-62 89.5t-39.5 203.5t-21 317q0 107 20.5 239t61 152.5t82.5 20.5q60 0 100.5 -37t40.5 -92t-14 -139t-14 -144q0 -288 37 -419q42 -23 94 -23
q113 0 244 31v454q2 155 14 231t45.5 104t91.5 28q60 0 100.5 -37t40.5 -89q0 -4 -4 -83l-12 -246l-2 -28v-201zM541 1188q-51 0 -91 34t-40 78q0 39 51 87t159 163t193 115q52 0 91 -34.5t39 -80.5q0 -49 -54 -88q-54 -35 -131 -121q-137 -153 -217 -153z" />
    <glyph glyph-name="ucircumflex" unicode="&#xfb;" horiz-adv-x="1065" 
d="M979 377l2 -119q2 -136 5 -182q5 -83 -39.5 -119.5t-98.5 -36.5q-83 0 -123 76q-127 -47 -264 -47q-93 0 -167.5 26t-118 70t-62 89.5t-39.5 203.5t-21 317q0 107 20.5 239t61 152.5t82.5 20.5q60 0 100.5 -37t40.5 -92t-14 -139t-14 -144q0 -288 37 -419q42 -23 94 -23
q113 0 244 31v454q2 155 14 231t45.5 104t91.5 28q60 0 100.5 -37t40.5 -89q0 -4 -4 -83l-12 -246l-2 -28v-201zM575 1421q-242 -256 -329 -256q-54 0 -92.5 35.5t-38.5 79.5q0 45 43 82q89 79 303 291q40 37 90 37q47 0 110 -36.5t167.5 -136.5t147 -136.5t42.5 -80.5
q0 -46 -39.5 -80t-93.5 -34q-56 0 -100.5 44.5t-209.5 190.5z" />
    <glyph glyph-name="udieresis" unicode="&#xfc;" horiz-adv-x="1065" 
d="M979 377l2 -119q2 -136 5 -182q5 -83 -39.5 -119.5t-98.5 -36.5q-83 0 -123 76q-127 -47 -264 -47q-93 0 -167.5 26t-118 70t-62 89.5t-39.5 203.5t-21 317q0 107 20.5 239t61 152.5t82.5 20.5q60 0 100.5 -37t40.5 -92t-14 -139t-14 -144q0 -288 37 -419q42 -23 94 -23
q113 0 244 31v454q2 155 14 231t45.5 104t91.5 28q60 0 100.5 -37t40.5 -89q0 -4 -4 -83l-12 -246l-2 -28v-201zM175 1307q0 46 58 87.5t116 41.5q192 0 192 -146q0 -49 -66 -88t-114 -39q-186 0 -186 144zM619 1292q0 140 207 140q55 0 111.5 -39t56.5 -95
q0 -62 -58.5 -98.5t-144.5 -36.5q-64 0 -118 38t-54 91z" />
    <glyph glyph-name="yacute" unicode="&#xfd;" horiz-adv-x="1133" 
d="M430 102q-76 154 -209 392.5t-163 284.5q-52 76 -52 122q0 53 43 95t98 42q44 0 78 -23t137 -189.5t220 -405.5q209 460 263.5 540t123.5 80q56 0 99.5 -38.5t43.5 -92.5q0 -21 -8.5 -45t-147.5 -310l-339 -703q-39 -87 -89 -228q-49 -139 -77 -171t-89 -32
q-58 0 -100.5 38.5t-42.5 92.5q0 95 211 551zM467 1188q-51 0 -91 34t-40 78q0 39 51 87t159 163t193 115q52 0 91 -34.5t39 -80.5q0 -49 -54 -88q-54 -35 -131 -121q-137 -153 -217 -153z" />
    <glyph glyph-name="thorn" unicode="&#xfe;" horiz-adv-x="1096" 
d="M383 -35v-411q0 -57 -40 -96.5t-99 -39.5q-60 0 -99 40t-39 96l5 598q0 292 -17 553q-22 322 -22 577q0 90 41.5 150.5t111.5 60.5q56 0 93.5 -37.5t37.5 -91.5v-395q139 82 277 82q202 0 309 -153.5t107 -428.5q0 -229 -132 -376.5t-354 -147.5q-94 0 -180 20zM375 662
q10 -212 10 -416q90 -31 178 -31q97 0 153 65.5t56 188.5q0 208 -41 259.5t-98 51.5q-127 0 -258 -118z" />
    <glyph glyph-name="ydieresis" unicode="&#xff;" horiz-adv-x="1133" 
d="M430 102q-76 154 -209 392.5t-163 284.5q-52 76 -52 122q0 53 43 95t98 42q44 0 78 -23t137 -189.5t220 -405.5q209 460 263.5 540t123.5 80q56 0 99.5 -38.5t43.5 -92.5q0 -21 -8.5 -45t-147.5 -310l-339 -703q-39 -87 -89 -228q-49 -139 -77 -171t-89 -32
q-58 0 -100.5 38.5t-42.5 92.5q0 95 211 551zM183 1307q0 46 58 87.5t116 41.5q192 0 192 -146q0 -49 -66 -88t-114 -39q-186 0 -186 144zM627 1292q0 140 207 140q55 0 111.5 -39t56.5 -95q0 -62 -58.5 -98.5t-144.5 -36.5q-64 0 -118 38t-54 91z" />
    <glyph glyph-name="Amacron" unicode="&#x100;" horiz-adv-x="1497" 
d="M999 428q-78 -10 -241 -22q-168 -11 -242 -25q-122 -273 -165 -338.5t-118 -65.5q-58 0 -100.5 39t-42.5 95q0 51 148 346q-13 23 -13 53q0 51 97 80q181 311 377.5 600t246.5 289q110 0 148 -133q41 -248 122 -599l88 -380q9 -30 52 -134q37 -88 37 -129q0 -57 -43 -96
t-101 -39q-125 0 -250 459zM877 995l-215 -364q46 10 141 16q110 6 139 10q-16 98 -65 338zM1190 1598h-271q-36 0 -85 2l-85 2q-96 2 -123.5 9t-57 36.5t-29.5 71.5q0 116 215 116q40 0 116 -4l70 -2h172l71 2q208 6 208 -114q0 -119 -201 -119z" />
    <glyph glyph-name="amacron" unicode="&#x101;" horiz-adv-x="1139" 
d="M819 35q-185 -90 -280 -90q-484 0 -484 516q0 239 178 411t426 172q103 0 237 -61.5t134 -142.5q0 -36 -22 -64q-21 -79 -21 -241q0 -220 41 -306q72 -155 72 -172q0 -52 -40 -87.5t-95 -35.5q-45 0 -146 101zM735 786q-35 19 -61 19q-139 0 -239.5 -106t-100.5 -246
q0 -271 190 -271q126 0 224 82q-31 231 -31 357q0 84 18 165zM881 1147h-271q-36 0 -85 2l-85 2q-96 2 -123.5 9t-57 36.5t-29.5 71.5q0 116 215 116q40 0 116 -4l70 -2h172l71 2q208 6 208 -114q0 -119 -201 -119z" />
    <glyph glyph-name="Abreve" unicode="&#x102;" horiz-adv-x="1497" 
d="M999 428q-78 -10 -241 -22q-168 -11 -242 -25q-122 -273 -165 -338.5t-118 -65.5q-58 0 -100.5 39t-42.5 95q0 51 148 346q-13 23 -13 53q0 51 97 80q181 311 377.5 600t246.5 289q110 0 148 -133q41 -248 122 -599l88 -380q9 -30 52 -134q37 -88 37 -129q0 -57 -43 -96
t-101 -39q-125 0 -250 459zM877 995l-215 -364q46 10 141 16q110 6 139 10q-16 98 -65 338zM870 1631q-160 0 -279.5 91.5t-119.5 221.5q0 42 32.5 69t82.5 27q49 0 81.5 -27t32.5 -69q0 -46 51.5 -84.5t118.5 -38.5q263 0 297 111q29 78 113 78q51 0 83 -28t32 -71
q0 -122 -139.5 -201t-385.5 -79z" />
    <glyph glyph-name="abreve" unicode="&#x103;" horiz-adv-x="1139" 
d="M819 35q-185 -90 -280 -90q-484 0 -484 516q0 239 178 411t426 172q103 0 237 -61.5t134 -142.5q0 -36 -22 -64q-21 -79 -21 -241q0 -220 41 -306q72 -155 72 -172q0 -52 -40 -87.5t-95 -35.5q-45 0 -146 101zM735 786q-35 19 -61 19q-139 0 -239.5 -106t-100.5 -246
q0 -271 190 -271q126 0 224 82q-31 231 -31 357q0 84 18 165zM571 1180q-160 0 -279.5 91.5t-119.5 221.5q0 42 32.5 69t82.5 27q49 0 81.5 -27t32.5 -69q0 -46 51.5 -84.5t118.5 -38.5q263 0 297 111q29 78 113 78q51 0 83 -28t32 -71q0 -122 -139.5 -201t-385.5 -79z" />
    <glyph glyph-name="Aogonek" unicode="&#x104;" horiz-adv-x="1497" 
d="M999 428q-78 -10 -241 -22q-168 -11 -242 -25q-122 -273 -165 -338.5t-118 -65.5q-58 0 -100.5 39t-42.5 95q0 51 148 346q-13 23 -13 53q0 51 97 80q181 311 377.5 600t246.5 289q110 0 148 -133q41 -248 122 -599l88 -380q9 -30 52 -134q37 -88 37 -129q0 -57 -43 -96
t-101 -39q-125 0 -250 459zM877 995l-215 -364q46 10 141 16q110 6 139 10q-16 98 -65 338zM948 -166q0 142 88 239t168 97q46 0 79.5 -30t33.5 -70q0 -57 -76 -90q-33 -17 -53.5 -59t-20.5 -81q0 -54 31 -91.5t76 -37.5q71 0 137 29q28 12 57 12q47 0 80 -29.5t33 -72.5
q0 -59 -109 -98t-217 -39q-140 0 -223.5 103t-83.5 218z" />
    <glyph glyph-name="aogonek" unicode="&#x105;" horiz-adv-x="1139" 
d="M819 35q-185 -90 -280 -90q-484 0 -484 516q0 239 178 411t426 172q103 0 237 -61.5t134 -142.5q0 -36 -22 -64q-21 -79 -21 -241q0 -220 41 -306q72 -155 72 -172q0 -52 -40 -87.5t-95 -35.5q-45 0 -146 101zM735 786q-35 19 -61 19q-139 0 -239.5 -106t-100.5 -246
q0 -271 190 -271q126 0 224 82q-31 231 -31 357q0 84 18 165zM729 -166q0 142 88 239t168 97q46 0 79.5 -30t33.5 -70q0 -57 -76 -90q-33 -17 -53.5 -59t-20.5 -81q0 -54 31 -91.5t76 -37.5q71 0 137 29q28 12 57 12q47 0 80 -29.5t33 -72.5q0 -59 -109 -98t-217 -39
q-140 0 -223.5 103t-83.5 218z" />
    <glyph glyph-name="Cacute" unicode="&#x106;" horiz-adv-x="1268" 
d="M993 1481q48 43 107 43q74 0 108.5 -64t34.5 -250q0 -59 -37 -102t-102 -43q-91 0 -133 94q-24 50 -40.5 56t-78.5 6q-140 0 -331 -246.5t-191 -462.5q0 -112 73 -188t175 -76q83 0 151 29t203 120q76 52 117 52q59 0 100 -41t41 -97q0 -45 -28 -79.5t-134 -106.5
t-220 -111t-230 -39q-221 0 -375 160t-154 377q0 318 264 649.5t539 331.5q88 0 141 -12zM770 1639q-51 0 -91 34t-40 78q0 39 51 87t159 163t193 115q52 0 91 -34.5t39 -80.5q0 -49 -54 -88q-54 -35 -131 -121q-137 -153 -217 -153z" />
    <glyph glyph-name="cacute" unicode="&#x107;" horiz-adv-x="1053" 
d="M37 410q0 213 155 433t357 220q119 0 265.5 -65t146.5 -150q0 -53 -37 -90t-90 -37q-45 0 -105 45q-59 47 -180 47q-76 0 -164 -148t-88 -255q0 -103 73.5 -162.5t190.5 -59.5q70 0 164 52q99 51 125 51q55 0 93 -39.5t38 -89.5q0 -77 -159 -151t-261 -74
q-227 0 -375.5 130.5t-148.5 342.5zM514 1188q-51 0 -91 34t-40 78q0 39 51 87t159 163t193 115q52 0 91 -34.5t39 -80.5q0 -49 -54 -88q-54 -35 -131 -121q-137 -153 -217 -153z" />
    <glyph glyph-name="Ccircumflex" unicode="&#x108;" horiz-adv-x="1268" 
d="M993 1481q48 43 107 43q74 0 108.5 -64t34.5 -250q0 -59 -37 -102t-102 -43q-91 0 -133 94q-24 50 -40.5 56t-78.5 6q-140 0 -331 -246.5t-191 -462.5q0 -112 73 -188t175 -76q83 0 151 29t203 120q76 52 117 52q59 0 100 -41t41 -97q0 -45 -28 -79.5t-134 -106.5
t-220 -111t-230 -39q-221 0 -375 160t-154 377q0 318 264 649.5t539 331.5q88 0 141 -12zM833 1921q-242 -256 -329 -256q-54 0 -92.5 35.5t-38.5 79.5q0 45 43 82q89 79 303 291q40 37 90 37q47 0 110 -36.5t167.5 -136.5t147 -136.5t42.5 -80.5q0 -46 -39.5 -80t-93.5 -34
q-56 0 -100.5 44.5t-209.5 190.5z" />
    <glyph glyph-name="ccircumflex" unicode="&#x109;" horiz-adv-x="1053" 
d="M37 410q0 213 155 433t357 220q119 0 265.5 -65t146.5 -150q0 -53 -37 -90t-90 -37q-45 0 -105 45q-59 47 -180 47q-76 0 -164 -148t-88 -255q0 -103 73.5 -162.5t190.5 -59.5q70 0 164 52q99 51 125 51q55 0 93 -39.5t38 -89.5q0 -77 -159 -151t-261 -74
q-227 0 -375.5 130.5t-148.5 342.5zM614 1421q-242 -256 -329 -256q-54 0 -92.5 35.5t-38.5 79.5q0 45 43 82q89 79 303 291q40 37 90 37q47 0 110 -36.5t167.5 -136.5t147 -136.5t42.5 -80.5q0 -46 -39.5 -80t-93.5 -34q-56 0 -100.5 44.5t-209.5 190.5z" />
    <glyph glyph-name="Cdotaccent" unicode="&#x10a;" horiz-adv-x="1268" 
d="M993 1481q48 43 107 43q74 0 108.5 -64t34.5 -250q0 -59 -37 -102t-102 -43q-91 0 -133 94q-24 50 -40.5 56t-78.5 6q-140 0 -331 -246.5t-191 -462.5q0 -112 73 -188t175 -76q83 0 151 29t203 120q76 52 117 52q59 0 100 -41t41 -97q0 -45 -28 -79.5t-134 -106.5
t-220 -111t-230 -39q-221 0 -375 160t-154 377q0 318 264 649.5t539 331.5q88 0 141 -12zM745 1758q0 59 48.5 98t101.5 39q44 0 109 -52t65 -110q0 -63 -49 -101t-98 -38q-51 0 -114 53.5t-63 110.5z" />
    <glyph glyph-name="cdotaccent" unicode="&#x10b;" horiz-adv-x="1053" 
d="M37 410q0 213 155 433t357 220q119 0 265.5 -65t146.5 -150q0 -53 -37 -90t-90 -37q-45 0 -105 45q-59 47 -180 47q-76 0 -164 -148t-88 -255q0 -103 73.5 -162.5t190.5 -59.5q70 0 164 52q99 51 125 51q55 0 93 -39.5t38 -89.5q0 -77 -159 -151t-261 -74
q-227 0 -375.5 130.5t-148.5 342.5zM446 1307q0 59 48.5 98t101.5 39q44 0 109 -52t65 -110q0 -63 -49 -101t-98 -38q-51 0 -114 53.5t-63 110.5z" />
    <glyph glyph-name="Ccaron" unicode="&#x10c;" horiz-adv-x="1268" 
d="M993 1481q48 43 107 43q74 0 108.5 -64t34.5 -250q0 -59 -37 -102t-102 -43q-91 0 -133 94q-24 50 -40.5 56t-78.5 6q-140 0 -331 -246.5t-191 -462.5q0 -112 73 -188t175 -76q83 0 151 29t203 120q76 52 117 52q59 0 100 -41t41 -97q0 -45 -28 -79.5t-134 -106.5
t-220 -111t-230 -39q-221 0 -375 160t-154 377q0 318 264 649.5t539 331.5q88 0 141 -12zM772 1864q177 136 204.5 153t62.5 17q47 0 80.5 -30t33.5 -68q0 -40 -37 -69t-176.5 -134.5t-179.5 -105.5q-35 0 -60 16t-85 80l-63 62q-148 142 -148 196q0 39 36 67.5t82 28.5
q62 0 99 -49q46 -65 151 -164z" />
    <glyph glyph-name="ccaron" unicode="&#x10d;" horiz-adv-x="1053" 
d="M37 410q0 213 155 433t357 220q119 0 265.5 -65t146.5 -150q0 -53 -37 -90t-90 -37q-45 0 -105 45q-59 47 -180 47q-76 0 -164 -148t-88 -255q0 -103 73.5 -162.5t190.5 -59.5q70 0 164 52q99 51 125 51q55 0 93 -39.5t38 -89.5q0 -77 -159 -151t-261 -74
q-227 0 -375.5 130.5t-148.5 342.5zM612 1413q177 136 204.5 153t62.5 17q47 0 80.5 -30t33.5 -68q0 -40 -37 -69t-176.5 -134.5t-179.5 -105.5q-35 0 -60 16t-85 80l-63 62q-148 142 -148 196q0 39 36 67.5t82 28.5q62 0 99 -49q46 -65 151 -164z" />
    <glyph glyph-name="Dcaron" unicode="&#x10e;" horiz-adv-x="1479" 
d="M283 -10q-62 3 -101 42t-39 95q0 119 9 299q10 200 10 299l-8 668q0 57 52.5 110t112.5 53q36 0 166 -63q153 -73 185 -82q316 -102 530.5 -326.5t214.5 -490.5q0 -258 -184.5 -475t-599.5 -217q-196 0 -348 88zM428 1210v-991q76 -49 203 -49q199 0 291.5 49.5
t152.5 154t60 216.5q0 159 -129.5 302t-577.5 318zM671 1864q177 136 204.5 153t62.5 17q47 0 80.5 -30t33.5 -68q0 -40 -37 -69t-176.5 -134.5t-179.5 -105.5q-35 0 -60 16t-85 80l-63 62q-148 142 -148 196q0 39 36 67.5t82 28.5q62 0 99 -49q46 -65 151 -164z" />
    <glyph glyph-name="dcaron" unicode="&#x10f;" horiz-adv-x="1464" 
d="M1321 1343q-84 53 -84 132q0 56 38.5 92.5t98.5 36.5q142 0 142 -166q0 -105 -59.5 -219.5t-139.5 -114.5q-35 0 -57.5 22.5t-22.5 57.5q0 29 23 63q11 14 20 28t20 28q15 19 21 40zM834 1006q20 426 30.5 479t43.5 80.5t87 27.5q57 0 94 -36t37 -95q0 -140 -22 -432
q-23 -299 -23 -432q0 -348 23 -473q4 -16 4 -29q0 -51 -40 -89t-93 -38q-76 0 -111 68q-134 -82 -293 -82q-228 0 -375 146.5t-147 367.5q0 266 151 433t398 167q147 0 236 -63zM813 690q-64 125 -211 125q-297 0 -297 -342q0 -110 80.5 -186t185.5 -76q86 0 136 28.5
t106 84.5q-3 48 0 366z" />
    <glyph glyph-name="Dcroat" unicode="&#x110;" horiz-adv-x="1479" 
d="M283 -10q-129 6 -129 137v434h-48q-190 0 -190 135t188 135h23q13 0 27 -2v564q0 57 53 110t112 53q32 0 299 -122q46 -21 52 -23q345 -126 545 -340t200 -477q0 -254 -184.5 -473t-599.5 -219q-214 0 -348 88zM428 827q44 0 119 -8q73 -6 119 -6q59 0 99 -38.5t40 -94.5
q0 -58 -41 -94.5t-98 -36.5q-46 0 -119 6q-96 6 -119 6q3 -113 0 -340q100 -51 203 -51q205 0 297 52.5t149.5 154t57.5 213.5q0 145 -113.5 285.5t-593.5 334.5v-383z" />
    <glyph glyph-name="dcroat" unicode="&#x111;" horiz-adv-x="1202" 
d="M1114 1190q-33 -507 -33 -592q0 -348 23 -473q4 -16 4 -29q0 -51 -40 -89t-93 -38q-76 0 -111 68q-137 -82 -293 -82q-228 0 -375 146.5t-147 367.5q0 266 151 433t398 167q151 0 236 -63q4 97 10 194h-19q-42 0 -129 -6q-84 -4 -125 -4q-60 0 -99.5 29t-39.5 73
q0 66 83 89.5t310 23.5h31q9 127 47 157.5t92 30.5q57 0 94 -36t37 -95v-34q0 -17 -2 -35h33q59 0 99 -30t40 -73q0 -44 -39.5 -72t-99.5 -28h-43zM813 324q-3 48 0 366q-63 125 -211 125q-297 0 -297 -342q0 -110 80.5 -186t185.5 -76q86 0 136 28.5t106 84.5z" />
    <glyph glyph-name="Emacron" unicode="&#x112;" horiz-adv-x="1280" 
d="M408 1284q0 -159 -9 -395q102 8 392 37q190 18 241 18q62 0 103 -38t41 -97q0 -116 -114.5 -131.5t-680.5 -63.5q-6 -126 -6 -204q0 -222 29.5 -230t117.5 -8h79l296 6q12 0 92 10q74 9 122 -29.5t48 -105.5q0 -100 -86 -125.5t-444 -25.5q-335 0 -435 96t-100 412
q0 146 19 401q20 244 20 401q0 35 -10 103q-10 70 -10 104q0 154 141 154q44 0 80 -27q226 60 418 60q171 0 296.5 -28.5t162 -64t36.5 -94.5q0 -52 -39 -94.5t-98 -42.5q-22 0 -43 6q-162 43 -315 43q-159 0 -344 -47zM930 1731h-271q-36 0 -85 2l-85 2q-96 2 -123.5 9
t-57 36.5t-29.5 71.5q0 116 215 116q40 0 116 -4l70 -2h172l71 2q208 6 208 -114q0 -119 -201 -119z" />
    <glyph glyph-name="emacron" unicode="&#x113;" horiz-adv-x="1145" 
d="M334 301q99 -104 272 -104q133 0 228 55q82 49 133 49q102 0 102 -100q0 -109 -145 -177.5t-318 -68.5q-253 0 -406 124.5t-153 344.5q0 263 144 441.5t389 178.5q205 0 322.5 -74t117.5 -210q0 -90 -72.5 -155t-275.5 -154zM313 555q137 60 226 96q120 55 215 115
q-67 37 -174 37q-184 0 -267 -248zM850 1147h-271q-36 0 -85 2l-85 2q-96 2 -123.5 9t-57 36.5t-29.5 71.5q0 116 215 116q40 0 116 -4l70 -2h172l71 2q208 6 208 -114q0 -119 -201 -119z" />
    <glyph glyph-name="Ebreve" unicode="&#x114;" horiz-adv-x="1280" 
d="M408 1284q0 -159 -9 -395q102 8 392 37q190 18 241 18q62 0 103 -38t41 -97q0 -116 -114.5 -131.5t-680.5 -63.5q-6 -126 -6 -204q0 -222 29.5 -230t117.5 -8h79l296 6q12 0 92 10q74 9 122 -29.5t48 -105.5q0 -100 -86 -125.5t-444 -25.5q-335 0 -435 96t-100 412
q0 146 19 401q20 244 20 401q0 35 -10 103q-10 70 -10 104q0 154 141 154q44 0 80 -27q226 60 418 60q171 0 296.5 -28.5t162 -64t36.5 -94.5q0 -52 -39 -94.5t-98 -42.5q-22 0 -43 6q-162 43 -315 43q-159 0 -344 -47zM710 1680q-160 0 -279.5 91.5t-119.5 221.5
q0 42 32.5 69t82.5 27q49 0 81.5 -27t32.5 -69q0 -46 51.5 -84.5t118.5 -38.5q263 0 297 111q29 78 113 78q51 0 83 -28t32 -71q0 -122 -139.5 -201t-385.5 -79z" />
    <glyph glyph-name="ebreve" unicode="&#x115;" horiz-adv-x="1145" 
d="M334 301q99 -104 272 -104q133 0 228 55q82 49 133 49q102 0 102 -100q0 -109 -145 -177.5t-318 -68.5q-253 0 -406 124.5t-153 344.5q0 263 144 441.5t389 178.5q205 0 322.5 -74t117.5 -210q0 -90 -72.5 -155t-275.5 -154zM313 555q137 60 226 96q120 55 215 115
q-67 37 -174 37q-184 0 -267 -248zM571 1180q-160 0 -279.5 91.5t-119.5 221.5q0 42 32.5 69t82.5 27q49 0 81.5 -27t32.5 -69q0 -46 51.5 -84.5t118.5 -38.5q263 0 297 111q29 78 113 78q51 0 83 -28t32 -71q0 -122 -139.5 -201t-385.5 -79z" />
    <glyph glyph-name="Edotaccent" unicode="&#x116;" horiz-adv-x="1280" 
d="M408 1284q0 -159 -9 -395q102 8 392 37q190 18 241 18q62 0 103 -38t41 -97q0 -116 -114.5 -131.5t-680.5 -63.5q-6 -126 -6 -204q0 -222 29.5 -230t117.5 -8h79l296 6q12 0 92 10q74 9 122 -29.5t48 -105.5q0 -100 -86 -125.5t-444 -25.5q-335 0 -435 96t-100 412
q0 146 19 401q20 244 20 401q0 35 -10 103q-10 70 -10 104q0 154 141 154q44 0 80 -27q226 60 418 60q171 0 296.5 -28.5t162 -64t36.5 -94.5q0 -52 -39 -94.5t-98 -42.5q-22 0 -43 6q-162 43 -315 43q-159 0 -344 -47zM626 1837q0 59 48.5 98t101.5 39q44 0 109 -52
t65 -110q0 -63 -49 -101t-98 -38q-51 0 -114 53.5t-63 110.5z" />
    <glyph glyph-name="edotaccent" unicode="&#x117;" horiz-adv-x="1145" 
d="M334 301q99 -104 272 -104q133 0 228 55q82 49 133 49q102 0 102 -100q0 -109 -145 -177.5t-318 -68.5q-253 0 -406 124.5t-153 344.5q0 263 144 441.5t389 178.5q205 0 322.5 -74t117.5 -210q0 -90 -72.5 -155t-275.5 -154zM313 555q137 60 226 96q120 55 215 115
q-67 37 -174 37q-184 0 -267 -248zM426 1307q0 59 48.5 98t101.5 39q44 0 109 -52t65 -110q0 -63 -49 -101t-98 -38q-51 0 -114 53.5t-63 110.5z" />
    <glyph glyph-name="Eogonek" unicode="&#x118;" horiz-adv-x="1280" 
d="M408 1284q0 -159 -9 -395q102 8 392 37q190 18 241 18q62 0 103 -38t41 -97q0 -116 -114.5 -131.5t-680.5 -63.5q-6 -126 -6 -204q0 -222 29.5 -230t117.5 -8h79l296 6q12 0 92 10q74 9 122 -29.5t48 -105.5q0 -100 -86 -125.5t-444 -25.5q-335 0 -435 96t-100 412
q0 146 19 401q20 244 20 401q0 35 -10 103q-10 70 -10 104q0 154 141 154q44 0 80 -27q226 60 418 60q171 0 296.5 -28.5t162 -64t36.5 -94.5q0 -52 -39 -94.5t-98 -42.5q-22 0 -43 6q-162 43 -315 43q-159 0 -344 -47zM608 -223q0 142 88 239t168 97q46 0 79.5 -30
t33.5 -70q0 -57 -76 -90q-33 -17 -53.5 -59t-20.5 -81q0 -54 31 -91.5t76 -37.5q71 0 137 29q28 12 57 12q47 0 80 -29.5t33 -72.5q0 -59 -109 -98t-217 -39q-140 0 -223.5 103t-83.5 218z" />
    <glyph glyph-name="eogonek" unicode="&#x119;" horiz-adv-x="1145" 
d="M334 301q99 -104 272 -104q133 0 228 55q82 49 133 49q102 0 102 -100q0 -109 -145 -177.5t-318 -68.5q-253 0 -406 124.5t-153 344.5q0 263 144 441.5t389 178.5q205 0 322.5 -74t117.5 -210q0 -90 -72.5 -155t-275.5 -154zM313 555q137 60 226 96q120 55 215 115
q-67 37 -174 37q-184 0 -267 -248zM407 -205q0 142 88 239t168 97q46 0 79.5 -30t33.5 -70q0 -57 -76 -90q-33 -17 -53.5 -59t-20.5 -81q0 -54 31 -91.5t76 -37.5q71 0 137 29q28 12 57 12q47 0 80 -29.5t33 -72.5q0 -59 -109 -98t-217 -39q-140 0 -223.5 103t-83.5 218z
" />
    <glyph glyph-name="Ecaron" unicode="&#x11a;" horiz-adv-x="1280" 
d="M408 1284q0 -159 -9 -395q102 8 392 37q190 18 241 18q62 0 103 -38t41 -97q0 -116 -114.5 -131.5t-680.5 -63.5q-6 -126 -6 -204q0 -222 29.5 -230t117.5 -8h79l296 6q12 0 92 10q74 9 122 -29.5t48 -105.5q0 -100 -86 -125.5t-444 -25.5q-335 0 -435 96t-100 412
q0 146 19 401q20 244 20 401q0 35 -10 103q-10 70 -10 104q0 154 141 154q44 0 80 -27q226 60 418 60q171 0 296.5 -28.5t162 -64t36.5 -94.5q0 -52 -39 -94.5t-98 -42.5q-22 0 -43 6q-162 43 -315 43q-159 0 -344 -47zM751 1892q177 136 204.5 153t62.5 17q47 0 80.5 -30
t33.5 -68q0 -40 -37 -69t-176.5 -134.5t-179.5 -105.5q-35 0 -60 16t-85 80l-63 62q-148 142 -148 196q0 39 36 67.5t82 28.5q62 0 99 -49q46 -65 151 -164z" />
    <glyph glyph-name="ecaron" unicode="&#x11b;" horiz-adv-x="1145" 
d="M334 301q99 -104 272 -104q133 0 228 55q82 49 133 49q102 0 102 -100q0 -109 -145 -177.5t-318 -68.5q-253 0 -406 124.5t-153 344.5q0 263 144 441.5t389 178.5q205 0 322.5 -74t117.5 -210q0 -90 -72.5 -155t-275.5 -154zM313 555q137 60 226 96q120 55 215 115
q-67 37 -174 37q-184 0 -267 -248zM612 1413q177 136 204.5 153t62.5 17q47 0 80.5 -30t33.5 -68q0 -40 -37 -69t-176.5 -134.5t-179.5 -105.5q-35 0 -60 16t-85 80l-63 62q-148 142 -148 196q0 39 36 67.5t82 28.5q62 0 99 -49q46 -65 151 -164z" />
    <glyph glyph-name="Gcircumflex" unicode="&#x11c;" horiz-adv-x="1393" 
d="M1335 588q-67 -297 -274.5 -477.5t-489.5 -180.5q-532 0 -532 564q0 365 238.5 721t508.5 356q106 0 284.5 -78.5t178.5 -169.5q0 -55 -41.5 -96t-99.5 -41q-33 0 -133 55q-100 57 -189 57q-105 0 -284.5 -252.5t-179.5 -551.5q0 -177 54 -234t195 -57q165 0 282.5 98
t168.5 256q-223 -15 -404 -94q-28 -14 -63 -14q-58 0 -98.5 42.5t-40.5 96.5q0 121 224.5 184.5t612.5 63.5q61 0 101.5 -39.5t40.5 -96.5q0 -72 -60 -112zM843 1872q-242 -256 -329 -256q-54 0 -92.5 35.5t-38.5 79.5q0 45 43 82q89 79 303 291q40 37 90 37q47 0 110 -36.5
t167.5 -136.5t147 -136.5t42.5 -80.5q0 -46 -39.5 -80t-93.5 -34q-56 0 -100.5 44.5t-209.5 190.5z" />
    <glyph glyph-name="gcircumflex" unicode="&#x11d;" horiz-adv-x="1087" 
d="M723 53q-97 -104 -254 -104q-201 0 -325 128t-124 333q0 275 170.5 444.5t460.5 169.5q190 0 273 -92q127 -15 127 -152q0 -53 -23 -184q-38 -219 -49 -496q-11 -378 -151 -520.5t-420 -142.5q-390 0 -390 153q0 56 35 89.5t92 33.5q45 0 129 -16q89 -19 150 -19
q144 0 215.5 88.5t83.5 286.5zM772 756q-72 41 -131 41q-163 0 -254.5 -104t-91.5 -269q0 -240 178 -240q77 0 150.5 78.5t95 154.5t53.5 339zM634 1421q-242 -256 -329 -256q-54 0 -92.5 35.5t-38.5 79.5q0 45 43 82q89 79 303 291q40 37 90 37q47 0 110 -36.5
t167.5 -136.5t147 -136.5t42.5 -80.5q0 -46 -39.5 -80t-93.5 -34q-56 0 -100.5 44.5t-209.5 190.5z" />
    <glyph glyph-name="Gbreve" unicode="&#x11e;" horiz-adv-x="1393" 
d="M1335 588q-67 -297 -274.5 -477.5t-489.5 -180.5q-532 0 -532 564q0 365 238.5 721t508.5 356q106 0 284.5 -78.5t178.5 -169.5q0 -55 -41.5 -96t-99.5 -41q-33 0 -133 55q-100 57 -189 57q-105 0 -284.5 -252.5t-179.5 -551.5q0 -177 54 -234t195 -57q165 0 282.5 98
t168.5 256q-223 -15 -404 -94q-28 -14 -63 -14q-58 0 -98.5 42.5t-40.5 96.5q0 121 224.5 184.5t612.5 63.5q61 0 101.5 -39.5t40.5 -96.5q0 -72 -60 -112zM761 1631q-160 0 -279.5 91.5t-119.5 221.5q0 42 32.5 69t82.5 27q49 0 81.5 -27t32.5 -69q0 -46 51.5 -84.5
t118.5 -38.5q263 0 297 111q29 78 113 78q51 0 83 -28t32 -71q0 -122 -139.5 -201t-385.5 -79z" />
    <glyph glyph-name="gbreve" unicode="&#x11f;" horiz-adv-x="1087" 
d="M723 53q-97 -104 -254 -104q-201 0 -325 128t-124 333q0 275 170.5 444.5t460.5 169.5q190 0 273 -92q127 -15 127 -152q0 -53 -23 -184q-38 -219 -49 -496q-11 -378 -151 -520.5t-420 -142.5q-390 0 -390 153q0 56 35 89.5t92 33.5q45 0 129 -16q89 -19 150 -19
q144 0 215.5 88.5t83.5 286.5zM772 756q-72 41 -131 41q-163 0 -254.5 -104t-91.5 -269q0 -240 178 -240q77 0 150.5 78.5t95 154.5t53.5 339zM571 1180q-160 0 -279.5 91.5t-119.5 221.5q0 42 32.5 69t82.5 27q49 0 81.5 -27t32.5 -69q0 -46 51.5 -84.5t118.5 -38.5
q263 0 297 111q29 78 113 78q51 0 83 -28t32 -71q0 -122 -139.5 -201t-385.5 -79z" />
    <glyph glyph-name="Gdotaccent" unicode="&#x120;" horiz-adv-x="1393" 
d="M1335 588q-67 -297 -274.5 -477.5t-489.5 -180.5q-532 0 -532 564q0 365 238.5 721t508.5 356q106 0 284.5 -78.5t178.5 -169.5q0 -55 -41.5 -96t-99.5 -41q-33 0 -133 55q-100 57 -189 57q-105 0 -284.5 -252.5t-179.5 -551.5q0 -177 54 -234t195 -57q165 0 282.5 98
t168.5 256q-223 -15 -404 -94q-28 -14 -63 -14q-58 0 -98.5 42.5t-40.5 96.5q0 121 224.5 184.5t612.5 63.5q61 0 101.5 -39.5t40.5 -96.5q0 -72 -60 -112zM686 1758q0 59 48.5 98t101.5 39q44 0 109 -52t65 -110q0 -63 -49 -101t-98 -38q-51 0 -114 53.5t-63 110.5z" />
    <glyph glyph-name="gdotaccent" unicode="&#x121;" horiz-adv-x="1087" 
d="M723 53q-97 -104 -254 -104q-201 0 -325 128t-124 333q0 275 170.5 444.5t460.5 169.5q190 0 273 -92q127 -15 127 -152q0 -53 -23 -184q-38 -219 -49 -496q-11 -378 -151 -520.5t-420 -142.5q-390 0 -390 153q0 56 35 89.5t92 33.5q45 0 129 -16q89 -19 150 -19
q144 0 215.5 88.5t83.5 286.5zM772 756q-72 41 -131 41q-163 0 -254.5 -104t-91.5 -269q0 -240 178 -240q77 0 150.5 78.5t95 154.5t53.5 339zM526 1307q0 59 48.5 98t101.5 39q44 0 109 -52t65 -110q0 -63 -49 -101t-98 -38q-51 0 -114 53.5t-63 110.5z" />
    <glyph glyph-name="Gcommaaccent" unicode="&#x122;" horiz-adv-x="1393" 
d="M1335 588q-67 -297 -274.5 -477.5t-489.5 -180.5q-532 0 -532 564q0 365 238.5 721t508.5 356q106 0 284.5 -78.5t178.5 -169.5q0 -55 -41.5 -96t-99.5 -41q-33 0 -133 55q-100 57 -189 57q-105 0 -284.5 -252.5t-179.5 -551.5q0 -177 54 -234t195 -57q165 0 282.5 98
t168.5 256q-223 -15 -404 -94q-28 -14 -63 -14q-58 0 -98.5 42.5t-40.5 96.5q0 121 224.5 184.5t612.5 63.5q61 0 101.5 -39.5t40.5 -96.5q0 -72 -60 -112zM605 -340q-144 24 -144 121q0 53 37.5 88t99.5 35q81 0 136 -49t55 -129q0 -102 -83 -195.5t-165 -93.5
q-35 0 -57.5 22.5t-22.5 57.5q0 25 68 64q74 43 76 79z" />
    <glyph glyph-name="gcommaaccent" unicode="&#x123;" horiz-adv-x="1087" 
d="M639 1450q84 -50 84 -129q0 -56 -40.5 -91.5t-96.5 -35.5q-142 0 -142 166q0 107 59.5 220.5t139.5 113.5q35 0 57.5 -24t22.5 -56q0 -40 -64 -121q-13 -18 -20 -43zM723 53q-97 -104 -254 -104q-202 0 -325.5 129.5t-123.5 331.5q0 275 170.5 444.5t460.5 169.5
q190 0 273 -92q127 -15 127 -152q0 -53 -23 -184q-38 -219 -49 -496q-11 -378 -151 -520.5t-420 -142.5q-390 0 -390 153q0 56 35 89.5t92 33.5q45 0 129 -16q89 -19 150 -19q144 0 215.5 88.5t83.5 286.5zM772 756q-72 41 -131 41q-163 0 -254.5 -104t-91.5 -269
q0 -240 178 -240q77 0 150.5 78.5t95 154.5t53.5 339z" />
    <glyph glyph-name="Hcircumflex" unicode="&#x124;" horiz-adv-x="1573" 
d="M1180 625q-185 -9 -772 -121q-3 -68 -15 -228q-10 -138 -10 -229q0 -55 -39.5 -93t-95.5 -38t-95.5 38.5t-39.5 92.5q0 103 16 303q18 199 18 301l13 772q0 55 38.5 93t96.5 38q57 0 96 -38t39 -93q0 -76 -6 -229q-4 -150 -4 -227q0 -25 -6 -97q-6 -65 -6 -102l385 74
q197 38 387 45q4 68 14 360q0 86 53.5 192.5t118.5 106.5q53 0 96 -36.5t43 -92.5q0 -17 -4 -31q-20 -71 -20 -126q0 -29 -6 -86q-5 -72 -5 -87q0 -94 -10 -282t-10 -283q0 -73 10 -217q13 -156 13 -219q0 -53 -39 -91t-99 -38t-101.5 38.5t-41.5 90.5q0 102 -8 217
q-6 147 -6 219v54q0 26 2 49zM843 1872q-242 -256 -329 -256q-54 0 -92.5 35.5t-38.5 79.5q0 45 43 82q89 79 303 291q40 37 90 37q47 0 110 -36.5t167.5 -136.5t147 -136.5t42.5 -80.5q0 -46 -39.5 -80t-93.5 -34q-56 0 -100.5 44.5t-209.5 190.5z" />
    <glyph glyph-name="hcircumflex" unicode="&#x125;" horiz-adv-x="1184" 
d="M399 915q144 144 334 144q140 0 220 -66.5t96 -251.5q13 -404 63 -637q6 -21 6 -36q0 -55 -42 -92t-99 -37q-59 0 -97 34.5t-68 220.5t-30 304l6 151v58q0 84 -55 84q-70 0 -143.5 -49t-181.5 -248q0 -368 -38 -443.5t-122 -75.5q-58 0 -101 39.5t-43 91.5q0 17 13 54
q8 28 8 368l6 602q6 96 6 158q0 34 -10 92q-8 50 -8 93q0 54 40 91.5t99 37.5q154 0 154 -289q0 -101 -6 -203q-7 -87 -7 -195zM706 1872q-242 -256 -329 -256q-54 0 -92.5 35.5t-38.5 79.5q0 45 43 82q89 79 303 291q40 37 90 37q47 0 110 -36.5t167.5 -136.5t147 -136.5
t42.5 -80.5q0 -46 -39.5 -80t-93.5 -34q-56 0 -100.5 44.5t-209.5 190.5z" />
    <glyph glyph-name="Hbar" unicode="&#x126;" horiz-adv-x="1790" 
d="M1599 1139q0 -94 -10 -308q-10 -200 -10 -309q0 -73 10 -217q13 -156 13 -219q0 -53 -39 -91t-97 -38t-101.5 36.5t-43.5 92.5q0 88 -7 253t-3 286q-183 -8 -772 -121q-3 -65 -15 -228q-10 -144 -10 -229q0 -56 -39.5 -93.5t-95.5 -37.5t-96.5 37.5t-40.5 93.5
q0 103 16 303q18 199 18 301q0 153 9 494q-16 0 -96 -5q-70 -4 -108 25.5t-38 77.5q0 55 47.5 84t198.5 29q2 126 38 162t99 36q71 0 104.5 -42.5t28.5 -157.5q268 -4 301 -4q66 0 240 -11q80 -5 140 -6q59 -2 97 -4q58 217 160 217q56 0 96.5 -38t40.5 -91q0 -17 -12 -57
q22 4 39 4q46 0 80.5 -30.5t34.5 -73.5q0 -91 -177 -121zM1319 1120q-34 2 -91 4q-57 1 -138 6q-165 11 -230 11h-91q-76 0 -216 2l-2 -84q-4 -159 -8 -185q-7 -69 -4 -92v-14q576 115 772 119q4 59 8 233z" />
    <glyph glyph-name="hbar" unicode="&#x127;" horiz-adv-x="1184" 
d="M399 915q144 144 334 144q107 0 180 -39t104 -126.5t31.5 -141t10.5 -258.5l20 -195q8 -79 33 -195q6 -21 6 -36q0 -55 -42 -92t-99 -37q-59 0 -97 34.5t-68 220.5t-30 304l6 151v58q0 84 -55 84q-70 0 -143.5 -49t-181.5 -248q0 -368 -38 -443.5t-122 -75.5
q-58 0 -101 39.5t-43 91.5q0 17 13 54q8 28 8 368l6 602l4 68q-151 3 -190 34t-39 81q0 58 42 79t173 21l-2 34q-4 76 38 115.5t101 39.5q134 0 150 -197q360 0 419.5 -24t59.5 -93q0 -44 -34.5 -73t-86.5 -29h-75l-281 6l-4 -82q-7 -143 -7 -195z" />
    <glyph glyph-name="Itilde" unicode="&#x128;" horiz-adv-x="1118" 
d="M672 1210q-15 -185 -15 -489v-449l134 2q79 1 140.5 -0.5t98.5 -41.5t37 -93q0 -55 -40.5 -95t-98.5 -40h-70q-41 0 -98 -2l-99 -2q-160 -3 -268 -18q-125 -19 -196 -19q-60 0 -100 40t-40 95q0 57 40 97.5t100 40.5q80 0 178 14l-2 172q-6 507 20 799l-217 -7
q-55 -2 -98 37t-43 101q0 52 35 89.5t90.5 44.5t310.5 7q130 0 324 -20t229.5 -32.5t55.5 -44.5t20 -81q0 -61 -41.5 -97t-102.5 -36q-50 0 -284 28zM764 1635q-119 0 -185 28.5t-135 110.5q-33 43 -67 43q-55 0 -99 -74q-39 -71 -108 -71q-49 0 -84 26.5t-35 65.5
q0 60 85.5 150.5t240.5 90.5q95 0 142 -27.5t124 -111.5q40 -43 90 -43q30 0 45.5 13t48.5 71q22 57 45.5 73.5t71.5 16.5q47 0 81 -26.5t34 -67.5q0 -43 -75 -155.5t-220 -112.5z" />
    <glyph glyph-name="itilde" unicode="&#x129;" horiz-adv-x="573" 
d="M418 469v-75l6 -292q0 -57 -39 -95t-98 -38q-62 0 -101 38.5t-39 94.5q0 57 -4 183l-2 109q-2 121 11 296q10 136 10 225q0 58 39.5 96t97.5 38t97.5 -38t39.5 -96q0 -89 -10 -225q-8 -106 -8 -221zM525 1184q-119 0 -185 28.5t-135 110.5q-33 43 -67 43q-55 0 -99 -74
q-39 -71 -108 -71q-49 0 -84 26.5t-35 65.5q0 60 85.5 150.5t240.5 90.5q95 0 142 -27.5t124 -111.5q40 -43 90 -43q30 0 45.5 13t48.5 71q22 57 45.5 73.5t71.5 16.5q47 0 81 -26.5t34 -67.5q0 -43 -75 -155.5t-220 -112.5z" />
    <glyph glyph-name="Imacron" unicode="&#x12a;" horiz-adv-x="1118" 
d="M672 1210q-15 -185 -15 -489v-449l134 2q79 1 140.5 -0.5t98.5 -41.5t37 -93q0 -55 -40.5 -95t-98.5 -40h-70q-41 0 -98 -2l-99 -2q-160 -3 -268 -18q-125 -19 -196 -19q-60 0 -100 40t-40 95q0 57 40 97.5t100 40.5q80 0 178 14l-2 172q-6 507 20 799l-217 -7
q-55 -2 -98 37t-43 101q0 52 35 89.5t90.5 44.5t310.5 7q130 0 324 -20t229.5 -32.5t55.5 -44.5t20 -81q0 -61 -41.5 -97t-102.5 -36q-50 0 -284 28zM793 1598h-271q-36 0 -85 2l-85 2q-96 2 -123.5 9t-57 36.5t-29.5 71.5q0 116 215 116q40 0 116 -4l70 -2h172l71 2
q208 6 208 -114q0 -119 -201 -119z" />
    <glyph glyph-name="imacron" unicode="&#x12b;" horiz-adv-x="573" 
d="M418 469v-75l6 -292q0 -57 -39 -95t-98 -38q-62 0 -101 38.5t-39 94.5q0 57 -4 183l-2 109q-2 121 11 296q10 136 10 225q0 58 39.5 96t97.5 38t97.5 -38t39.5 -96q0 -89 -10 -225q-8 -106 -8 -221zM533 1147h-271q-36 0 -85 2l-85 2q-96 2 -123.5 9t-57 36.5t-29.5 71.5
q0 116 215 116q40 0 116 -4l70 -2h172l71 2q208 6 208 -114q0 -119 -201 -119z" />
    <glyph glyph-name="Ibreve" unicode="&#x12c;" horiz-adv-x="1118" 
d="M672 1210q-15 -185 -15 -489v-449l134 2q79 1 140.5 -0.5t98.5 -41.5t37 -93q0 -55 -40.5 -95t-98.5 -40h-70q-41 0 -98 -2l-99 -2q-160 -3 -268 -18q-125 -19 -196 -19q-60 0 -100 40t-40 95q0 57 40 97.5t100 40.5q80 0 178 14l-2 172q-6 507 20 799l-217 -7
q-55 -2 -98 37t-43 101q0 52 35 89.5t90.5 44.5t310.5 7q130 0 324 -20t229.5 -32.5t55.5 -44.5t20 -81q0 -61 -41.5 -97t-102.5 -36q-50 0 -284 28zM493 1631q-160 0 -279.5 91.5t-119.5 221.5q0 42 32.5 69t82.5 27q49 0 81.5 -27t32.5 -69q0 -46 51.5 -84.5t118.5 -38.5
q263 0 297 111q29 78 113 78q51 0 83 -28t32 -71q0 -122 -139.5 -201t-385.5 -79z" />
    <glyph glyph-name="ibreve" unicode="&#x12d;" horiz-adv-x="573" 
d="M418 469v-75l6 -292q0 -57 -39 -95t-98 -38q-62 0 -101 38.5t-39 94.5q0 57 -4 183l-2 109q-2 121 11 296q10 136 10 225q0 58 39.5 96t97.5 38t97.5 -38t39.5 -96q0 -89 -10 -225q-8 -106 -8 -221zM254 1180q-160 0 -279.5 91.5t-119.5 221.5q0 42 32.5 69t82.5 27
q49 0 81.5 -27t32.5 -69q0 -46 51.5 -84.5t118.5 -38.5q263 0 297 111q29 78 113 78q51 0 83 -28t32 -71q0 -122 -139.5 -201t-385.5 -79z" />
    <glyph glyph-name="Iogonek" unicode="&#x12e;" horiz-adv-x="1118" 
d="M672 1210q-15 -185 -15 -489v-449l134 2q79 1 140.5 -0.5t98.5 -41.5t37 -93q0 -55 -40.5 -95t-98.5 -40h-70q-41 0 -98 -2l-99 -2q-160 -3 -268 -18q-125 -19 -196 -19q-60 0 -100 40t-40 95q0 57 40 97.5t100 40.5q80 0 178 14l-2 172q-6 507 20 799l-217 -7
q-55 -2 -98 37t-43 101q0 52 35 89.5t90.5 44.5t310.5 7q130 0 324 -20t229.5 -32.5t55.5 -44.5t20 -81q0 -61 -41.5 -97t-102.5 -36q-50 0 -284 28zM338 -166q0 142 88 239t168 97q46 0 79.5 -30t33.5 -70q0 -57 -76 -90q-33 -17 -53.5 -59t-20.5 -81q0 -54 31 -91.5
t76 -37.5q71 0 137 29q28 12 57 12q47 0 80 -29.5t33 -72.5q0 -59 -109 -98t-217 -39q-140 0 -223.5 103t-83.5 218z" />
    <glyph glyph-name="iogonek" unicode="&#x12f;" horiz-adv-x="573" 
d="M174 1350q0 59 47 103t111 44q62 0 109.5 -42.5t47.5 -104.5t-47.5 -105t-109.5 -43q-65 0 -111.5 44t-46.5 104zM418 469v-75l6 -292q0 -57 -39 -95t-98 -38q-62 0 -101 38.5t-39 94.5q0 57 -4 183l-2 109q-2 121 11 296q10 136 10 225q0 58 39.5 96t97.5 38t97.5 -38
t39.5 -96q0 -89 -10 -225q-8 -106 -8 -221zM30 -166q0 142 88 239t168 97q46 0 79.5 -30t33.5 -70q0 -57 -76 -90q-33 -17 -53.5 -59t-20.5 -81q0 -54 31 -91.5t76 -37.5q71 0 137 29q28 12 57 12q47 0 80 -29.5t33 -72.5q0 -59 -109 -98t-217 -39q-140 0 -223.5 103
t-83.5 218z" />
    <glyph glyph-name="Idotaccent" unicode="&#x130;" horiz-adv-x="1118" 
d="M672 1210q-15 -185 -15 -489v-449l134 2q79 1 140.5 -0.5t98.5 -41.5t37 -93q0 -55 -40.5 -95t-98.5 -40h-70q-41 0 -98 -2l-99 -2q-160 -3 -268 -18q-125 -19 -196 -19q-60 0 -100 40t-40 95q0 57 40 97.5t100 40.5q80 0 178 14l-2 172q-6 507 20 799l-217 -7
q-55 -2 -98 37t-43 101q0 52 35 89.5t90.5 44.5t310.5 7q130 0 324 -20t229.5 -32.5t55.5 -44.5t20 -81q0 -61 -41.5 -97t-102.5 -36q-50 0 -284 28zM397 1758q0 59 48.5 98t101.5 39q44 0 109 -52t65 -110q0 -63 -49 -101t-98 -38q-51 0 -114 53.5t-63 110.5z" />
    <glyph glyph-name="dotlessi" unicode="&#x131;" horiz-adv-x="573" 
d="M418 469v-75l6 -292q0 -57 -39 -95t-98 -38q-62 0 -101 38.5t-39 94.5q0 57 -4 183l-2 109q-2 121 11 296q10 136 10 225q0 58 39.5 96t97.5 38t97.5 -38t39.5 -96q0 -89 -10 -225q-8 -106 -8 -221z" />
    <glyph glyph-name="IJ" unicode="&#x132;" horiz-adv-x="2406" 
d="M2013 1235l-2 -10l-8 -435q-9 -199 -29 -356t-49.5 -265.5t-67 -168.5t-91.5 -90.5t-124 -30.5q-195 0 -385 141t-190 324q0 156 141 156q142 0 142 -154q0 -61 101 -127.5t191 -66.5q23 0 38 56t33 338t18 617v24q0 16 -2 42h-25l-236 4q-62 0 -102.5 39t-40.5 98
q0 135 178 135h43q26 0 58 -2l58 -2q60 -2 230 6q126 9 189 9q268 0 268 -150q0 -54 -38 -95.5t-101 -41.5l-119 6h-78zM672 1210q-15 -185 -15 -489v-449l134 2q79 1 140.5 -0.5t98.5 -41.5t37 -93q0 -55 -40.5 -95t-98.5 -40h-70q-41 0 -98 -2l-99 -2q-160 -3 -268 -18
q-125 -19 -196 -19q-60 0 -100 40t-40 95q0 57 40 97.5t100 40.5q80 0 178 14l-2 172q-6 507 20 799l-217 -7q-55 -2 -98 37t-43 101q0 52 35 89.5t90.5 44.5t310.5 7q130 0 324 -20t229.5 -32.5t55.5 -44.5t20 -81q0 -61 -41.5 -97t-102.5 -36q-50 0 -284 28z" />
    <glyph glyph-name="ij" unicode="&#x133;" horiz-adv-x="1147" 
d="M174 1350q0 59 47 103t111 44q62 0 109.5 -42.5t47.5 -104.5t-47.5 -105t-109.5 -43q-65 0 -111.5 44t-46.5 104zM620 1346q0 60 46.5 104.5t111.5 44.5q64 0 111 -44t47 -105t-47 -105.5t-111 -44.5q-65 0 -111.5 45t-46.5 105zM661 899q0 65 39.5 114.5t102.5 49.5
q43 0 88 -30.5t54 -64.5q2 -7 32 -498q31 -522 31 -667q0 -150 -100 -275.5t-242 -125.5q-169 0 -290.5 161.5t-121.5 243.5q0 57 43 94.5t100 37.5q63 0 113 -68q72 -136 98 -167.5t58 -31.5t48.5 55.5t16.5 86.5q0 88 -35 553t-35 532zM418 469v-75l6 -292q0 -57 -39 -95
t-98 -38q-62 0 -101 38.5t-39 94.5q0 57 -4 183l-2 109q-2 121 11 296q10 136 10 225q0 58 39.5 96t97.5 38t97.5 -38t39.5 -96q0 -89 -10 -225q-8 -106 -8 -221z" />
    <glyph glyph-name="Jcircumflex" unicode="&#x134;" horiz-adv-x="1362" 
d="M999 1235q0 -596 -66 -976t-304 -380q-196 0 -386 141t-190 324q0 156 142 156q141 0 141 -154q0 -60 100.5 -127t192.5 -67q16 0 33 39.5t36 331t19 640.5v24q0 16 -2 42h-142l-118 4q-63 0 -103.5 39.5t-40.5 97.5q0 135 178 135h43q26 0 58 -2l58 -2q61 -2 231 6
q126 9 188 9q268 0 268 -150q0 -54 -38 -95.5t-101 -41.5l-119 6h-78zM854 1872q-242 -256 -329 -256q-54 0 -92.5 35.5t-38.5 79.5q0 45 43 82q89 79 303 291q40 37 90 37q47 0 110 -36.5t167.5 -136.5t147 -136.5t42.5 -80.5q0 -46 -39.5 -80t-93.5 -34q-56 0 -100.5 44.5
t-209.5 190.5z" />
    <glyph glyph-name="jcircumflex" unicode="&#x135;" horiz-adv-x="825" 
d="M234 -190l36 -68q37 -70 84 -70q33 0 49.5 55t16.5 87q0 88 -35 553t-35 532q0 65 39.5 114.5t102.5 49.5q43 0 88 -30.5t54 -64.5q2 -7 32 -505t30 -660q0 -153 -100 -277t-242 -124q-153 0 -264.5 138t-111.5 206q0 54 41.5 92.5t101.5 38.5q64 0 113 -67zM466 1421
q-242 -256 -329 -256q-54 0 -92.5 35.5t-38.5 79.5q0 45 43 82q89 79 303 291q40 37 90 37q47 0 110 -36.5t167.5 -136.5t147 -136.5t42.5 -80.5q0 -46 -39.5 -80t-93.5 -34q-56 0 -100.5 44.5t-209.5 190.5z" />
    <glyph glyph-name="Kcommaaccent" unicode="&#x136;" horiz-adv-x="1251" 
d="M393 23q0 -55 -33.5 -94.5t-93.5 -39.5q-69 0 -113 53.5t-44 118.5q0 220 12 666q14 392 14 668q0 56 41 96.5t100 40.5t99.5 -40.5t40.5 -96.5q0 -61 -23 -486q34 28 518 555q46 52 107 52q57 0 99 -41t42 -97q0 -52 -178 -255t-430 -443q267 -260 376.5 -346
t182.5 -111q107 -33 107 -131q0 -52 -35.5 -94.5t-94.5 -42.5q-83 0 -213.5 73t-478.5 414zM660 -340q-144 24 -144 121q0 53 37.5 88t99.5 35q81 0 136 -49t55 -129q0 -102 -83 -195.5t-165 -93.5q-35 0 -57.5 22.5t-22.5 57.5q0 25 68 64q74 43 76 79z" />
    <glyph glyph-name="kcommaaccent" unicode="&#x137;" horiz-adv-x="1106" 
d="M514 455q-102 -74 -131 -90q-10 -140 -10 -267q0 -55 -38 -94t-99 -39q-142 0 -142 168q0 78 10 236q13 145 13 237l10 662q0 34 -5 101q-5 68 -5 101q0 58 39.5 96t99.5 38q58 0 97.5 -38t39.5 -96q0 -34 5 -104t5 -104q0 -118 -6 -281q-6 -156 -6 -279q144 111 416 381
q42 45 98 45q58 0 101 -41.5t43 -95.5q0 -21 -10.5 -47.5t-111 -128t-200.5 -188.5l209 -269q151 -194 151 -268q0 -54 -44 -92.5t-101 -38.5q-79 0 -119 76q-51 97 -263 363zM605 -340q-144 24 -144 121q0 53 37.5 88t99.5 35q81 0 136 -49t55 -129q0 -102 -83 -195.5
t-165 -93.5q-35 0 -57.5 22.5t-22.5 57.5q0 25 68 64q74 43 76 79z" />
    <glyph glyph-name="kgreenlandic" unicode="&#x138;" horiz-adv-x="1106" 
d="M524 446q-114 -79 -133 -88q-10 -136 -10 -262q0 -55 -39 -93t-98 -38q-142 0 -142 164q0 61 11 233q12 157 12 234v436q0 57 39.5 94t99.5 37q58 0 97.5 -37t39.5 -94v-53q0 -32 -2 -74v-167q0 -22 2 -48q26 20 129 115l288 265q44 40 97 40q56 0 99 -41.5t43 -93.5
q0 -84 -320 -359q273 -345 316 -421t43 -107q0 -51 -44 -90t-100 -39q-77 0 -121 74q-49 85 -262 355q-40 50 -45 58z" />
    <glyph glyph-name="Lacute" unicode="&#x139;" horiz-adv-x="1128" 
d="M61 123l9 126q18 279 25 486q11 313 11 670q0 56 40 96.5t100 40.5q61 0 100 -40.5t39 -96.5q0 -615 -45 -1227q236 3 608 117q22 6 43 6q64 0 100.5 -43t36.5 -94q0 -71 -71 -118t-328 -92.5t-424 -45.5q-244 0 -244 215zM393 1639q-51 0 -91 34t-40 78q0 39 51 87
t159 163t193 115q52 0 91 -34.5t39 -80.5q0 -49 -54 -88q-54 -35 -131 -121q-137 -153 -217 -153z" />
    <glyph glyph-name="lacute" unicode="&#x13a;" horiz-adv-x="561" 
d="M410 147q0 -190 -138 -190q-58 0 -98.5 37.5t-40.5 97.5v1385q0 56 41.5 92.5t99.5 36.5q60 0 98 -37t38 -92v-1330zM303 1688q-51 0 -91 34t-40 78q0 39 51 87t159 163t193 115q52 0 91 -34.5t39 -80.5q0 -49 -54 -88q-54 -35 -131 -121q-137 -153 -217 -153z" />
    <glyph glyph-name="Lcommaaccent" unicode="&#x13b;" horiz-adv-x="1128" 
d="M61 123l9 126q18 279 25 486q11 313 11 670q0 56 40 96.5t100 40.5q61 0 100 -40.5t39 -96.5q0 -615 -45 -1227q236 3 608 117q22 6 43 6q64 0 100.5 -43t36.5 -94q0 -71 -71 -118t-328 -92.5t-424 -45.5q-244 0 -244 215zM650 -340q-144 24 -144 121q0 53 37.5 88
t99.5 35q81 0 136 -49t55 -129q0 -102 -83 -195.5t-165 -93.5q-35 0 -57.5 22.5t-22.5 57.5q0 25 68 64q74 43 76 79z" />
    <glyph glyph-name="lcommaaccent" unicode="&#x13c;" horiz-adv-x="561" 
d="M410 147q0 -190 -138 -190q-58 0 -98.5 37.5t-40.5 97.5v1385q0 56 41.5 92.5t99.5 36.5q60 0 98 -37t38 -92v-1330zM256 -340q-144 24 -144 121q0 53 37.5 88t99.5 35q81 0 136 -49t55 -129q0 -102 -83 -195.5t-165 -93.5q-35 0 -57.5 22.5t-22.5 57.5q0 25 68 64
q74 43 76 79z" />
    <glyph glyph-name="Lcaron" unicode="&#x13d;" horiz-adv-x="1128" 
d="M61 123l9 126q18 279 25 486q11 313 11 670q0 56 40 96.5t100 40.5q61 0 100 -40.5t39 -96.5q0 -615 -45 -1227q236 3 608 117q22 6 43 6q64 0 100.5 -43t36.5 -94q0 -71 -71 -118t-328 -92.5t-424 -45.5q-244 0 -244 215zM727 1274q-84 53 -84 131q0 57 39 93t98 36
q142 0 142 -166q0 -104 -59 -219t-140 -115q-35 0 -57.5 22.5t-22.5 57.5q0 38 64 119q14 19 20 41z" />
    <glyph glyph-name="lcaron" unicode="&#x13e;" horiz-adv-x="764" 
d="M410 147q0 -190 -138 -190q-58 0 -98.5 37.5t-40.5 97.5v1385q0 56 41.5 92.5t99.5 36.5q60 0 98 -37t38 -92v-1330zM618 1343q-83 53 -83 132q0 56 38.5 92.5t98.5 36.5q141 0 141 -166q0 -107 -59 -220.5t-140 -113.5q-79 0 -79 80q0 39 63 119q14 20 20 40z" />
    <glyph glyph-name="Ldot" unicode="&#x13f;" horiz-adv-x="1128" 
d="M61 123l9 126q18 279 25 486q11 313 11 670q0 56 40 96.5t100 40.5q61 0 100 -40.5t39 -96.5q0 -615 -45 -1227q236 3 608 117q22 6 43 6q64 0 100.5 -43t36.5 -94q0 -71 -71 -118t-328 -92.5t-424 -45.5q-244 0 -244 215zM817 557q-66 0 -112 48t-46 112t45.5 112
t112.5 48t114.5 -48t47.5 -112t-48 -112t-114 -48z" />
    <glyph glyph-name="ldot" unicode="&#x140;" horiz-adv-x="889" 
d="M410 147q0 -190 -138 -190q-58 0 -98.5 37.5t-40.5 97.5v1385q0 56 41.5 92.5t99.5 36.5q60 0 98 -37t38 -92v-1330zM692 557q-64 0 -110.5 47t-46.5 113t46 113t111 47q67 0 114.5 -48t47.5 -112t-48 -112t-114 -48z" />
    <glyph glyph-name="Lslash" unicode="&#x141;" horiz-adv-x="1262" 
d="M471 178q217 3 610 117q25 6 43 6q58 0 98 -40.5t40 -96.5q0 -71 -73 -118.5t-327.5 -92.5t-423.5 -45q-243 0 -243 215q0 61 22 397l-18 -6q-4 -1 -47 -25q-27 -14 -50 -14q-55 0 -97 41t-42 96q0 35 18 64t53 51t197 135q9 209 9 543q0 56 40 96.5t99 40.5t99 -40.5
t40 -96.5q0 -199 -4 -367q98 47 133 47q56 0 96.5 -39.5t40.5 -97.5q0 -79 -84 -119q-94 -42 -194 -104q-7 -225 -14 -301q-12 -103 -21 -246z" />
    <glyph glyph-name="lslash" unicode="&#x142;" horiz-adv-x="561" 
d="M403 993q104 80 140 80q96 0 96 -129q0 -21 -32.5 -62t-203.5 -184q4 -166 1.5 -406.5t-27.5 -279.5t-105 -39q-110 0 -110 121q0 423 -35 423q-3 0 -6 -3q-57 -57 -101 -57q-98 0 -98 114q0 35 29 74t211 182v643q0 56 37 92.5t92 36.5q112 0 112 -129v-477z" />
    <glyph glyph-name="Nacute" unicode="&#x143;" horiz-adv-x="1665" 
d="M391 1012q-6 -261 -6 -320v-100l6 -377q0 -295 -143 -295q-71 0 -113.5 41t-42.5 102q0 39 6 119q6 84 6 123l9 354q0 65 -4 191q-3 106 -3 178t-12 191q-10 120 -10 178t50.5 105.5t117.5 47.5q73 0 164 -127q454 -648 897 -1056v151q0 427 -5 549.5t-18 222.5
q-10 70 -10 111q0 137 145 137q164 0 164 -502v-46l-8 -744q0 -101 -26.5 -194t-137.5 -93q-54 0 -137.5 63t-332 327t-556.5 663zM792 1639q-51 0 -91 34t-40 78q0 39 51 87t159 163t193 115q52 0 91 -34.5t39 -80.5q0 -49 -54 -88q-54 -35 -131 -121q-137 -153 -217 -153z
" />
    <glyph glyph-name="nacute" unicode="&#x144;" horiz-adv-x="1071" 
d="M371 924q144 147 307 147q154 0 231.5 -107t77.5 -368v-72l-2 -39q-4 -82 21 -227q22 -124 22 -199q0 -57 -40.5 -94t-96.5 -37q-59 0 -92.5 28t-41.5 75.5t-17 122.5q-7 51 -15 102q-14 98 -14 209v34l10 226q0 82 -43 82q-55 0 -108 -39t-105 -114t-86.5 -167.5
t-34.5 -234.5q0 -28 6 -86q6 -56 6 -84q0 -59 -40 -95t-99 -36q-57 0 -97 36t-40 95q0 28 -6 84q-6 58 -6 86q0 115 14 264q14 152 14 268q0 32 -4 90t-4 89q0 54 40 91.5t101 37.5q130 0 140 -156zM483 1188q-51 0 -91 34t-40 78q0 39 51 87t159 163t193 115q52 0 91 -34.5
t39 -80.5q0 -49 -54 -88q-54 -35 -131 -121q-137 -153 -217 -153z" />
    <glyph glyph-name="Ncommaaccent" unicode="&#x145;" horiz-adv-x="1665" 
d="M391 1012q-6 -261 -6 -320v-100l6 -377q0 -295 -143 -295q-71 0 -113.5 41t-42.5 102q0 39 6 119q6 84 6 123l9 354q0 65 -4 191q-3 106 -3 178t-12 191q-10 120 -10 178t50.5 105.5t117.5 47.5q73 0 164 -127q454 -648 897 -1056v151q0 427 -5 549.5t-18 222.5
q-10 70 -10 111q0 137 145 137q164 0 164 -502v-46l-8 -744q0 -101 -26.5 -194t-137.5 -93q-54 0 -137.5 63t-332 327t-556.5 663zM811 -340q-144 24 -144 121q0 53 37.5 88t99.5 35q81 0 136 -49t55 -129q0 -102 -83 -195.5t-165 -93.5q-35 0 -57.5 22.5t-22.5 57.5
q0 25 68 64q74 43 76 79z" />
    <glyph glyph-name="ncommaaccent" unicode="&#x146;" horiz-adv-x="1071" 
d="M371 924q144 147 307 147q154 0 231.5 -107t77.5 -368v-72l-2 -39q-4 -82 21 -227q22 -124 22 -199q0 -57 -40.5 -94t-96.5 -37q-59 0 -92.5 28t-41.5 75.5t-17 122.5q-7 51 -15 102q-14 98 -14 209v34l10 226q0 82 -43 82q-55 0 -108 -39t-105 -114t-86.5 -167.5
t-34.5 -234.5q0 -28 6 -86q6 -56 6 -84q0 -59 -40 -95t-99 -36q-57 0 -97 36t-40 95q0 28 -6 84q-6 58 -6 86q0 115 14 264q14 152 14 268q0 32 -4 90t-4 89q0 54 40 91.5t101 37.5q130 0 140 -156zM516 -340q-144 24 -144 121q0 53 37.5 88t99.5 35q81 0 136 -49t55 -129
q0 -102 -83 -195.5t-165 -93.5q-35 0 -57.5 22.5t-22.5 57.5q0 25 68 64q74 43 76 79z" />
    <glyph glyph-name="Ncaron" unicode="&#x147;" horiz-adv-x="1665" 
d="M391 1012q-6 -261 -6 -320v-100l6 -377q0 -295 -143 -295q-71 0 -113.5 41t-42.5 102q0 39 6 119q6 84 6 123l9 354q0 65 -4 191q-3 106 -3 178t-12 191q-10 120 -10 178t50.5 105.5t117.5 47.5q73 0 164 -127q454 -648 897 -1056v151q0 427 -5 549.5t-18 222.5
q-10 70 -10 111q0 137 145 137q164 0 164 -502v-46l-8 -744q0 -101 -26.5 -194t-137.5 -93q-54 0 -137.5 63t-332 327t-556.5 663zM852 1864q177 136 204.5 153t62.5 17q47 0 80.5 -30t33.5 -68q0 -40 -37 -69t-176.5 -134.5t-179.5 -105.5q-35 0 -60 16t-85 80l-63 62
q-148 142 -148 196q0 39 36 67.5t82 28.5q62 0 99 -49q46 -65 151 -164z" />
    <glyph glyph-name="ncaron" unicode="&#x148;" horiz-adv-x="1071" 
d="M371 924q144 147 307 147q154 0 231.5 -107t77.5 -368v-72l-2 -39q-4 -82 21 -227q22 -124 22 -199q0 -57 -40.5 -94t-96.5 -37q-59 0 -92.5 28t-41.5 75.5t-17 122.5q-7 51 -15 102q-14 98 -14 209v34l10 226q0 82 -43 82q-55 0 -108 -39t-105 -114t-86.5 -167.5
t-34.5 -234.5q0 -28 6 -86q6 -56 6 -84q0 -59 -40 -95t-99 -36q-57 0 -97 36t-40 95q0 28 -6 84q-6 58 -6 86q0 115 14 264q14 152 14 268q0 32 -4 90t-4 89q0 54 40 91.5t101 37.5q130 0 140 -156zM612 1413q177 136 204.5 153t62.5 17q47 0 80.5 -30t33.5 -68
q0 -40 -37 -69t-176.5 -134.5t-179.5 -105.5q-35 0 -60 16t-85 80l-63 62q-148 142 -148 196q0 39 36 67.5t82 28.5q62 0 99 -49q46 -65 151 -164z" />
    <glyph glyph-name="napostrophe" unicode="&#x149;" horiz-adv-x="1313" 
d="M78 1565q0 54 32.5 88.5t88.5 34.5q38 0 81.5 -23t62.5 -178t19 -170q0 -54 -33.5 -88.5t-88.5 -34.5q-39 0 -80 27t-61.5 178.5t-20.5 165.5zM610 924q145 147 308 147q155 0 232 -108t77 -367v-72l-2 -39q-4 -87 20 -227q23 -130 23 -199q0 -55 -40 -93t-98 -38
q-60 0 -93.5 29.5t-41.5 79.5t-16 117q-6 51 -14 102q-15 105 -15 209v34l6 142q0 10 4 62q8 104 -42 104q-111 0 -213.5 -152.5t-109.5 -266.5l-5 -48q-6 -47 -6 -88q0 -28 6 -86q6 -56 6 -84q0 -59 -40 -95t-99 -36t-98.5 37t-39.5 94q0 28 -6 84q-6 58 -6 86
q0 105 15 264q14 152 14 268q0 32 -4 90t-4 89q0 53 39.5 91t101.5 38q130 0 139 -156z" />
    <glyph glyph-name="Eng" unicode="&#x14a;" horiz-adv-x="1665" 
d="M1313 -2q-50 24 -314 296.5t-608 717.5q-6 -261 -6 -320v-100l6 -377q0 -295 -143 -295q-71 0 -113.5 41t-42.5 102q0 39 6 119q6 84 6 123l9 354q0 65 -4 191q-3 106 -3 178t-12 191q-10 120 -10 178t50.5 105.5t117.5 47.5q73 0 164 -127q454 -648 897 -1056v151
q0 427 -5 549.5t-18 222.5q-10 70 -10 111q0 137 145 137q164 0 164 -502v-46l-8 -744q0 -405 -169 -593t-511 -188q-55 0 -90 36.5t-35 86.5q0 53 35 89t90 36q190 0 286.5 69t125.5 216z" />
    <glyph glyph-name="eng" unicode="&#x14b;" horiz-adv-x="1071" 
d="M371 924q144 147 307 147q110 0 181 -53.5t98.5 -150.5t27.5 -406q0 -67 23 -215q22 -138 22 -211q0 -228 -105 -353.5t-298 -125.5q-189 0 -189 135q0 54 35 89.5t90 35.5q12 0 32 -5q20 -6 32 -6q145 0 145 220q0 94 -29 307q-26 191 -26 309l4 84q0 82 -43 82
q-76 0 -158 -83t-129 -195t-47 -277q0 -28 6 -86q6 -56 6 -84q0 -58 -40.5 -94.5t-98.5 -36.5q-55 0 -96 36.5t-41 94.5q0 28 -6 84q-6 58 -6 86q0 109 14 266q14 158 14 266q0 32 -4 90t-4 89q0 54 40 91.5t101 37.5q125 0 142 -168z" />
    <glyph glyph-name="Omacron" unicode="&#x14c;" horiz-adv-x="1634" 
d="M59 580q0 359 234.5 647.5t580.5 288.5q699 0 699 -642q0 -375 -221.5 -655t-565.5 -280q-305 0 -516 179t-211 462zM344 580q0 -164 129 -266.5t313 -102.5q217 0 359.5 205.5t142.5 457.5q0 202 -88 285.5t-326 83.5q-221 0 -375.5 -206t-154.5 -457zM1210 1598h-271
q-36 0 -85 2l-85 2q-96 2 -123.5 9t-57 36.5t-29.5 71.5q0 116 215 116q40 0 116 -4l70 -2h172l71 2q208 6 208 -114q0 -119 -201 -119z" />
    <glyph glyph-name="omacron" unicode="&#x14d;" horiz-adv-x="1077" 
d="M43 438q0 258 149.5 428t395.5 170q191 0 307.5 -148t116.5 -368q0 -242 -137 -410.5t-361 -168.5q-200 0 -335.5 144.5t-135.5 352.5zM319 438q0 -97 52 -165t143 -68q109 0 169 78.5t60 205.5q0 283 -170 283q-115 0 -184.5 -100t-69.5 -234zM782 1147h-271
q-36 0 -85 2l-85 2q-96 2 -123.5 9t-57 36.5t-29.5 71.5q0 116 215 116q40 0 116 -4l70 -2h172l71 2q208 6 208 -114q0 -119 -201 -119z" />
    <glyph glyph-name="Obreve" unicode="&#x14e;" horiz-adv-x="1634" 
d="M59 580q0 359 234.5 647.5t580.5 288.5q699 0 699 -642q0 -375 -221.5 -655t-565.5 -280q-305 0 -516 179t-211 462zM344 580q0 -164 129 -266.5t313 -102.5q217 0 359.5 205.5t142.5 457.5q0 202 -88 285.5t-326 83.5q-221 0 -375.5 -206t-154.5 -457zM954 1631
q-160 0 -279.5 91.5t-119.5 221.5q0 42 32.5 69t82.5 27q49 0 81.5 -27t32.5 -69q0 -46 51.5 -84.5t118.5 -38.5q263 0 297 111q29 78 113 78q51 0 83 -28t32 -71q0 -122 -139.5 -201t-385.5 -79z" />
    <glyph glyph-name="obreve" unicode="&#x14f;" horiz-adv-x="1077" 
d="M43 438q0 258 149.5 428t395.5 170q191 0 307.5 -148t116.5 -368q0 -242 -137 -410.5t-361 -168.5q-200 0 -335.5 144.5t-135.5 352.5zM319 438q0 -97 52 -165t143 -68q109 0 169 78.5t60 205.5q0 283 -170 283q-115 0 -184.5 -100t-69.5 -234zM553 1180
q-160 0 -279.5 91.5t-119.5 221.5q0 42 32.5 69t82.5 27q49 0 81.5 -27t32.5 -69q0 -46 51.5 -84.5t118.5 -38.5q263 0 297 111q29 78 113 78q51 0 83 -28t32 -71q0 -122 -139.5 -201t-385.5 -79z" />
    <glyph glyph-name="Ohungarumlaut" unicode="&#x150;" horiz-adv-x="1634" 
d="M59 580q0 359 234.5 647.5t580.5 288.5q699 0 699 -642q0 -375 -221.5 -655t-565.5 -280q-305 0 -516 179t-211 462zM344 580q0 -164 129 -266.5t313 -102.5q217 0 359.5 205.5t142.5 457.5q0 202 -88 285.5t-326 83.5q-221 0 -375.5 -206t-154.5 -457zM686 1635
q-46 0 -81.5 28t-35.5 68q0 42 98 125l159 137q61 53 112 53q49 0 82.5 -29.5t33.5 -68.5q0 -33 -39.5 -72t-113.5 -98q-94 -73 -127 -106q-37 -37 -88 -37zM1294 1721q-110 -86 -160 -86q-47 0 -80.5 30t-33.5 68q0 42 69 94l163 123q95 70 136 70q47 0 81 -30t34 -69
q0 -44 -51 -77z" />
    <glyph glyph-name="ohungarumlaut" unicode="&#x151;" horiz-adv-x="1077" 
d="M43 438q0 258 149.5 428t395.5 170q191 0 307.5 -148t116.5 -368q0 -242 -137 -410.5t-361 -168.5q-200 0 -335.5 144.5t-135.5 352.5zM319 438q0 -97 52 -165t143 -68q109 0 169 78.5t60 205.5q0 283 -170 283q-115 0 -184.5 -100t-69.5 -234zM336 1184q-46 0 -81.5 28
t-35.5 68q0 42 98 125l159 137q61 53 112 53q49 0 82.5 -29.5t33.5 -68.5q0 -33 -39.5 -72t-113.5 -98q-94 -73 -127 -106q-37 -37 -88 -37zM944 1270q-110 -86 -160 -86q-47 0 -80.5 30t-33.5 68q0 42 69 94l163 123q95 70 136 70q47 0 81 -30t34 -69q0 -44 -51 -77z" />
    <glyph glyph-name="OE" unicode="&#x152;" horiz-adv-x="2472" 
d="M1599 1307q5 -42 5 -72q0 -120 -13 -324q106 8 391 37q182 19 242 19q59 0 100 -39.5t41 -98.5q0 -119 -124 -135l-240 -18l-428 -39q-6 -111 -6 -207q0 -219 29.5 -227t117.5 -8q61 0 187 4t188 4q15 0 59 5q43 5 58 5q61 0 104 -37t43 -100q0 -102 -92.5 -127
t-439.5 -25q-292 0 -388.5 60t-125.5 188q-212 -233 -523 -233q-301 0 -513 178.5t-212 464.5q0 356 233 647t582 291q269 0 431 -90v12q0 151 139 151q46 0 82 -22q229 57 418 57q167 0 291.5 -26.5t164 -63t39.5 -96.5q0 -54 -39.5 -95.5t-97.5 -41.5q-22 0 -43 6
q-164 45 -315 45q-139 0 -345 -49zM344 582q0 -162 122 -266.5t318 -104.5q216 0 360 202.5t144 463.5q0 202 -87.5 286t-326.5 84q-218 0 -374 -206.5t-156 -458.5z" />
    <glyph glyph-name="oe" unicode="&#x153;" horiz-adv-x="1913" 
d="M876 113q-139 -172 -365 -172q-193 0 -332 141t-139 376q0 230 144 404t401 174q211 0 323 -166q147 174 383 174q202 0 321.5 -74.5t119.5 -211.5q0 -92 -71.5 -154.5t-277.5 -152.5l-337 -150q97 -104 272 -104q71 0 163 25t118 61q45 67 106 67q50 0 89.5 -34.5
t39.5 -84.5q0 -109 -174 -193.5t-342 -84.5q-292 0 -442 160zM1025 555q309 124 440 211q-64 37 -174 37q-187 0 -266 -248zM316 440q0 -109 56.5 -172t138.5 -63q93 0 161.5 68t68.5 219q0 282 -171 282q-116 0 -185 -101t-69 -233z" />
    <glyph glyph-name="Racute" unicode="&#x154;" horiz-adv-x="1311" 
d="M360 424q13 -273 13 -324q0 -57 -40.5 -96t-101.5 -39q-58 0 -98.5 39.5t-40.5 95.5v94q0 56 2 132l2 131v94l2 807q0 69 44 123.5t137 54.5q119 0 224 -15q158 -23 240 -60t194.5 -114t183.5 -187.5t71 -241.5q0 -264 -358 -402q141 -78 248 -160.5t146.5 -135.5
t39.5 -95q0 -56 -43 -96.5t-99 -40.5q-54 0 -100 43q-302 283 -666 393zM369 1253v-530h43q287 0 393 77t106 118q0 112 -144.5 216t-298.5 113q-4 0 -99 6zM571 1639q-51 0 -91 34t-40 78q0 39 51 87t159 163t193 115q52 0 91 -34.5t39 -80.5q0 -49 -54 -88
q-54 -35 -131 -121q-137 -153 -217 -153z" />
    <glyph glyph-name="racute" unicode="&#x155;" horiz-adv-x="983" 
d="M940 721q0 -60 -33 -107t-106 -47q-125 0 -125 131l-6 101q-226 -35 -322 -232v-501q0 -59 -39 -96.5t-98 -37.5q-56 0 -91.5 37.5t-35.5 96.5v655l2 165v19q0 56 33.5 93.5t95.5 37.5q112 0 133 -114q177 133 393 133q199 0 199 -267v-67zM453 1188q-51 0 -91 34t-40 78
q0 39 51 87t159 163t193 115q52 0 91 -34.5t39 -80.5q0 -49 -54 -88q-54 -35 -131 -121q-137 -153 -217 -153z" />
    <glyph glyph-name="Rcommaaccent" unicode="&#x156;" horiz-adv-x="1311" 
d="M360 424q13 -273 13 -324q0 -57 -40.5 -96t-101.5 -39q-58 0 -98.5 39.5t-40.5 95.5v94q0 56 2 132l2 131v94l2 807q0 69 44 123.5t137 54.5q119 0 224 -15q158 -23 240 -60t194.5 -114t183.5 -187.5t71 -241.5q0 -264 -358 -402q141 -78 248 -160.5t146.5 -135.5
t39.5 -95q0 -56 -43 -96.5t-99 -40.5q-54 0 -100 43q-302 283 -666 393zM369 1253v-530h43q287 0 393 77t106 118q0 112 -144.5 216t-298.5 113q-4 0 -99 6zM625 -340q-144 24 -144 121q0 53 37.5 88t99.5 35q81 0 136 -49t55 -129q0 -102 -83 -195.5t-165 -93.5
q-35 0 -57.5 22.5t-22.5 57.5q0 25 68 64q74 43 76 79z" />
    <glyph glyph-name="rcommaaccent" unicode="&#x157;" horiz-adv-x="983" 
d="M940 721q0 -60 -33 -107t-106 -47q-125 0 -125 131l-6 101q-226 -35 -322 -232v-501q0 -59 -39 -96.5t-98 -37.5q-56 0 -91.5 37.5t-35.5 96.5v655l2 165v19q0 56 33.5 93.5t95.5 37.5q112 0 133 -114q177 133 393 133q199 0 199 -267v-67zM222 -340q-144 24 -144 121
q0 53 37.5 88t99.5 35q81 0 136 -49t55 -129q0 -102 -83 -195.5t-165 -93.5q-35 0 -57.5 22.5t-22.5 57.5q0 25 68 64q74 43 76 79z" />
    <glyph glyph-name="Rcaron" unicode="&#x158;" horiz-adv-x="1311" 
d="M360 424q13 -273 13 -324q0 -57 -40.5 -96t-101.5 -39q-58 0 -98.5 39.5t-40.5 95.5v94q0 56 2 132l2 131v94l2 807q0 69 44 123.5t137 54.5q119 0 224 -15q158 -23 240 -60t194.5 -114t183.5 -187.5t71 -241.5q0 -264 -358 -402q141 -78 248 -160.5t146.5 -135.5
t39.5 -95q0 -56 -43 -96.5t-99 -40.5q-54 0 -100 43q-302 283 -666 393zM369 1253v-530h43q287 0 393 77t106 118q0 112 -144.5 216t-298.5 113q-4 0 -99 6zM612 1864q177 136 204.5 153t62.5 17q47 0 80.5 -30t33.5 -68q0 -40 -37 -69t-176.5 -134.5t-179.5 -105.5
q-35 0 -60 16t-85 80l-63 62q-148 142 -148 196q0 39 36 67.5t82 28.5q62 0 99 -49q46 -65 151 -164z" />
    <glyph glyph-name="rcaron" unicode="&#x159;" horiz-adv-x="983" 
d="M940 721q0 -60 -33 -107t-106 -47q-125 0 -125 131l-6 101q-226 -35 -322 -232v-501q0 -59 -39 -96.5t-98 -37.5q-56 0 -91.5 37.5t-35.5 96.5v655l2 165v19q0 56 33.5 93.5t95.5 37.5q112 0 133 -114q177 133 393 133q199 0 199 -267v-67zM514 1413q177 136 204.5 153
t62.5 17q47 0 80.5 -30t33.5 -68q0 -40 -37 -69t-176.5 -134.5t-179.5 -105.5q-35 0 -60 16t-85 80l-63 62q-148 142 -148 196q0 39 36 67.5t82 28.5q62 0 99 -49q46 -65 151 -164z" />
    <glyph glyph-name="Sacute" unicode="&#x15a;" horiz-adv-x="1419" 
d="M47 268q0 65 40 106.5t103 41.5q90 0 134 -92q57 -123 258 -123q176 0 337.5 76t161.5 167q0 89 -58.5 141.5t-342.5 57.5q-194 4 -343 82.5t-149 215.5q0 198 204 361.5t456 163.5q109 0 265.5 -53t156.5 -121q0 -51 -39 -94t-101 -43q-49 0 -141 21q-87 20 -141 20
q-125 0 -245 -61.5t-120 -135.5q0 -77 146 -98q276 -13 363 -26t183.5 -69.5t148.5 -151t52 -224.5q0 -233 -239.5 -362t-565.5 -129q-244 0 -384 99.5t-140 229.5zM739 1639q-51 0 -91 34t-40 78q0 39 51 87t159 163t193 115q52 0 91 -34.5t39 -80.5q0 -49 -54 -88
q-54 -35 -131 -121q-137 -153 -217 -153z" />
    <glyph glyph-name="sacute" unicode="&#x15b;" horiz-adv-x="997" 
d="M686 815q-41 6 -82 6q-239 0 -239 -65q0 -40 145 -105q240 -111 326 -192t86 -187q0 -156 -130.5 -243.5t-347.5 -87.5q-151 0 -272 53.5t-121 150.5q0 101 119 101q46 0 133 -29q93 -29 135 -29q203 0 203 82q0 51 -139 113q-207 90 -272 136.5t-99.5 106t-34.5 130.5
q0 149 122.5 230t469.5 81q118 0 166.5 -37t48.5 -119q0 -180 -96 -180q-100 0 -121 84zM493 1188q-51 0 -91 34t-40 78q0 39 51 87t159 163t193 115q52 0 91 -34.5t39 -80.5q0 -49 -54 -88q-54 -35 -131 -121q-137 -153 -217 -153z" />
    <glyph glyph-name="Scircumflex" unicode="&#x15c;" horiz-adv-x="1419" 
d="M47 268q0 65 40 106.5t103 41.5q90 0 134 -92q57 -123 258 -123q176 0 337.5 76t161.5 167q0 89 -58.5 141.5t-342.5 57.5q-194 4 -343 82.5t-149 215.5q0 198 204 361.5t456 163.5q109 0 265.5 -53t156.5 -121q0 -51 -39 -94t-101 -43q-49 0 -141 21q-87 20 -141 20
q-125 0 -245 -61.5t-120 -135.5q0 -77 146 -98q276 -13 363 -26t183.5 -69.5t148.5 -151t52 -224.5q0 -233 -239.5 -362t-565.5 -129q-244 0 -384 99.5t-140 229.5zM784 1872q-242 -256 -329 -256q-54 0 -92.5 35.5t-38.5 79.5q0 45 43 82q89 79 303 291q40 37 90 37
q47 0 110 -36.5t167.5 -136.5t147 -136.5t42.5 -80.5q0 -46 -39.5 -80t-93.5 -34q-56 0 -100.5 44.5t-209.5 190.5z" />
    <glyph glyph-name="scircumflex" unicode="&#x15d;" horiz-adv-x="997" 
d="M686 815q-41 6 -82 6q-239 0 -239 -65q0 -40 145 -105q240 -111 326 -192t86 -187q0 -156 -130.5 -243.5t-347.5 -87.5q-151 0 -272 53.5t-121 150.5q0 101 119 101q46 0 133 -29q93 -29 135 -29q203 0 203 82q0 51 -139 113q-207 90 -272 136.5t-99.5 106t-34.5 130.5
q0 149 122.5 230t469.5 81q118 0 166.5 -37t48.5 -119q0 -180 -96 -180q-100 0 -121 84zM742 1421q-242 -256 -329 -256q-54 0 -92.5 35.5t-38.5 79.5q0 45 43 82q89 79 303 291q40 37 90 37q47 0 110 -36.5t167.5 -136.5t147 -136.5t42.5 -80.5q0 -46 -39.5 -80t-93.5 -34
q-56 0 -100.5 44.5t-209.5 190.5z" />
    <glyph glyph-name="Scedilla" unicode="&#x15e;" horiz-adv-x="1419" 
d="M47 268q0 65 40 106.5t103 41.5q90 0 134 -92q57 -123 258 -123q176 0 337.5 76t161.5 167q0 89 -58.5 141.5t-342.5 57.5q-194 4 -343 82.5t-149 215.5q0 198 204 361.5t456 163.5q109 0 265.5 -53t156.5 -121q0 -51 -39 -94t-101 -43q-49 0 -141 21q-87 20 -141 20
q-125 0 -245 -61.5t-120 -135.5q0 -77 146 -98q276 -13 363 -26t183.5 -69.5t148.5 -151t52 -224.5q0 -233 -239.5 -362t-565.5 -129q-244 0 -384 99.5t-140 229.5zM643 -119l-127 43q-65 22 -65 88q0 42 31 72.5t79 30.5q138 0 261.5 -94t123.5 -214q0 -117 -73 -184
t-209 -67q-113 0 -205 46.5t-92 116.5q0 82 108 82q30 0 90 -21q59 -22 86 -22q60 0 60 45q0 54 -68 78z" />
    <glyph glyph-name="scedilla" unicode="&#x15f;" horiz-adv-x="997" 
d="M686 815q-41 6 -82 6q-239 0 -239 -65q0 -40 145 -105q240 -111 326 -192t86 -187q0 -156 -130.5 -243.5t-347.5 -87.5q-151 0 -272 53.5t-121 150.5q0 101 119 101q46 0 133 -29q93 -29 135 -29q203 0 203 82q0 51 -139 113q-207 90 -272 136.5t-99.5 106t-34.5 130.5
q0 149 122.5 230t469.5 81q118 0 166.5 -37t48.5 -119q0 -180 -96 -180q-100 0 -121 84zM454 -119l-127 43q-65 22 -65 88q0 42 31 72.5t79 30.5q138 0 261.5 -94t123.5 -214q0 -117 -73 -184t-209 -67q-113 0 -205 46.5t-92 116.5q0 82 108 82q30 0 90 -21q59 -22 86 -22
q60 0 60 45q0 54 -68 78z" />
    <glyph glyph-name="Scaron" unicode="&#x160;" horiz-adv-x="1419" 
d="M47 268q0 65 40 106.5t103 41.5q90 0 134 -92q57 -123 258 -123q176 0 337.5 76t161.5 167q0 89 -58.5 141.5t-342.5 57.5q-194 4 -343 82.5t-149 215.5q0 198 204 361.5t456 163.5q109 0 265.5 -53t156.5 -121q0 -51 -39 -94t-101 -43q-49 0 -141 21q-87 20 -141 20
q-125 0 -245 -61.5t-120 -135.5q0 -77 146 -98q276 -13 363 -26t183.5 -69.5t148.5 -151t52 -224.5q0 -233 -239.5 -362t-565.5 -129q-244 0 -384 99.5t-140 229.5zM856 1864q177 136 204.5 153t62.5 17q47 0 80.5 -30t33.5 -68q0 -40 -37 -69t-176.5 -134.5t-179.5 -105.5
q-35 0 -60 16t-85 80l-63 62q-148 142 -148 196q0 39 36 67.5t82 28.5q62 0 99 -49q46 -65 151 -164z" />
    <glyph glyph-name="scaron" unicode="&#x161;" horiz-adv-x="997" 
d="M686 815q-41 6 -82 6q-239 0 -239 -65q0 -40 145 -105q240 -111 326 -192t86 -187q0 -156 -130.5 -243.5t-347.5 -87.5q-151 0 -272 53.5t-121 150.5q0 101 119 101q46 0 133 -29q93 -29 135 -29q203 0 203 82q0 51 -139 113q-207 90 -272 136.5t-99.5 106t-34.5 130.5
q0 149 122.5 230t469.5 81q118 0 166.5 -37t48.5 -119q0 -180 -96 -180q-100 0 -121 84zM528 1413q177 136 204.5 153t62.5 17q47 0 80.5 -30t33.5 -68q0 -40 -37 -69t-176.5 -134.5t-179.5 -105.5q-35 0 -60 16t-85 80l-63 62q-148 142 -148 196q0 39 36 67.5t82 28.5
q62 0 99 -49q46 -65 151 -164z" />
    <glyph glyph-name="Tcommaaccent" unicode="&#x162;" horiz-adv-x="1425" 
d="M817 1225q1 -27 5 -86q36 -531 36 -733q0 -29 7 -100q7 -72 7 -101q0 -89 -42.5 -151t-106.5 -62q-60 0 -101.5 39.5t-41.5 93.5q0 11 5 43q5 33 5 43l-58 997l-107 -4q-198 -7 -306.5 21t-108.5 125q0 64 39 103.5t101 39.5l284 -18q76 0 252 11t242 11l313 -6
q32 1 65 0t64.5 -16.5t49.5 -44.5t18 -66q0 -61 -41.5 -102t-93.5 -41l-431 4h-55zM756 -99l-127 43q-65 22 -65 88q0 42 31 72.5t79 30.5q138 0 261.5 -94t123.5 -214q0 -117 -73 -184t-209 -67q-113 0 -205 46.5t-92 116.5q0 82 108 82q30 0 90 -21q59 -22 86 -22
q60 0 60 45q0 54 -68 78z" />
    <glyph glyph-name="tcommaaccent" unicode="&#x163;" horiz-adv-x="965" 
d="M635 801q18 -407 18 -529q0 -157 -4.5 -202.5t-40 -89t-98.5 -43.5q-61 0 -100 36t-39 86v46l6 171q0 139 -19 519q-203 11 -240 26t-55 45t-18 74q0 56 39 94.5t98 38.5q38 0 170 -10q-10 100 -10 205q0 54 40.5 91.5t100.5 37.5q148 0 148 -248l-2 -82q48 8 100 8
q132 0 185 -26.5t53 -110.5q0 -56 -38.5 -94.5t-99.5 -38.5l-100 4q-54 0 -94 -8zM559 -119l-127 43q-65 22 -65 88q0 42 31 72.5t79 30.5q138 0 261.5 -94t123.5 -214q0 -117 -73 -184t-209 -67q-113 0 -205 46.5t-92 116.5q0 82 108 82q30 0 90 -21q59 -22 86 -22
q60 0 60 45q0 54 -68 78z" />
    <glyph glyph-name="Tcaron" unicode="&#x164;" horiz-adv-x="1425" 
d="M817 1225q1 -27 5 -86q36 -531 36 -733q0 -29 7 -100q7 -72 7 -101q0 -89 -42.5 -151t-106.5 -62q-60 0 -101.5 39.5t-41.5 93.5q0 11 5 43q5 33 5 43l-58 997l-107 -4q-198 -7 -306.5 21t-108.5 125q0 64 39 103.5t101 39.5l284 -18q76 0 252 11t242 11l313 -6
q32 1 65 0t64.5 -16.5t49.5 -44.5t18 -66q0 -61 -41.5 -102t-93.5 -41l-431 4h-55zM682 1864q177 136 204.5 153t62.5 17q47 0 80.5 -30t33.5 -68q0 -40 -37 -69t-176.5 -134.5t-179.5 -105.5q-35 0 -60 16t-85 80l-63 62q-148 142 -148 196q0 39 36 67.5t82 28.5
q62 0 99 -49q46 -65 151 -164z" />
    <glyph glyph-name="tcaron" unicode="&#x165;" horiz-adv-x="1028" 
d="M870 1434q-84 52 -84 131q0 54 38 91.5t100 37.5q141 0 141 -166q0 -107 -59 -220.5t-140 -113.5q-35 0 -57.5 22.5t-22.5 57.5q0 38 64 119q14 20 20 41zM614 801q19 -388 19 -529q0 -157 -4.5 -202.5t-40 -89t-99.5 -43.5q-62 0 -100.5 36.5t-38.5 85.5v46l6 171
q0 121 -18 519q-203 11 -240 26t-55 45t-18 74q0 56 39 94.5t98 38.5q38 0 170 -10q-10 100 -10 205q0 54 40.5 91.5t100.5 37.5q147 0 147 -248l-2 -82q48 8 101 8q130 0 183.5 -25.5t53.5 -111.5q0 -58 -39 -95.5t-98 -37.5l-100 4q-55 0 -95 -8z" />
    <glyph glyph-name="Tbar" unicode="&#x166;" horiz-adv-x="1425" 
d="M811 1221q6 -168 20 -340q146 10 207 10q199 0 199 -109q0 -47 -26.5 -71t-56 -26.5t-128.5 -2.5q-60 0 -178 -10q10 -152 10 -266q0 -34 6 -101q8 -54 8 -100q0 -87 -40.5 -150t-108.5 -63q-58 0 -100.5 38.5t-42.5 94.5q0 11 5 43q5 33 5 43q0 63 -8 137q-7 112 -7 141
q0 77 -6 173l-28 2h-209q-59 0 -92 29t-33 75q0 47 35.5 75.5t89.5 28.5h221l-27 345h-51q-191 0 -328 23t-137 138q0 54 39 96t99 42q16 0 167 -19q100 -10 160 -10h76q46 0 106 2l106 2q120 2 304 -10q169 -11 229 -11t101 -39.5t41 -95.5t-41.5 -96.5t-100.5 -40.5
q-78 0 -243 12q-174 11 -242 11z" />
    <glyph glyph-name="tbar" unicode="&#x167;" horiz-adv-x="965" 
d="M338 795q-222 7 -267.5 46t-45.5 99q0 57 39 95t98 38q38 0 170 -10q-10 90 -10 205q0 53 41.5 91t99.5 38q147 0 147 -250v-25q0 -20 -2 -55q47 8 123 8q139 0 177 -37.5t38 -99.5q0 -56 -27.5 -87t-64.5 -36.5t-145 -5.5q-55 0 -95 -8l13 -264q11 2 30 4q19 1 48 6
q42 8 79 8q47 0 81 -28t34 -70q0 -113 -266 -121v-84l2 -48q11 -267 -146 -267q-57 0 -98 35.5t-41 86.5v44l6 173l-2 72q-182 21 -214.5 34t-49 35t-16.5 52q0 44 33 71t86 27q17 0 155 -16z" />
    <glyph glyph-name="Utilde" unicode="&#x168;" horiz-adv-x="1509" 
d="M88 1036v49q0 30 2 68l2 67q3 113 15.5 164.5t44.5 91.5t77 40q55 0 99.5 -37.5t44.5 -98.5v-72q0 -43 -2 -100v-174q0 -47 -6 -145q-5 -120 -5 -144q0 -299 90 -421.5t269 -122.5q187 0 295 242t108 868q0 63 43 119.5t119 56.5q61 0 94 -39t33 -92q0 -800 -184.5 -1114
t-507.5 -314q-641 0 -641 817q0 50 4 146q6 96 6 145zM1012 1635q-119 0 -185 28.5t-135 110.5q-33 43 -67 43q-55 0 -99 -74q-39 -71 -108 -71q-49 0 -84 26.5t-35 65.5q0 60 85.5 150.5t240.5 90.5q95 0 142 -27.5t124 -111.5q40 -43 90 -43q30 0 45.5 13t48.5 71
q22 57 45.5 73.5t71.5 16.5q47 0 81 -26.5t34 -67.5q0 -43 -75 -155.5t-220 -112.5z" />
    <glyph glyph-name="utilde" unicode="&#x169;" horiz-adv-x="1065" 
d="M979 377l2 -119q2 -136 5 -182q5 -83 -39.5 -119.5t-98.5 -36.5q-83 0 -123 76q-127 -47 -264 -47q-93 0 -167.5 26t-118 70t-62 89.5t-39.5 203.5t-21 317q0 107 20.5 239t61 152.5t82.5 20.5q60 0 100.5 -37t40.5 -92t-14 -139t-14 -144q0 -288 37 -419q42 -23 94 -23
q113 0 244 31v454q2 155 14 231t45.5 104t91.5 28q60 0 100.5 -37t40.5 -89q0 -4 -4 -83l-12 -246l-2 -28v-201zM764 1184q-119 0 -185 28.5t-135 110.5q-33 43 -67 43q-55 0 -99 -74q-39 -71 -108 -71q-49 0 -84 26.5t-35 65.5q0 60 85.5 150.5t240.5 90.5q95 0 142 -27.5
t124 -111.5q40 -43 90 -43q30 0 45.5 13t48.5 71q22 57 45.5 73.5t71.5 16.5q47 0 81 -26.5t34 -67.5q0 -43 -75 -155.5t-220 -112.5z" />
    <glyph glyph-name="Umacron" unicode="&#x16a;" horiz-adv-x="1509" 
d="M88 1036v49q0 30 2 68l2 67q3 113 15.5 164.5t44.5 91.5t77 40q55 0 99.5 -37.5t44.5 -98.5v-72q0 -43 -2 -100v-174q0 -47 -6 -145q-5 -120 -5 -144q0 -299 90 -421.5t269 -122.5q187 0 295 242t108 868q0 63 43 119.5t119 56.5q61 0 94 -39t33 -92q0 -800 -184.5 -1114
t-507.5 -314q-641 0 -641 817q0 50 4 146q6 96 6 145zM1020 1598h-271q-36 0 -85 2l-85 2q-96 2 -123.5 9t-57 36.5t-29.5 71.5q0 116 215 116q40 0 116 -4l70 -2h172l71 2q208 6 208 -114q0 -119 -201 -119z" />
    <glyph glyph-name="umacron" unicode="&#x16b;" horiz-adv-x="1065" 
d="M979 377l2 -119q2 -136 5 -182q5 -83 -39.5 -119.5t-98.5 -36.5q-83 0 -123 76q-127 -47 -264 -47q-93 0 -167.5 26t-118 70t-62 89.5t-39.5 203.5t-21 317q0 107 20.5 239t61 152.5t82.5 20.5q60 0 100.5 -37t40.5 -92t-14 -139t-14 -144q0 -288 37 -419q42 -23 94 -23
q113 0 244 31v454q2 155 14 231t45.5 104t91.5 28q60 0 100.5 -37t40.5 -89q0 -4 -4 -83l-12 -246l-2 -28v-201zM807 1147h-271q-36 0 -85 2l-85 2q-96 2 -123.5 9t-57 36.5t-29.5 71.5q0 116 215 116q40 0 116 -4l70 -2h172l71 2q208 6 208 -114q0 -119 -201 -119z" />
    <glyph glyph-name="Ubreve" unicode="&#x16c;" horiz-adv-x="1509" 
d="M88 1036v49q0 30 2 68l2 67q3 113 15.5 164.5t44.5 91.5t77 40q55 0 99.5 -37.5t44.5 -98.5v-72q0 -43 -2 -100v-174q0 -47 -6 -145q-5 -120 -5 -144q0 -299 90 -421.5t269 -122.5q187 0 295 242t108 868q0 63 43 119.5t119 56.5q61 0 94 -39t33 -92q0 -800 -184.5 -1114
t-507.5 -314q-641 0 -641 817q0 50 4 146q6 96 6 145zM731 1631q-160 0 -279.5 91.5t-119.5 221.5q0 42 32.5 69t82.5 27q49 0 81.5 -27t32.5 -69q0 -46 51.5 -84.5t118.5 -38.5q263 0 297 111q29 78 113 78q51 0 83 -28t32 -71q0 -122 -139.5 -201t-385.5 -79z" />
    <glyph glyph-name="ubreve" unicode="&#x16d;" horiz-adv-x="1065" 
d="M979 377l2 -119q2 -136 5 -182q5 -83 -39.5 -119.5t-98.5 -36.5q-83 0 -123 76q-127 -47 -264 -47q-93 0 -167.5 26t-118 70t-62 89.5t-39.5 203.5t-21 317q0 107 20.5 239t61 152.5t82.5 20.5q60 0 100.5 -37t40.5 -92t-14 -139t-14 -144q0 -288 37 -419q42 -23 94 -23
q113 0 244 31v454q2 155 14 231t45.5 104t91.5 28q60 0 100.5 -37t40.5 -89q0 -4 -4 -83l-12 -246l-2 -28v-201zM493 1180q-160 0 -279.5 91.5t-119.5 221.5q0 42 32.5 69t82.5 27q49 0 81.5 -27t32.5 -69q0 -46 51.5 -84.5t118.5 -38.5q263 0 297 111q29 78 113 78
q51 0 83 -28t32 -71q0 -122 -139.5 -201t-385.5 -79z" />
    <glyph glyph-name="Uring" unicode="&#x16e;" horiz-adv-x="1509" 
d="M88 1036v49q0 30 2 68l2 67q3 113 15.5 164.5t44.5 91.5t77 40q55 0 99.5 -37.5t44.5 -98.5v-72q0 -43 -2 -100v-174q0 -47 -6 -145q-5 -120 -5 -144q0 -299 90 -421.5t269 -122.5q187 0 295 242t108 868q0 63 43 119.5t119 56.5q61 0 94 -39t33 -92q0 -800 -184.5 -1114
t-507.5 -314q-641 0 -641 817q0 50 4 146q6 96 6 145zM729 1637q-142 0 -244 77.5t-102 188.5q0 141 113 223t291 82q146 0 248 -76.5t102 -193.5q0 -146 -108 -223.5t-300 -77.5zM613 1906q0 -27 51.5 -49t107.5 -22q136 0 136 103q0 30 -34.5 49.5t-86.5 19.5
q-174 0 -174 -101z" />
    <glyph glyph-name="uring" unicode="&#x16f;" horiz-adv-x="1065" 
d="M979 377l2 -119q2 -136 5 -182q5 -83 -39.5 -119.5t-98.5 -36.5q-83 0 -123 76q-127 -47 -264 -47q-93 0 -167.5 26t-118 70t-62 89.5t-39.5 203.5t-21 317q0 107 20.5 239t61 152.5t82.5 20.5q60 0 100.5 -37t40.5 -92t-14 -139t-14 -144q0 -288 37 -419q42 -23 94 -23
q113 0 244 31v454q2 155 14 231t45.5 104t91.5 28q60 0 100.5 -37t40.5 -89q0 -4 -4 -83l-12 -246l-2 -28v-201zM512 1186q-142 0 -244 77.5t-102 188.5q0 141 113 223t291 82q146 0 248 -76.5t102 -193.5q0 -146 -108 -223.5t-300 -77.5zM396 1455q0 -27 51.5 -49
t107.5 -22q136 0 136 103q0 30 -34.5 49.5t-86.5 19.5q-174 0 -174 -101z" />
    <glyph glyph-name="Uhungarumlaut" unicode="&#x170;" horiz-adv-x="1509" 
d="M88 1036v49q0 30 2 68l2 67q3 113 15.5 164.5t44.5 91.5t77 40q55 0 99.5 -37.5t44.5 -98.5v-72q0 -43 -2 -100v-174q0 -47 -6 -145q-5 -120 -5 -144q0 -299 90 -421.5t269 -122.5q187 0 295 242t108 868q0 63 43 119.5t119 56.5q61 0 94 -39t33 -92q0 -800 -184.5 -1114
t-507.5 -314q-641 0 -641 817q0 50 4 146q6 96 6 145zM506 1635q-46 0 -81.5 28t-35.5 68q0 42 98 125l159 137q61 53 112 53q49 0 82.5 -29.5t33.5 -68.5q0 -33 -39.5 -72t-113.5 -98q-94 -73 -127 -106q-37 -37 -88 -37zM1114 1721q-110 -86 -160 -86q-47 0 -80.5 30
t-33.5 68q0 42 69 94l163 123q95 70 136 70q47 0 81 -30t34 -69q0 -44 -51 -77z" />
    <glyph glyph-name="uhungarumlaut" unicode="&#x171;" horiz-adv-x="1065" 
d="M979 377l2 -119q2 -136 5 -182q5 -83 -39.5 -119.5t-98.5 -36.5q-83 0 -123 76q-127 -47 -264 -47q-93 0 -167.5 26t-118 70t-62 89.5t-39.5 203.5t-21 317q0 107 20.5 239t61 152.5t82.5 20.5q60 0 100.5 -37t40.5 -92t-14 -139t-14 -144q0 -288 37 -419q42 -23 94 -23
q113 0 244 31v454q2 155 14 231t45.5 104t91.5 28q60 0 100.5 -37t40.5 -89q0 -4 -4 -83l-12 -246l-2 -28v-201zM297 1184q-46 0 -81.5 28t-35.5 68q0 42 98 125l159 137q61 53 112 53q49 0 82.5 -29.5t33.5 -68.5q0 -33 -39.5 -72t-113.5 -98q-94 -73 -127 -106
q-37 -37 -88 -37zM905 1270q-110 -86 -160 -86q-47 0 -80.5 30t-33.5 68q0 42 69 94l163 123q95 70 136 70q47 0 81 -30t34 -69q0 -44 -51 -77z" />
    <glyph glyph-name="Uogonek" unicode="&#x172;" horiz-adv-x="1509" 
d="M88 1036v49q0 30 2 68l2 67q3 113 15.5 164.5t44.5 91.5t77 40q55 0 99.5 -37.5t44.5 -98.5v-72q0 -43 -2 -100v-174q0 -47 -6 -145q-5 -120 -5 -144q0 -299 90 -421.5t269 -122.5q187 0 295 242t108 868q0 63 43 119.5t119 56.5q61 0 94 -39t33 -92q0 -800 -184.5 -1114
t-507.5 -314q-641 0 -641 817q0 50 4 146q6 96 6 145zM567 -244q0 142 88 239t168 97q46 0 79.5 -30t33.5 -70q0 -57 -76 -90q-33 -17 -53.5 -59t-20.5 -81q0 -54 31 -91.5t76 -37.5q71 0 137 29q28 12 57 12q47 0 80 -29.5t33 -72.5q0 -59 -109 -98t-217 -39
q-140 0 -223.5 103t-83.5 218z" />
    <glyph glyph-name="uogonek" unicode="&#x173;" horiz-adv-x="1065" 
d="M979 377l2 -119q2 -136 5 -182q5 -83 -39.5 -119.5t-98.5 -36.5q-83 0 -123 76q-127 -47 -264 -47q-93 0 -167.5 26t-118 70t-62 89.5t-39.5 203.5t-21 317q0 107 20.5 239t61 152.5t82.5 20.5q60 0 100.5 -37t40.5 -92t-14 -139t-14 -144q0 -288 37 -419q42 -23 94 -23
q113 0 244 31v454q2 155 14 231t45.5 104t91.5 28q60 0 100.5 -37t40.5 -89q0 -4 -4 -83l-12 -246l-2 -28v-201zM618 -244q0 142 88 239t168 97q46 0 79.5 -30t33.5 -70q0 -57 -76 -90q-33 -17 -53.5 -59t-20.5 -81q0 -54 31 -91.5t76 -37.5q71 0 137 29q28 12 57 12
q47 0 80 -29.5t33 -72.5q0 -59 -109 -98t-217 -39q-140 0 -223.5 103t-83.5 218z" />
    <glyph glyph-name="Wcircumflex" unicode="&#x174;" horiz-adv-x="2130" 
d="M1026 1001q-10 -34 -113 -326q-81 -229 -168 -552q11 -22 11 -47q0 -56 -48 -94.5t-114 -38.5q-74 0 -122 37.5t-52 109.5l-33 119l-80 352q-33 144 -93 331.5t-155 457.5q-10 24 -10 49q0 54 42.5 90.5t103.5 36.5q66 0 113 -53.5t121.5 -319t174.5 -707.5q33 85 78 255
q135 512 222 654t165 142q79 0 124.5 -70t71.5 -291q43 -358 142 -792q32 71 121 308q84 225 131 339q54 161 86 287q61 248 201 248q61 0 101 -38t40 -97q0 -21 -38 -117.5t-77 -219t-196 -472.5l-183 -426q-61 -165 -105 -208.5t-114 -43.5q-56 0 -101 29.5t-54 66
t-27.5 86.5t-33 110t-60.5 360zM1124 1872q-242 -256 -329 -256q-54 0 -92.5 35.5t-38.5 79.5q0 45 43 82q89 79 303 291q40 37 90 37q47 0 110 -36.5t167.5 -136.5t147 -136.5t42.5 -80.5q0 -46 -39.5 -80t-93.5 -34q-56 0 -100.5 44.5t-209.5 190.5z" />
    <glyph glyph-name="wcircumflex" unicode="&#x175;" horiz-adv-x="1401" 
d="M682 610q-24 -53 -93 -248q-104 -292 -149 -365t-106 -73q-58 0 -121 116.5t-119.5 450t-56.5 422.5q0 54 40.5 90.5t98.5 36.5q54 0 90 -48t56 -220q10 -111 55 -395q101 278 180 530q40 129 154 129q77 0 113.5 -64.5t84.5 -344.5q31 -184 56 -305l151 597
q33 119 125 119q57 0 101 -37t44 -92q0 -18 -111 -404t-177 -486.5t-154 -100.5q-163 0 -262 692zM725 1421q-242 -256 -329 -256q-54 0 -92.5 35.5t-38.5 79.5q0 45 43 82q89 79 303 291q40 37 90 37q47 0 110 -36.5t167.5 -136.5t147 -136.5t42.5 -80.5q0 -46 -39.5 -80
t-93.5 -34q-56 0 -100.5 44.5t-209.5 190.5z" />
    <glyph glyph-name="Ycircumflex" unicode="&#x176;" horiz-adv-x="1300" 
d="M547 477q-107 157 -316 485l-225 354q-16 27 -16 70q0 57 42 96.5t99 39.5q81 0 121 -68l248 -412q135 -224 182 -282q203 408 309 672q41 90 131 90q58 0 101 -40.5t43 -95.5q0 -27 -60 -151q-29 -60 -205 -455q-128 -296 -231 -485l-136 -248q-31 -59 -69 -88t-84 -29
q-58 0 -100.5 37.5t-42.5 98.5q0 49 209 411zM655 1872q-242 -256 -329 -256q-54 0 -92.5 35.5t-38.5 79.5q0 45 43 82q89 79 303 291q40 37 90 37q47 0 110 -36.5t167.5 -136.5t147 -136.5t42.5 -80.5q0 -46 -39.5 -80t-93.5 -34q-56 0 -100.5 44.5t-209.5 190.5z" />
    <glyph glyph-name="ycircumflex" unicode="&#x177;" horiz-adv-x="1133" 
d="M430 102q-76 154 -209 392.5t-163 284.5q-52 76 -52 122q0 53 43 95t98 42q44 0 78 -23t137 -189.5t220 -405.5q209 460 263.5 540t123.5 80q56 0 99.5 -38.5t43.5 -92.5q0 -21 -8.5 -45t-147.5 -310l-339 -703q-39 -87 -89 -228q-49 -139 -77 -171t-89 -32
q-58 0 -100.5 38.5t-42.5 92.5q0 95 211 551zM585 1421q-242 -256 -329 -256q-54 0 -92.5 35.5t-38.5 79.5q0 45 43 82q89 79 303 291q40 37 90 37q47 0 110 -36.5t167.5 -136.5t147 -136.5t42.5 -80.5q0 -46 -39.5 -80t-93.5 -34q-56 0 -100.5 44.5t-209.5 190.5z" />
    <glyph glyph-name="Ydieresis" unicode="&#x178;" horiz-adv-x="1300" 
d="M547 477q-107 157 -316 485l-225 354q-16 27 -16 70q0 57 42 96.5t99 39.5q81 0 121 -68l248 -412q135 -224 182 -282q203 408 309 672q41 90 131 90q58 0 101 -40.5t43 -95.5q0 -27 -60 -151q-29 -60 -205 -455q-128 -296 -231 -485l-136 -248q-31 -59 -69 -88t-84 -29
q-58 0 -100.5 37.5t-42.5 98.5q0 49 209 411zM256 1762q0 46 58 87.5t116 41.5q192 0 192 -146q0 -49 -66 -88t-114 -39q-186 0 -186 144zM700 1747q0 140 207 140q55 0 111.5 -39t56.5 -95q0 -62 -58.5 -98.5t-144.5 -36.5q-64 0 -118 38t-54 91z" />
    <glyph glyph-name="Zacute" unicode="&#x179;" horiz-adv-x="1419" 
d="M381 197q531 22 700 22q185 0 252.5 -29t67.5 -96q0 -65 -42.5 -101t-105.5 -36q-30 0 -88 4l-51 2l-948 -14q-71 0 -112.5 37.5t-41.5 97.5q0 95 118.5 247.5t338 447t416.5 470.5q-158 -10 -240 -10h-403q-93 0 -120 5t-58 39.5t-31 88.5q0 137 203 137q94 0 204 -8
t207 -8h96l365 6q299 0 299 -129q0 -90 -133 -176l-127 -84q-58 -39 -111 -89.5t-111 -115t-112 -132.5t-184 -242zM663 1639q-51 0 -91 34t-40 78q0 39 51 87t159 163t193 115q52 0 91 -34.5t39 -80.5q0 -49 -54 -88q-54 -35 -131 -121q-137 -153 -217 -153z" />
    <glyph glyph-name="zacute" unicode="&#x17a;" horiz-adv-x="1102" 
d="M549 227l55 2q81 3 162 -14q67 -14 117 -14q61 0 100 -38.5t39 -94.5q0 -58 -40.5 -94.5t-98.5 -36.5q-52 0 -119 14q-66 14 -115 14q-229 0 -418 -37q-27 -6 -45 -6q-55 0 -96 32.5t-41 86.5q0 65 64 117q247 210 520 616q-62 -4 -119 -4q-231 0 -331.5 27.5
t-100.5 126.5q0 55 38.5 94t94.5 39q55 0 150 -13q102 -10 149 -10q94 0 203 8q152 11 205 11q125 0 125 -103q0 -91 -86 -186q-78 -90 -203 -258zM522 1188q-51 0 -91 34t-40 78q0 39 51 87t159 163t193 115q52 0 91 -34.5t39 -80.5q0 -49 -54 -88q-54 -35 -131 -121
q-137 -153 -217 -153z" />
    <glyph glyph-name="Zdotaccent" unicode="&#x17b;" horiz-adv-x="1419" 
d="M381 197q531 22 700 22q185 0 252.5 -29t67.5 -96q0 -65 -42.5 -101t-105.5 -36q-30 0 -88 4l-51 2l-948 -14q-71 0 -112.5 37.5t-41.5 97.5q0 95 118.5 247.5t338 447t416.5 470.5q-158 -10 -240 -10h-403q-93 0 -120 5t-58 39.5t-31 88.5q0 137 203 137q94 0 204 -8
t207 -8h96l365 6q299 0 299 -129q0 -90 -133 -176l-127 -84q-58 -39 -111 -89.5t-111 -115t-112 -132.5t-184 -242zM585 1758q0 59 48.5 98t101.5 39q44 0 109 -52t65 -110q0 -63 -49 -101t-98 -38q-51 0 -114 53.5t-63 110.5z" />
    <glyph glyph-name="zdotaccent" unicode="&#x17c;" horiz-adv-x="1102" 
d="M549 227l55 2q81 3 162 -14q67 -14 117 -14q61 0 100 -38.5t39 -94.5q0 -58 -40.5 -94.5t-98.5 -36.5q-52 0 -119 14q-66 14 -115 14q-229 0 -418 -37q-27 -6 -45 -6q-55 0 -96 32.5t-41 86.5q0 65 64 117q247 210 520 616q-62 -4 -119 -4q-231 0 -331.5 27.5
t-100.5 126.5q0 55 38.5 94t94.5 39q55 0 150 -13q102 -10 149 -10q94 0 203 8q152 11 205 11q125 0 125 -103q0 -91 -86 -186q-78 -90 -203 -258zM466 1307q0 59 48.5 98t101.5 39q44 0 109 -52t65 -110q0 -63 -49 -101t-98 -38q-51 0 -114 53.5t-63 110.5z" />
    <glyph glyph-name="Zcaron" unicode="&#x17d;" horiz-adv-x="1419" 
d="M381 197q531 22 700 22q185 0 252.5 -29t67.5 -96q0 -65 -42.5 -101t-105.5 -36q-30 0 -88 4l-51 2l-948 -14q-71 0 -112.5 37.5t-41.5 97.5q0 95 118.5 247.5t338 447t416.5 470.5q-158 -10 -240 -10h-403q-93 0 -120 5t-58 39.5t-31 88.5q0 137 203 137q94 0 204 -8
t207 -8h96l365 6q299 0 299 -129q0 -90 -133 -176l-127 -84q-58 -39 -111 -89.5t-111 -115t-112 -132.5t-184 -242zM768 1962q177 136 204.5 153t62.5 17q47 0 80.5 -30t33.5 -68q0 -40 -37 -69t-176.5 -134.5t-179.5 -105.5q-35 0 -60 16t-85 80l-63 62q-148 142 -148 196
q0 39 36 67.5t82 28.5q62 0 99 -49q46 -65 151 -164z" />
    <glyph glyph-name="zcaron" unicode="&#x17e;" horiz-adv-x="1102" 
d="M549 227l55 2q81 3 162 -14q67 -14 117 -14q61 0 100 -38.5t39 -94.5q0 -58 -40.5 -94.5t-98.5 -36.5q-52 0 -119 14q-66 14 -115 14q-229 0 -418 -37q-27 -6 -45 -6q-55 0 -96 32.5t-41 86.5q0 65 64 117q247 210 520 616q-62 -4 -119 -4q-231 0 -331.5 27.5
t-100.5 126.5q0 55 38.5 94t94.5 39q55 0 150 -13q102 -10 149 -10q94 0 203 8q152 11 205 11q125 0 125 -103q0 -91 -86 -186q-78 -90 -203 -258zM589 1413q177 136 204.5 153t62.5 17q47 0 80.5 -30t33.5 -68q0 -40 -37 -69t-176.5 -134.5t-179.5 -105.5q-35 0 -60 16
t-85 80l-63 62q-148 142 -148 196q0 39 36 67.5t82 28.5q62 0 99 -49q46 -65 151 -164z" />
    <glyph glyph-name="longs" unicode="&#x17f;" horiz-adv-x="584" 
d="M387 594q0 -67 4 -193t4 -190q0 -254 -48 -312.5t-105 -58.5t-98.5 37t-41.5 90q0 38 11 144q12 97 12 145l8 807q0 234 129.5 385t364.5 151q182 0 182 -131t-170 -131q-233 0 -233 -282q0 -58 -11 -232q-8 -123 -8 -229z" />
    <glyph glyph-name="florin" unicode="&#x192;" horiz-adv-x="1206" 
d="M752 877q79 8 151 8q176 0 176 -111q0 -56 -24 -90.5t-66.5 -46.5t-195.5 -12q-30 0 -111 -9q-7 -24 -68 -342q-32 -167 -84 -303t-199.5 -233.5t-271.5 -97.5q-55 0 -92 38.5t-37 92.5q0 97 103 123q106 29 167.5 75t95.5 144t39 129t68 354q-52 -4 -94 -4
q-123 0 -123 106q0 70 52.5 113t236.5 47q119 429 268.5 566t354.5 137q162 0 162 -105q0 -153 -191 -153q-211 0 -317 -426z" />
    <glyph glyph-name="Aringacute" unicode="&#x1fa;" horiz-adv-x="1497" 
d="M999 428q-78 -10 -241 -22q-168 -11 -242 -25q-122 -273 -165 -338.5t-118 -65.5q-58 0 -100.5 39t-42.5 95q0 51 148 346q-13 23 -13 53q0 51 97 80q181 311 377.5 600t246.5 289q110 0 148 -133q41 -248 122 -599l88 -380q9 -30 52 -134q37 -88 37 -129q0 -57 -43 -96
t-101 -39q-125 0 -250 459zM877 995l-215 -364q46 10 141 16q110 6 139 10q-16 98 -65 338zM940 1280q-142 0 -244 77.5t-102 188.5q0 141 113 223t291 82q146 0 248 -76.5t102 -193.5q0 -146 -108 -223.5t-300 -77.5zM824 1549q0 -27 51.5 -49t107.5 -22q136 0 136 103
q0 30 -34.5 49.5t-86.5 19.5q-174 0 -174 -101zM921 1780q-51 0 -91 34t-40 78q0 39 51 87t159 163t193 115q52 0 91 -34.5t39 -80.5q0 -49 -54 -88q-54 -35 -131 -121q-137 -153 -217 -153z" />
    <glyph glyph-name="aringacute" unicode="&#x1fb;" horiz-adv-x="1139" 
d="M819 35q-185 -90 -280 -90q-484 0 -484 516q0 239 178 411t426 172q103 0 237 -61.5t134 -142.5q0 -36 -22 -64q-21 -79 -21 -241q0 -220 41 -306q72 -155 72 -172q0 -52 -40 -87.5t-95 -35.5q-45 0 -146 101zM735 786q-35 19 -61 19q-139 0 -239.5 -106t-100.5 -246
q0 -271 190 -271q126 0 224 82q-31 231 -31 357q0 84 18 165zM557 920q-142 0 -244 77.5t-102 188.5q0 141 113 223t291 82q146 0 248 -76.5t102 -193.5q0 -146 -108 -223.5t-300 -77.5zM441 1189q0 -27 51.5 -49t107.5 -22q136 0 136 103q0 30 -34.5 49.5t-86.5 19.5
q-174 0 -174 -101zM629 1548q-51 0 -91 34t-40 78q0 39 51 87t159 163t193 115q52 0 91 -34.5t39 -80.5q0 -49 -54 -88q-54 -35 -131 -121q-137 -153 -217 -153z" />
    <glyph glyph-name="AEacute" unicode="&#x1fc;" horiz-adv-x="2226" 
d="M1417 1300q4 -40 4 -71q0 -147 -14 -326q16 0 391 37q193 21 242 21q61 0 102 -39t41 -99q0 -53 -27.5 -86t-61 -41t-250.5 -26l-455 -39q-7 -96 -7 -205q0 -214 27 -226t123 -12h77q47 0 219 6q103 3 169 11q75 9 123.5 -30t48.5 -105q0 -72 -64.5 -114t-275.5 -42h-219
q-297 0 -401.5 97.5t-104.5 414.5q0 100 6 211q-128 -13 -481 -39q-83 -109 -246 -352q-111 -172 -146.5 -205t-86.5 -33q-56 0 -100 39.5t-44 91.5q0 30 15 61.5t199.5 299.5t352.5 458l312 375q71 85 180.5 169.5t196.5 84.5q42 0 81 -24q233 59 418 59q496 0 496 -186
q0 -56 -41.5 -98t-97.5 -42q-19 0 -41 7q-182 45 -316 45q-142 0 -344 -48zM1143 1206q-54 -51 -273 -319q142 12 258 16q9 109 15 303zM1503 1688q-51 0 -91 34t-40 78q0 39 51 87t159 163t193 115q52 0 91 -34.5t39 -80.5q0 -49 -54 -88q-54 -35 -131 -121
q-137 -153 -217 -153z" />
    <glyph glyph-name="aeacute" unicode="&#x1fd;" horiz-adv-x="1917" 
d="M815 23q-120 -72 -231 -72q-232 0 -380.5 146.5t-148.5 365.5q0 233 188.5 401t442.5 168q72 0 156.5 -19.5t108 -31t40.5 -53.5q134 116 326 116q199 0 319.5 -72t120.5 -214q0 -91 -69.5 -153t-278.5 -154l-336 -150q95 -104 273 -104q211 0 294 108q36 45 93 45
q49 0 89 -35.5t40 -83.5q0 -113 -182.5 -194.5t-333.5 -81.5q-168 0 -293 61q-20 -59 -115 -59q-91 0 -123 66zM776 784q-49 23 -104 23q-136 0 -238 -108t-102 -248q0 -106 78.5 -190.5t181.5 -84.5t184 70q-20 98 -20 145q0 262 20 393zM1053 553l227 94q113 52 213 119
q-64 37 -176 37q-184 0 -264 -250zM952 1188q-51 0 -91 34t-40 78q0 39 51 87t159 163t193 115q52 0 91 -34.5t39 -80.5q0 -49 -54 -88q-54 -35 -131 -121q-137 -153 -217 -153z" />
    <glyph glyph-name="Oslashacute" unicode="&#x1fe;" horiz-adv-x="1634" 
d="M1530 1227q72 -143 72 -353q0 -369 -222 -653t-565 -284q-253 0 -446 129q-144 -156 -193 -156q-50 0 -91.5 38t-41.5 89q0 46 154 196q-107 153 -107 347q0 360 236 648t579 288q288 0 455 -105q134 131 176 131q56 0 95.5 -36t39.5 -87q0 -42 -72 -123zM399 449
l756 759q-87 35 -250 35q-220 0 -375 -206t-155 -457q0 -67 24 -131zM1307 1010l-738 -744q110 -57 246 -57q220 0 362 206t142 459q0 83 -12 136zM913 1639q-51 0 -91 34t-40 78q0 39 51 87t159 163t193 115q52 0 91 -34.5t39 -80.5q0 -49 -54 -88q-54 -35 -131 -121
q-137 -153 -217 -153z" />
    <glyph glyph-name="oslashacute" unicode="&#x1ff;" horiz-adv-x="1092" 
d="M973 788q53 -120 53 -268q0 -245 -136 -412t-360 -167q-155 0 -274 92q-94 -103 -133 -103q-36 0 -64 27.5t-28 65.5q0 39 100 147q-73 125 -73 299q0 222 146 394.5t400 172.5q153 0 258 -94q13 14 43 51q33 39 70 39t64.5 -26t27.5 -62q0 -47 -94 -156zM686 741
q-40 31 -100 31q-114 0 -181 -98.5t-67 -235.5q0 -27 4 -55zM758 559l-318 -330q43 -24 90 -24q95 0 163 67.5t68 218.5q0 29 -3 68zM514 1188q-51 0 -91 34t-40 78q0 39 51 87t159 163t193 115q52 0 91 -34.5t39 -80.5q0 -49 -54 -88q-54 -35 -131 -121
q-137 -153 -217 -153z" />
    <glyph glyph-name="Scommaaccent" unicode="&#x218;" horiz-adv-x="1419" 
d="M47 268q0 65 40 106.5t103 41.5q90 0 134 -92q57 -123 258 -123q176 0 337.5 76t161.5 167q0 89 -58.5 141.5t-342.5 57.5q-194 4 -343 82.5t-149 215.5q0 198 204 361.5t456 163.5q109 0 265.5 -53t156.5 -121q0 -51 -39 -94t-101 -43q-49 0 -141 21q-87 20 -141 20
q-125 0 -245 -61.5t-120 -135.5q0 -77 146 -98q276 -13 363 -26t183.5 -69.5t148.5 -151t52 -224.5q0 -233 -239.5 -362t-565.5 -129q-244 0 -384 99.5t-140 229.5zM729 -340q-144 24 -144 121q0 53 37.5 88t99.5 35q81 0 136 -49t55 -129q0 -102 -83 -195.5t-165 -93.5
q-35 0 -57.5 22.5t-22.5 57.5q0 25 68 64q74 43 76 79z" />
    <glyph glyph-name="scommaaccent" unicode="&#x219;" horiz-adv-x="997" 
d="M686 815q-41 6 -82 6q-239 0 -239 -65q0 -40 145 -105q240 -111 326 -192t86 -187q0 -156 -130.5 -243.5t-347.5 -87.5q-151 0 -272 53.5t-121 150.5q0 101 119 101q46 0 133 -29q93 -29 135 -29q203 0 203 82q0 51 -139 113q-207 90 -272 136.5t-99.5 106t-34.5 130.5
q0 149 122.5 230t469.5 81q118 0 166.5 -37t48.5 -119q0 -180 -96 -180q-100 0 -121 84zM506 -340q-144 24 -144 121q0 53 37.5 88t99.5 35q81 0 136 -49t55 -129q0 -102 -83 -195.5t-165 -93.5q-35 0 -57.5 22.5t-22.5 57.5q0 25 68 64q74 43 76 79z" />
    <glyph glyph-name="uni0237" unicode="&#x237;" horiz-adv-x="678" 
d="M70 -190l36 -68q37 -70 84 -70q33 0 49.5 55t16.5 87q0 88 -35 553t-35 532q0 65 39.5 114.5t102.5 49.5q43 0 88 -30.5t54 -64.5q2 -7 32 -505t30 -660q0 -153 -100 -277t-242 -124q-153 0 -264.5 138t-111.5 206q0 54 41.5 92.5t101.5 38.5q64 0 113 -67z" />
    <glyph glyph-name="circumflex" unicode="&#x2c6;" horiz-adv-x="1139" 
d="M614 1421q-242 -256 -329 -256q-54 0 -92.5 35.5t-38.5 79.5q0 45 43 82q89 79 303 291q40 37 90 37q47 0 110 -36.5t167.5 -136.5t147 -136.5t42.5 -80.5q0 -46 -39.5 -80t-93.5 -34q-56 0 -100.5 44.5t-209.5 190.5z" />
    <glyph glyph-name="caron" unicode="&#x2c7;" horiz-adv-x="1139" 
d="M612 1413q177 136 204.5 153t62.5 17q47 0 80.5 -30t33.5 -68q0 -40 -37 -69t-176.5 -134.5t-179.5 -105.5q-35 0 -60 16t-85 80l-63 62q-148 142 -148 196q0 39 36 67.5t82 28.5q62 0 99 -49q46 -65 151 -164z" />
    <glyph glyph-name="uni02C9" unicode="&#x2c9;" horiz-adv-x="1139" 
d="M850 1147h-271q-36 0 -85 2l-85 2q-96 2 -123.5 9t-57 36.5t-29.5 71.5q0 116 215 116q40 0 116 -4l70 -2h172l71 2q208 6 208 -114q0 -119 -201 -119z" />
    <glyph glyph-name="breve" unicode="&#x2d8;" horiz-adv-x="1139" 
d="M571 1180q-160 0 -279.5 91.5t-119.5 221.5q0 42 32.5 69t82.5 27q49 0 81.5 -27t32.5 -69q0 -46 51.5 -84.5t118.5 -38.5q263 0 297 111q29 78 113 78q51 0 83 -28t32 -71q0 -122 -139.5 -201t-385.5 -79z" />
    <glyph glyph-name="dotaccent" unicode="&#x2d9;" horiz-adv-x="1139" 
d="M276 1307q0 59 48.5 98t101.5 39q44 0 109 -52t65 -110q0 -63 -49 -101t-98 -38q-51 0 -114 53.5t-63 110.5z" />
    <glyph glyph-name="ring" unicode="&#x2da;" horiz-adv-x="1139" 
d="M569 1186q-142 0 -244 77.5t-102 188.5q0 141 113 223t291 82q146 0 248 -76.5t102 -193.5q0 -146 -108 -223.5t-300 -77.5zM453 1455q0 -27 51.5 -49t107.5 -22q136 0 136 103q0 30 -34.5 49.5t-86.5 19.5q-174 0 -174 -101z" />
    <glyph glyph-name="ogonek" unicode="&#x2db;" horiz-adv-x="1139" 
d="M268 -166q0 142 88 239t168 97q46 0 79.5 -30t33.5 -70q0 -57 -76 -90q-33 -17 -53.5 -59t-20.5 -81q0 -54 31 -91.5t76 -37.5q71 0 137 29q28 12 57 12q47 0 80 -29.5t33 -72.5q0 -59 -109 -98t-217 -39q-140 0 -223.5 103t-83.5 218z" />
    <glyph glyph-name="tilde" unicode="&#x2dc;" horiz-adv-x="1139" 
d="M842 1184q-119 0 -185 28.5t-135 110.5q-33 43 -67 43q-55 0 -99 -74q-39 -71 -108 -71q-49 0 -84 26.5t-35 65.5q0 60 85.5 150.5t240.5 90.5q95 0 142 -27.5t124 -111.5q40 -43 90 -43q30 0 45.5 13t48.5 71q22 57 45.5 73.5t71.5 16.5q47 0 81 -26.5t34 -67.5
q0 -43 -75 -155.5t-220 -112.5z" />
    <glyph glyph-name="hungarumlaut" unicode="&#x2dd;" horiz-adv-x="1139" 
d="M287 1184q-46 0 -81.5 28t-35.5 68q0 42 98 125l159 137q61 53 112 53q49 0 82.5 -29.5t33.5 -68.5q0 -33 -39.5 -72t-113.5 -98q-94 -73 -127 -106q-37 -37 -88 -37zM895 1270q-110 -86 -160 -86q-47 0 -80.5 30t-33.5 68q0 42 69 94l163 123q95 70 136 70q47 0 81 -30
t34 -69q0 -44 -51 -77z" />
    <glyph glyph-name="tonos" unicode="&#x384;" horiz-adv-x="1139" 
d="M539 1149q-50 0 -81.5 39t-31.5 90q0 17 56 167t89 192t88 42q53 0 93.5 -42t40.5 -97q0 -45 -72 -183.5t-106 -173t-76 -34.5z" />
    <glyph glyph-name="dieresistonos" unicode="&#x385;" horiz-adv-x="1264" 
d="M588 1130q-42 0 -72.5 36.5t-30.5 86.5q0 22 55.5 159.5t86 160t65.5 22.5q47 0 85 -37t38 -94q0 -59 -57 -147l-36 -55q-51 -87 -75.5 -109.5t-58.5 -22.5zM848 1286q0 73 34 98t124 25q41 0 80.5 -37t39.5 -80q0 -114 -153 -114q-55 0 -90 30t-35 78zM150 1292
q0 42 39.5 75.5t86.5 33.5q144 0 144 -127q0 -46 -46.5 -75.5t-88.5 -29.5q-135 0 -135 123z" />
    <glyph glyph-name="Alphatonos" unicode="&#x386;" horiz-adv-x="1497" 
d="M999 428q-78 -10 -241 -22q-168 -11 -242 -25q-122 -273 -165 -338.5t-118 -65.5q-58 0 -100.5 39t-42.5 95q0 51 148 346q-13 23 -13 53q0 51 97 80q181 311 377.5 600t246.5 289q110 0 148 -133q41 -248 122 -599l88 -380q9 -30 52 -134q37 -88 37 -129q0 -57 -43 -96
t-101 -39q-125 0 -250 459zM877 995l-215 -364q46 10 141 16q110 6 139 10q-16 98 -65 338zM314 1149q-50 0 -81.5 39t-31.5 90q0 17 56 167t89 192t88 42q53 0 93.5 -42t40.5 -97q0 -45 -72 -183.5t-106 -173t-76 -34.5z" />
    <glyph glyph-name="anoteleia" unicode="&#x387;" horiz-adv-x="889" 
d="M276 715q0 54 49 96.5t115 42.5q72 0 118 -40.5t46 -98.5q0 -54 -49 -94.5t-115 -40.5q-65 0 -114.5 41.5t-49.5 93.5z" />
    <glyph glyph-name="Epsilontonos" unicode="&#x388;" horiz-adv-x="1628" 
d="M756 1284q0 -159 -9 -395q102 8 392 37q190 18 241 18q62 0 103 -38t41 -97q0 -116 -114.5 -131.5t-680.5 -63.5q-6 -126 -6 -204q0 -222 29.5 -230t117.5 -8h79l296 6q12 0 92 10q74 9 122 -29.5t48 -105.5q0 -100 -86 -125.5t-444 -25.5q-335 0 -435 96t-100 412
q0 146 19 401q20 244 20 401q0 35 -10 103q-10 70 -10 104q0 154 141 154q44 0 80 -27q226 60 418 60q171 0 296.5 -28.5t162 -64t36.5 -94.5q0 -52 -39 -94.5t-98 -42.5q-22 0 -43 6q-162 43 -315 43q-159 0 -344 -47zM115 1149q-50 0 -81.5 39t-31.5 90q0 17 56 167
t89 192t88 42q53 0 93.5 -42t40.5 -97q0 -45 -72 -183.5t-106 -173t-76 -34.5z" />
    <glyph glyph-name="Etatonos" unicode="&#x389;" horiz-adv-x="1874" 
d="M1481 625q-185 -9 -772 -121q-3 -68 -15 -228q-10 -138 -10 -229q0 -55 -39.5 -93t-95.5 -38t-95.5 38.5t-39.5 92.5q0 103 16 303q18 199 18 301l13 772q0 55 38.5 93t96.5 38q57 0 96 -38t39 -93q0 -76 -6 -229q-4 -150 -4 -227q0 -25 -6 -97q-6 -65 -6 -102l385 74
q197 38 387 45q4 68 14 360q0 86 53.5 192.5t118.5 106.5q53 0 96 -36.5t43 -92.5q0 -17 -4 -31q-20 -71 -20 -126q0 -29 -6 -86q-5 -72 -5 -87q0 -94 -10 -282t-10 -283q0 -73 10 -217q13 -156 13 -219q0 -53 -39 -91t-99 -38t-101.5 38.5t-41.5 90.5q0 102 -8 217
q-6 147 -6 219v54q0 26 2 49zM115 1149q-50 0 -81.5 39t-31.5 90q0 17 56 167t89 192t88 42q53 0 93.5 -42t40.5 -97q0 -45 -72 -183.5t-106 -173t-76 -34.5z" />
    <glyph glyph-name="Iotatonos" unicode="&#x38a;" horiz-adv-x="1503" 
d="M1057 1210q-15 -185 -15 -489v-449l134 2q79 1 140.5 -0.5t98.5 -41.5t37 -93q0 -55 -40.5 -95t-98.5 -40h-70q-41 0 -98 -2l-99 -2q-160 -3 -268 -18q-125 -19 -196 -19q-60 0 -100 40t-40 95q0 57 40 97.5t100 40.5q80 0 178 14l-2 172q-6 507 20 799l-217 -7
q-55 -2 -98 37t-43 101q0 52 35 89.5t90.5 44.5t310.5 7q130 0 324 -20t229.5 -32.5t55.5 -44.5t20 -81q0 -61 -41.5 -97t-102.5 -36q-50 0 -284 28zM115 1149q-50 0 -81.5 39t-31.5 90q0 17 56 167t89 192t88 42q53 0 93.5 -42t40.5 -97q0 -45 -72 -183.5t-106 -173
t-76 -34.5z" />
    <glyph glyph-name="Omicrontonos" unicode="&#x38c;" horiz-adv-x="1794" 
d="M219 580q0 359 234.5 647.5t580.5 288.5q699 0 699 -642q0 -375 -221.5 -655t-565.5 -280q-305 0 -516 179t-211 462zM504 580q0 -164 129 -266.5t313 -102.5q217 0 359.5 205.5t142.5 457.5q0 202 -88 285.5t-326 83.5q-221 0 -375.5 -206t-154.5 -457zM115 1149
q-50 0 -81.5 39t-31.5 90q0 17 56 167t89 192t88 42q53 0 93.5 -42t40.5 -97q0 -45 -72 -183.5t-106 -173t-76 -34.5z" />
    <glyph glyph-name="Upsilontonos" unicode="&#x38e;" horiz-adv-x="1741" 
d="M987 477q-107 157 -316 485l-225 354q-16 27 -16 70q0 57 42 96.5t99 39.5q81 0 121 -68l248 -412q135 -224 182 -282q203 408 309 672q41 90 131 90q58 0 101 -40.5t43 -95.5q0 -27 -60 -151q-29 -60 -205 -455q-128 -296 -231 -485l-136 -248q-31 -59 -69 -88t-84 -29
q-58 0 -100.5 37.5t-42.5 98.5q0 49 209 411zM115 1149q-50 0 -81.5 39t-31.5 90q0 17 56 167t89 192t88 42q53 0 93.5 -42t40.5 -97q0 -45 -72 -183.5t-106 -173t-76 -34.5z" />
    <glyph glyph-name="Omegatonos" unicode="&#x38f;" horiz-adv-x="1966" 
d="M449 168q-142 315 -164.5 433.5t-22.5 234.5q0 323 311 558.5t672 235.5q285 0 423 -145.5t138 -485.5q0 -455 -315 -837q228 3 339.5 -20.5t111.5 -129.5q0 -54 -39.5 -94.5t-98.5 -40.5q-81 0 -172 8q-161 13 -266 6l-52 -2q-108 -4 -156 62.5t-48 122.5
q0 43 38.5 98.5t209.5 249.5q172 233 172 659q0 153 -64.5 218t-220.5 65q-248 0 -475 -159.5t-227 -368.5q0 -162 55 -312l121 -288q5 -12 45 -74q27 -47 27 -80q0 -68 -29 -106.5t-79 -50t-241 -38t-280 -26.5q-59 0 -98 40t-39 95q0 84 68 114t356 58zM115 1149
q-50 0 -81.5 39t-31.5 90q0 17 56 167t89 192t88 42q53 0 93.5 -42t40.5 -97q0 -45 -72 -183.5t-106 -173t-76 -34.5z" />
    <glyph glyph-name="iotadieresistonos" unicode="&#x390;" horiz-adv-x="698" 
d="M285 1057q147 0 147 -170q0 -44 -4 -90q-4 -44 -4 -90q0 -18 -9 -127q-12 -144 17.5 -245.5t87.5 -101.5q76 0 117 -23t41 -89q0 -85 -29.5 -119.5t-99.5 -34.5q-213 0 -310.5 140.5t-97.5 375.5q0 137 11 287q8 107 8 164q0 52 37.5 87.5t87.5 35.5zM326 1130
q-42 0 -72.5 36.5t-30.5 86.5q0 22 55.5 159.5t86 160t65.5 22.5q47 0 85 -37t38 -94q0 -59 -57 -147l-36 -55q-51 -87 -75.5 -109.5t-58.5 -22.5zM586 1286q0 73 34 98t124 25q41 0 80.5 -37t39.5 -80q0 -114 -153 -114q-55 0 -90 30t-35 78zM-112 1292q0 42 39.5 75.5
t86.5 33.5q144 0 144 -127q0 -46 -46.5 -75.5t-88.5 -29.5q-135 0 -135 123z" />
    <glyph glyph-name="Alpha" unicode="&#x391;" horiz-adv-x="1497" 
d="M999 428q-78 -10 -241 -22q-168 -11 -242 -25q-122 -273 -165 -338.5t-118 -65.5q-58 0 -100.5 39t-42.5 95q0 51 148 346q-13 23 -13 53q0 51 97 80q181 311 377.5 600t246.5 289q110 0 148 -133q41 -248 122 -599l88 -380q9 -30 52 -134q37 -88 37 -129q0 -57 -43 -96
t-101 -39q-125 0 -250 459zM877 995l-215 -364q46 10 141 16q110 6 139 10q-16 98 -65 338z" />
    <glyph glyph-name="Beta" unicode="&#x392;" horiz-adv-x="1290" 
d="M975 764q115 -57 186.5 -160.5t71.5 -193.5q0 -225 -258.5 -341t-679.5 -116q-62 0 -109 49.5t-47 106.5v1060l-6 189q0 111 40 140.5t143.5 51t250.5 21.5q205 0 385.5 -137.5t180.5 -339.5q0 -203 -158 -330zM567 1300h-103q-38 0 -52 -2l2 -213l-2 -208
q65 -10 111 -10q126 0 228.5 54.5t102.5 172.5q0 75 -92.5 140.5t-194.5 65.5zM412 600v-375q546 33 546 174q0 85 -109.5 140t-164.5 55q-90 0 -272 6z" />
    <glyph glyph-name="Gamma" unicode="&#x393;" horiz-adv-x="1128" 
d="M340 1272q9 -164 18 -246q27 -418 27 -983q0 -57 -41.5 -96t-97.5 -39t-98 38.5t-42 96.5q0 149 -2 289l-5 272l-9 254l-29 467v2q0 215 244 215h137l81 2q341 8 473 -37t132 -141q0 -57 -40.5 -97t-96.5 -40q-18 0 -43 6q-146 41 -319 41h-51l-203 -4h-35z" />
    <glyph glyph-name="Delta" unicode="&#x394;" horiz-adv-x="1626" 
d="M831 -37h-92q-54 0 -129 -2l-128 -2q-175 -3 -220 -6q-83 -6 -127 -6q-121 0 -121 106q0 76 289 633l234 559q101 285 156.5 351.5t125.5 66.5q58 0 98 -45.5t117 -224.5l127 -269q436 -913 436 -1044q0 -152 -194 -152q-83 0 -207 15q-187 20 -365 20zM823 1206
q-188 -493 -428 -981q224 4 439 4q251 0 462 -32q-106 276 -473 1009z" />
    <glyph glyph-name="Epsilon" unicode="&#x395;" horiz-adv-x="1280" 
d="M408 1284q0 -159 -9 -395q102 8 392 37q190 18 241 18q62 0 103 -38t41 -97q0 -116 -114.5 -131.5t-680.5 -63.5q-6 -126 -6 -204q0 -222 29.5 -230t117.5 -8h79l296 6q12 0 92 10q74 9 122 -29.5t48 -105.5q0 -100 -86 -125.5t-444 -25.5q-335 0 -435 96t-100 412
q0 146 19 401q20 244 20 401q0 35 -10 103q-10 70 -10 104q0 154 141 154q44 0 80 -27q226 60 418 60q171 0 296.5 -28.5t162 -64t36.5 -94.5q0 -52 -39 -94.5t-98 -42.5q-22 0 -43 6q-162 43 -315 43q-159 0 -344 -47z" />
    <glyph glyph-name="Zeta" unicode="&#x396;" horiz-adv-x="1419" 
d="M381 197q531 22 700 22q185 0 252.5 -29t67.5 -96q0 -65 -42.5 -101t-105.5 -36q-30 0 -88 4l-51 2l-948 -14q-71 0 -112.5 37.5t-41.5 97.5q0 95 118.5 247.5t338 447t416.5 470.5q-158 -10 -240 -10h-403q-93 0 -120 5t-58 39.5t-31 88.5q0 137 203 137q94 0 204 -8
t207 -8h96l365 6q299 0 299 -129q0 -90 -133 -176l-127 -84q-58 -39 -111 -89.5t-111 -115t-112 -132.5t-184 -242z" />
    <glyph glyph-name="Eta" unicode="&#x397;" horiz-adv-x="1573" 
d="M1180 625q-185 -9 -772 -121q-3 -68 -15 -228q-10 -138 -10 -229q0 -55 -39.5 -93t-95.5 -38t-95.5 38.5t-39.5 92.5q0 103 16 303q18 199 18 301l13 772q0 55 38.5 93t96.5 38q57 0 96 -38t39 -93q0 -76 -6 -229q-4 -150 -4 -227q0 -25 -6 -97q-6 -65 -6 -102l385 74
q197 38 387 45q4 68 14 360q0 86 53.5 192.5t118.5 106.5q53 0 96 -36.5t43 -92.5q0 -17 -4 -31q-20 -71 -20 -126q0 -29 -6 -86q-5 -72 -5 -87q0 -94 -10 -282t-10 -283q0 -73 10 -217q13 -156 13 -219q0 -53 -39 -91t-99 -38t-101.5 38.5t-41.5 90.5q0 102 -8 217
q-6 147 -6 219v54q0 26 2 49z" />
    <glyph glyph-name="Theta" unicode="&#x398;" horiz-adv-x="1634" 
d="M786 -61q-303 0 -515 179t-212 462q0 356 234 646t581 290q699 0 699 -642q0 -357 -219 -646t-568 -289zM874 1243q-218 0 -374 -206t-156 -457q0 -165 125 -267t317 -102q213 0 357.5 201t144.5 462q0 201 -87.5 285t-326.5 84zM1028 625q-43 0 -129 4t-129 4l-152 -8
q-57 0 -98 27t-41 75q0 113 217 113q58 0 168 -6q98 -7 164 -7q58 0 98.5 -28t40.5 -74t-40 -73t-99 -27z" />
    <glyph glyph-name="Iota" unicode="&#x399;" horiz-adv-x="1118" 
d="M672 1210q-15 -185 -15 -489v-449l134 2q79 1 140.5 -0.5t98.5 -41.5t37 -93q0 -55 -40.5 -95t-98.5 -40h-70q-41 0 -98 -2l-99 -2q-160 -3 -268 -18q-125 -19 -196 -19q-60 0 -100 40t-40 95q0 57 40 97.5t100 40.5q80 0 178 14l-2 172q-6 507 20 799l-217 -7
q-55 -2 -98 37t-43 101q0 52 35 89.5t90.5 44.5t310.5 7q130 0 324 -20t229.5 -32.5t55.5 -44.5t20 -81q0 -61 -41.5 -97t-102.5 -36q-50 0 -284 28z" />
    <glyph glyph-name="Kappa" unicode="&#x39a;" horiz-adv-x="1251" 
d="M393 23q0 -55 -33.5 -94.5t-93.5 -39.5q-69 0 -113 53.5t-44 118.5q0 220 12 666q14 392 14 668q0 56 41 96.5t100 40.5t99.5 -40.5t40.5 -96.5q0 -61 -23 -486q34 28 518 555q46 52 107 52q57 0 99 -41t42 -97q0 -52 -178 -255t-430 -443q267 -260 376.5 -346
t182.5 -111q107 -33 107 -131q0 -52 -35.5 -94.5t-94.5 -42.5q-83 0 -213.5 73t-478.5 414z" />
    <glyph glyph-name="Lambda" unicode="&#x39b;" horiz-adv-x="1411" 
d="M739 1008q-42 -104 -207 -428q-135 -269 -196 -433q-88 -249 -201 -249q-57 0 -98 40.5t-41 92.5q0 34 24 78q58 94 244 501l222 483q36 77 141 371q39 115 131 115q106 0 129 -141q22 -138 96 -312l137 -303q9 -22 131 -334q75 -191 158 -333q27 -41 27 -76
q0 -53 -43 -93t-99 -40q-36 0 -70 24t-92 122t-126 278l-134 350z" />
    <glyph glyph-name="Mu" unicode="&#x39c;" horiz-adv-x="1808" 
d="M528 893q-119 -521 -161 -817q-41 -142 -152 -142q-56 0 -94.5 39.5t-38.5 102.5q0 166 70 395q49 166 72.5 268t86.5 426q47 218 99.5 286.5t130.5 68.5q100 0 141.5 -108.5t105.5 -485.5q54 -327 105 -498q103 277 211 733l55 230q34 143 168 143q70 0 118 -74t85 -342
q55 -404 151 -731q91 -313 91 -336q0 -54 -44.5 -94.5t-103.5 -40.5q-109 0 -162 158l-55 241q-15 67 -104 619q-12 -33 -27 -92q-78 -308 -123 -430l-68 -185q-60 -164 -100.5 -218t-116.5 -54q-85 0 -135 111l-55 186q-36 122 -150 641z" />
    <glyph glyph-name="Nu" unicode="&#x39d;" horiz-adv-x="1665" 
d="M391 1012q-6 -261 -6 -320v-100l6 -377q0 -295 -143 -295q-71 0 -113.5 41t-42.5 102q0 39 6 119q6 84 6 123l9 354q0 65 -4 191q-3 106 -3 178t-12 191q-10 120 -10 178t50.5 105.5t117.5 47.5q73 0 164 -127q454 -648 897 -1056v151q0 427 -5 549.5t-18 222.5
q-10 70 -10 111q0 137 145 137q164 0 164 -502v-46l-8 -744q0 -101 -26.5 -194t-137.5 -93q-54 0 -137.5 63t-332 327t-556.5 663z" />
    <glyph glyph-name="Xi" unicode="&#x39e;" horiz-adv-x="1475" 
d="M449 1546q127 0 387 -4l226 -2h151q68 1 106.5 -37.5t38.5 -95.5q0 -58 -39 -95.5t-96 -37.5h-212l-804 6q-60 0 -96.5 36.5t-36.5 96.5t36.5 96.5t96.5 36.5h242zM1137 778q0 -59 -39 -97t-97 -38q-240 0 -435 -9.5t-195 -10.5h-3q-13 0 -21.5 1.5l-17 3t-16 4.5
t-14.5 6t-13.5 7.5t-14.5 11t-16 16.5t-14 23t-9 28t-3 32q0 131 166 137q37 1 140 6q348 12 466 12q60 0 98 -36.5t38 -96.5zM1364 98q0 -54 -36.5 -95.5t-92.5 -41.5q-16 0 -116 10q-90 9 -494 -16q-293 -21 -463 -21q-60 0 -97.5 38t-37.5 98q0 56 37.5 95.5t97.5 39.5
q174 0 467 18q281 19 469 19q156 0 211 -36.5t55 -107.5z" />
    <glyph glyph-name="Omicron" unicode="&#x39f;" horiz-adv-x="1634" 
d="M59 580q0 359 234.5 647.5t580.5 288.5q699 0 699 -642q0 -375 -221.5 -655t-565.5 -280q-305 0 -516 179t-211 462zM344 580q0 -164 129 -266.5t313 -102.5q217 0 359.5 205.5t142.5 457.5q0 202 -88 285.5t-326 83.5q-221 0 -375.5 -206t-154.5 -457z" />
    <glyph glyph-name="Pi" unicode="&#x3a0;" horiz-adv-x="1538" 
d="M1128 1292q-30 -8 -233 -8q-303 0 -481 8q7 -78 16.5 -336.5t9.5 -310.5q0 -49 -6 -131q-8 -74 -8 -131v-203q0 -130 -26.5 -185.5t-114.5 -55.5q-58 0 -99 36t-41 95v197q0 140 11 249q6 82 6 129l-20 542q-9 99 -9 161q0 125 48.5 172t150.5 47q85 0 166 -6
q80 -7 149 -7h510q158 0 204 -57t46 -211q0 -72 -5 -171t-5 -226q0 -50 10 -260q10 -212 10 -367q0 -45 8 -96q11 -68 11 -94q0 -57 -41.5 -94t-100.5 -37q-56 0 -94.5 28.5t-49.5 146t-11 146.5q0 136 -11 356q-10 206 -10 271q0 261 10 403z" />
    <glyph glyph-name="Rho" unicode="&#x3a1;" horiz-adv-x="1092" 
d="M330 565q-6 -138 -6 -461q0 -54 -37.5 -91.5t-93.5 -37.5q-57 0 -95.5 37t-38.5 92v279q0 156 21 461q15 252 20 461q0 261 146 247q56 19 239 19q204 0 381.5 -137t177.5 -336q0 -247 -185 -394t-445 -147q-33 0 -84 8zM463 1313h-56q-24 0 -42 -2v-142q0 -68 -21 -346
q42 -8 70 -8q160 0 264 78.5t104 204.5q0 86 -101 150.5t-218 64.5z" />
    <glyph glyph-name="Sigma" unicode="&#x3a3;" horiz-adv-x="1487" 
d="M553 815q-6 9 -248 248q-134 130 -186.5 195.5t-52.5 117.5q0 76 66 113t147 37l921 -13q58 0 96.5 -39t38.5 -96q0 -139 -223 -139q-93 0 -184 8q-90 8 -185 8q-15 0 -143 5l-89 2h-52l364 -357q47 -47 47 -96q0 -70 -387 -553q208 -10 381 -10q79 0 199 -6
q145 -7 201 -7q61 0 101 -39t40 -94t-40.5 -95t-100.5 -40q-78 0 -201 6q-120 6 -199 6q-82 0 -289 11q-188 10 -288 10q-16 0 -96 -10q-72 -9 -120 33.5t-48 99.5q0 55 98 155q134 137 197 219t235 320z" />
    <glyph glyph-name="Tau" unicode="&#x3a4;" horiz-adv-x="1425" 
d="M817 1225q1 -27 5 -86q36 -531 36 -733q0 -29 7 -100q7 -72 7 -101q0 -89 -42.5 -151t-106.5 -62q-60 0 -101.5 39.5t-41.5 93.5q0 11 5 43q5 33 5 43l-58 997l-107 -4q-198 -7 -306.5 21t-108.5 125q0 64 39 103.5t101 39.5l284 -18q76 0 252 11t242 11l313 -6
q32 1 65 0t64.5 -16.5t49.5 -44.5t18 -66q0 -61 -41.5 -102t-93.5 -41l-431 4h-55z" />
    <glyph glyph-name="Upsilon" unicode="&#x3a5;" horiz-adv-x="1300" 
d="M547 477q-107 157 -316 485l-225 354q-16 27 -16 70q0 57 42 96.5t99 39.5q81 0 121 -68l248 -412q135 -224 182 -282q203 408 309 672q41 90 131 90q58 0 101 -40.5t43 -95.5q0 -27 -60 -151q-29 -60 -205 -455q-128 -296 -231 -485l-136 -248q-31 -59 -69 -88t-84 -29
q-58 0 -100.5 37.5t-42.5 98.5q0 49 209 411z" />
    <glyph glyph-name="Phi" unicode="&#x3a6;" horiz-adv-x="1530" 
d="M641 131q-262 34 -421 167.5t-159 336.5q0 541 603 717v94q0 145 139 145q131 0 131 -151v-76q251 -28 392.5 -161t141.5 -343q0 -538 -553 -713v-90q0 -70 -36.5 -115.5t-100.5 -45.5q-137 0 -137 145v90zM920 408q272 108 272 452q0 206 -268 246l-4 -80
q-7 -140 -7 -297zM637 715q-4 106 8 284v38q0 22 2 34q-175 -71 -241 -171t-66 -249q0 -97 86.5 -167.5t222.5 -94.5z" />
    <glyph glyph-name="Chi" unicode="&#x3a7;" horiz-adv-x="1483" 
d="M944 721q304 -427 434 -578q37 -38 37 -90q0 -55 -43 -96t-100 -41q-52 0 -120.5 62.5t-146.5 178.5l-124 183l-127 172q-430 -478 -488 -530t-110 -52q-60 0 -103 41t-43 97q0 25 10.5 49t83 99.5t204.5 221.5l274 301q-75 93 -213 256q-5 5 -115 146q-70 89 -127 135
q-57 45 -57 106q0 55 42 97.5t101 42.5q50 0 126 -63.5t120 -127.5q84 -111 156.5 -195.5t154.5 -187.5l252 332q184 242 264 242q58 0 101 -42t43 -96q0 -47 -37 -90q-156 -183 -203 -252q-77 -110 -246 -321z" />
    <glyph glyph-name="Psi" unicode="&#x3a8;" horiz-adv-x="1479" 
d="M854 471q-8 -57 -8 -365q0 -56 -39 -94.5t-100 -38.5q-60 0 -100 38t-40 95v293q0 16 6 60q-250 29 -375.5 184t-125.5 477v232q0 194 143 194q58 0 98.5 -36.5t40.5 -92.5q0 -49 -4 -147l-2 -87q-6 -253 42.5 -344t203.5 -114q4 84 4 416q0 279 37 339t119 60
q60 0 100.5 -37.5t40.5 -93.5q0 -47 -10 -145q-8 -80 -8 -148v-110l2 -63q2 -65 -5 -189q261 125 261 649q0 56 39.5 93.5t99.5 37.5t99.5 -37.5t39.5 -93.5q0 -416 -141 -639t-418 -293z" />
    <glyph glyph-name="Omega" unicode="&#x3a9;" horiz-adv-x="1966" 
d="M449 168q-142 315 -164.5 433.5t-22.5 234.5q0 323 311 558.5t672 235.5q285 0 423 -145.5t138 -485.5q0 -455 -315 -837q228 3 339.5 -20.5t111.5 -129.5q0 -54 -39.5 -94.5t-98.5 -40.5q-81 0 -172 8q-161 13 -266 6l-52 -2q-108 -4 -156 62.5t-48 122.5
q0 43 38.5 98.5t209.5 249.5q172 233 172 659q0 153 -64.5 218t-220.5 65q-248 0 -475 -159.5t-227 -368.5q0 -162 55 -312l121 -288q5 -12 45 -74q27 -47 27 -80q0 -68 -29 -106.5t-79 -50t-241 -38t-280 -26.5q-59 0 -98 40t-39 95q0 84 68 114t356 58z" />
    <glyph glyph-name="Iotadieresis" unicode="&#x3aa;" horiz-adv-x="1118" 
d="M672 1210q-15 -185 -15 -489v-449l134 2q79 1 140.5 -0.5t98.5 -41.5t37 -93q0 -55 -40.5 -95t-98.5 -40h-70q-41 0 -98 -2l-99 -2q-160 -3 -268 -18q-125 -19 -196 -19q-60 0 -100 40t-40 95q0 57 40 97.5t100 40.5q80 0 178 14l-2 172q-6 507 20 799l-217 -7
q-55 -2 -98 37t-43 101q0 52 35 89.5t90.5 44.5t310.5 7q130 0 324 -20t229.5 -32.5t55.5 -44.5t20 -81q0 -61 -41.5 -97t-102.5 -36q-50 0 -284 28zM195 1776q0 46 58 87.5t116 41.5q192 0 192 -146q0 -49 -66 -88t-114 -39q-186 0 -186 144zM639 1761q0 140 207 140
q55 0 111.5 -39t56.5 -95q0 -62 -58.5 -98.5t-144.5 -36.5q-64 0 -118 38t-54 91z" />
    <glyph glyph-name="Upsilondieresis" unicode="&#x3ab;" horiz-adv-x="1300" 
d="M547 477q-107 157 -316 485l-225 354q-16 27 -16 70q0 57 42 96.5t99 39.5q81 0 121 -68l248 -412q135 -224 182 -282q203 408 309 672q41 90 131 90q58 0 101 -40.5t43 -95.5q0 -27 -60 -151q-29 -60 -205 -455q-128 -296 -231 -485l-136 -248q-31 -59 -69 -88t-84 -29
q-58 0 -100.5 37.5t-42.5 98.5q0 49 209 411zM238 1762q0 46 58 87.5t116 41.5q192 0 192 -146q0 -49 -66 -88t-114 -39q-186 0 -186 144zM682 1747q0 140 207 140q55 0 111.5 -39t56.5 -95q0 -62 -58.5 -98.5t-144.5 -36.5q-64 0 -118 38t-54 91z" />
    <glyph glyph-name="alphatonos" unicode="&#x3ac;" horiz-adv-x="1139" 
d="M831 133q-48 -85 -147 -133.5t-190 -48.5q-426 0 -426 514q0 233 144.5 401t356.5 168q58 0 133 -37.5t117 -101.5q25 55 66 97t71 42q131 0 131 -108q0 -28 -51 -162v2l-18 -51q-13 -38 -30 -120.5t-17 -111.5q0 -12 21.5 -108.5t78.5 -239.5q31 -52 31 -72
q0 -55 -38.5 -89.5t-88.5 -34.5q-19 0 -50 17.5t-44.5 41t-44.5 119.5l-5 14v2zM739 543q-16 92 -72.5 171t-117.5 79q-99 0 -160 -105.5t-61 -230.5q0 -269 161 -269q165 0 263 281zM594 1149q-50 0 -81.5 39t-31.5 90q0 17 56 167t89 192t88 42q53 0 93.5 -42t40.5 -97
q0 -45 -72 -183.5t-106 -173t-76 -34.5z" />
    <glyph glyph-name="epsilontonos" unicode="&#x3ad;" horiz-adv-x="1008" 
d="M246 555q-96 94 -96 188q0 136 114.5 223t263.5 87q146 0 264.5 -58.5t118.5 -160.5q0 -46 -36.5 -77.5t-90.5 -31.5q-36 0 -112 43q-73 43 -144 43q-118 0 -118 -68q0 -55 122 -120q123 -62 123 -111q0 -78 -69 -78q-209 0 -209 -125q0 -121 174 -121q53 0 141 52
q92 53 129 53q49 0 89 -37.5t40 -87.5q0 -90 -136.5 -154.5t-262.5 -64.5q-210 0 -322 82t-112 237q0 179 129 287zM541 1149q-50 0 -81.5 39t-31.5 90q0 17 56 167t89 192t88 42q53 0 93.5 -42t40.5 -97q0 -45 -72 -183.5t-106 -173t-76 -34.5z" />
    <glyph glyph-name="etatonos" unicode="&#x3ae;" horiz-adv-x="1071" 
d="M365 922q146 149 309 149q155 0 232 -107.5t77 -375.5v-135q0 -172 31 -408q33 -252 33 -444q0 -57 -41.5 -94t-100.5 -37q-52 0 -94 29t-56 210l-13 175q0 116 -15 315q-18 222 -16 246t2 160v32l4 82q0 86 -43 86q-67 0 -138.5 -64t-126 -177t-58.5 -177l-11 -145
q0 -28 6 -86q6 -59 6 -84q0 -61 -39.5 -98t-97.5 -37q-60 0 -99.5 37t-39.5 98q0 25 -6 84q-7 68 -7 86q0 97 15 270q14 152 14 270q0 30 -4 88l-2 54q-6 168 139 168q130 0 140 -158v-12zM510 1149q-50 0 -81.5 39t-31.5 90q0 17 56 167t89 192t88 42q53 0 93.5 -42
t40.5 -97q0 -45 -72 -183.5t-106 -173t-76 -34.5z" />
    <glyph glyph-name="iotatonos" unicode="&#x3af;" horiz-adv-x="698" 
d="M285 1057q147 0 147 -170q0 -44 -4 -90q-4 -44 -4 -90q0 -18 -9 -127q-12 -144 17.5 -245.5t87.5 -101.5q76 0 117 -23t41 -89q0 -85 -29.5 -119.5t-99.5 -34.5q-213 0 -310.5 140.5t-97.5 375.5q0 137 11 287q8 107 8 164q0 52 37.5 87.5t87.5 35.5zM336 1149
q-50 0 -81.5 39t-31.5 90q0 17 56 167t89 192t88 42q53 0 93.5 -42t40.5 -97q0 -45 -72 -183.5t-106 -173t-76 -34.5z" />
    <glyph glyph-name="upsilondieresistonos" unicode="&#x3b0;" horiz-adv-x="1124" 
d="M784 754v47q0 26 -2 55v74q0 56 40 92.5t100 36.5q57 0 98 -36.5t41 -92.5v-119l2 -68q10 -344 -118.5 -574t-381.5 -230t-377.5 155t-124.5 492q0 50 11 182q10 120 10 180q0 56 40.5 92.5t100.5 36.5q58 0 98.5 -36.5t40.5 -92.5q0 -60 -12 -180t-12 -182
q0 -254 62.5 -320.5t162.5 -66.5q221 0 221 555zM537 1130q-42 0 -72.5 36.5t-30.5 86.5q0 22 55.5 159.5t86 160t65.5 22.5q47 0 85 -37t38 -94q0 -59 -57 -147l-36 -55q-51 -87 -75.5 -109.5t-58.5 -22.5zM797 1286q0 73 34 98t124 25q41 0 80.5 -37t39.5 -80
q0 -114 -153 -114q-55 0 -90 30t-35 78zM99 1292q0 42 39.5 75.5t86.5 33.5q144 0 144 -127q0 -46 -46.5 -75.5t-88.5 -29.5q-135 0 -135 123z" />
    <glyph glyph-name="alpha" unicode="&#x3b1;" horiz-adv-x="1139" 
d="M831 133q-48 -85 -147 -133.5t-190 -48.5q-426 0 -426 514q0 233 144.5 401t356.5 168q58 0 133 -37.5t117 -101.5q25 55 66 97t71 42q131 0 131 -108q0 -28 -51 -162v2l-18 -51q-13 -38 -30 -120.5t-17 -111.5q0 -12 21.5 -108.5t78.5 -239.5q31 -52 31 -72
q0 -55 -38.5 -89.5t-88.5 -34.5q-19 0 -50 17.5t-44.5 41t-44.5 119.5l-5 14v2zM739 543q-16 92 -72.5 171t-117.5 79q-99 0 -160 -105.5t-61 -230.5q0 -269 161 -269q165 0 263 281z" />
    <glyph glyph-name="beta" unicode="&#x3b2;" horiz-adv-x="1200" 
d="M365 -49q0 -30 -13 -210q-6 -73 -6 -99q0 -211 -153 -211q-132 0 -132 137q0 57 22 264q21 207 21 268q0 173 15 465q14 273 14 467q0 188 88 318.5t258 130.5q147 0 255 -89t108 -221q0 -77 -35 -194q153 -50 240.5 -190.5t87.5 -319.5q0 -264 -146.5 -401.5
t-423.5 -137.5q-112 0 -200 23zM385 344l-2 -34q-4 -67 34.5 -108.5t184.5 -41.5q111 0 182.5 88t71.5 219q0 270 -162 270q-168 0 -168 131q0 39 37 125q37 82 37 131q0 127 -111 127q-81 0 -81 -223q0 -264 -23 -684z" />
    <glyph glyph-name="gamma" unicode="&#x3b3;" horiz-adv-x="1133" 
d="M430 102q-76 154 -209 392.5t-163 284.5q-52 76 -52 122q0 53 43 95t98 42q44 0 78 -23t137 -189.5t220 -405.5q209 460 263.5 540t123.5 80q56 0 99.5 -38.5t43.5 -92.5q0 -21 -8.5 -45t-147.5 -310l-339 -703q-39 -87 -89 -228q-49 -139 -77 -171t-89 -32
q-58 0 -100.5 38.5t-42.5 92.5q0 95 211 551z" />
    <glyph glyph-name="delta" unicode="&#x3b4;" horiz-adv-x="1077" 
d="M502 1278q111 -89 193 -152q112 -86 214.5 -241t102.5 -365q0 -242 -137.5 -410.5t-360.5 -168.5q-210 0 -340.5 150.5t-130.5 367.5q0 199 108 357t293 204q-123 186 -284 260q-99 43 -99 123q0 52 41 84.5t103 32.5q49 0 224 -7q136 -6 388 17q49 4 80 4
q54 0 88.5 -36.5t34.5 -90.5q0 -62 -79.5 -92.5t-438.5 -36.5zM571 772q-120 0 -186 -103.5t-66 -230.5q0 -94 53.5 -163.5t141.5 -69.5q102 0 165.5 73t63.5 173q0 162 -39.5 241.5t-132.5 79.5z" />
    <glyph glyph-name="epsilon" unicode="&#x3b5;" horiz-adv-x="1008" 
d="M246 555q-96 94 -96 188q0 136 114.5 223t263.5 87q146 0 264.5 -58.5t118.5 -160.5q0 -46 -36.5 -77.5t-90.5 -31.5q-36 0 -112 43q-73 43 -144 43q-118 0 -118 -68q0 -55 122 -120q123 -62 123 -111q0 -78 -69 -78q-209 0 -209 -125q0 -121 174 -121q53 0 141 52
q92 53 129 53q49 0 89 -37.5t40 -87.5q0 -90 -136.5 -154.5t-262.5 -64.5q-210 0 -322 82t-112 237q0 179 129 287z" />
    <glyph glyph-name="zeta" unicode="&#x3b6;" horiz-adv-x="1053" 
d="M526 1264q-104 -19 -170 -19q-179 0 -233.5 42t-54.5 116q0 59 43.5 89t99.5 30q35 0 73 -4q37 -5 72 -5q91 0 295 17q193 18 295 18q54 0 82.5 -36t28.5 -80q0 -59 -39.5 -103.5t-102.5 -44.5q-104 0 -346.5 -318.5t-242.5 -555.5q0 -74 34 -120t85.5 -69t193.5 -55
q186 -42 249.5 -106.5t63.5 -194.5q0 -136 -132.5 -208.5t-334.5 -72.5q-58 0 -98.5 39.5t-40.5 95.5q0 95 115 119q172 22 189.5 28.5t17.5 14.5q0 30 -19 33q-338 38 -460.5 150.5t-122.5 345.5q0 170 84 356t376 498z" />
    <glyph glyph-name="eta" unicode="&#x3b7;" horiz-adv-x="1071" 
d="M365 922q146 149 309 149q155 0 232 -107.5t77 -375.5v-135q0 -172 31 -408q33 -252 33 -444q0 -57 -41.5 -94t-100.5 -37q-52 0 -94 29t-56 210l-13 175q0 116 -15 315q-18 222 -16 246t2 160v32l4 82q0 86 -43 86q-67 0 -138.5 -64t-126 -177t-58.5 -177l-11 -145
q0 -28 6 -86q6 -59 6 -84q0 -61 -39.5 -98t-97.5 -37q-60 0 -99.5 37t-39.5 98q0 25 -6 84q-7 68 -7 86q0 97 15 270q14 152 14 270q0 30 -4 88l-2 54q-6 168 139 168q130 0 140 -158v-12z" />
    <glyph glyph-name="theta" unicode="&#x3b8;" 
d="M610 -39q-289 0 -439.5 219t-150.5 615q0 314 168.5 536.5t452.5 222.5q268 0 423 -199t155 -501q0 -893 -609 -893zM301 899q135 18 635 14q-26 381 -295 381q-136 0 -228 -113t-112 -282zM303 633q43 -414 307 -414q274 0 320 430q-223 2 -352 -3l-236 -9q-17 0 -39 -4
z" />
    <glyph glyph-name="iota" unicode="&#x3b9;" horiz-adv-x="698" 
d="M285 1057q147 0 147 -170q0 -44 -4 -90q-4 -44 -4 -90q0 -18 -9 -127q-12 -144 17.5 -245.5t87.5 -101.5q76 0 117 -23t41 -89q0 -85 -29.5 -119.5t-99.5 -34.5q-213 0 -310.5 140.5t-97.5 375.5q0 137 11 287q8 107 8 164q0 52 37.5 87.5t87.5 35.5z" />
    <glyph glyph-name="kappa" unicode="&#x3ba;" horiz-adv-x="1106" 
d="M422 686q41 29 356 315q46 43 99 43q58 0 100.5 -42t42.5 -91q0 -79 -262 -299q271 -338 314.5 -416t43.5 -108q0 -51 -43.5 -90t-99.5 -39q-77 0 -121 74q-55 95 -150 209l-157 202q-114 -79 -133 -88q-11 -145 -11 -260q0 -55 -39 -93t-98 -38q-141 0 -141 164
q0 77 10 231q12 154 12 232q0 30 5 172q6 114 6 172q0 59 39.5 95t99.5 36q57 0 97 -36t40 -93q0 -47 -4 -127z" />
    <glyph glyph-name="lambda" unicode="&#x3bb;" horiz-adv-x="995" 
d="M524 616l-12 -38l-47 -123q-135 -353 -177 -426.5t-128 -73.5q-54 0 -90.5 37.5t-36.5 89.5q0 40 24 84q62 90 240 594l16 63q35 137 80 185q-68 152 -102.5 185.5t-102.5 33.5q-180 0 -180 135q0 54 40 92.5t106 38.5q187 0 296.5 -82t180 -260t170.5 -522
q27 -93 88.5 -258t68.5 -176q29 -50 29 -95q0 -52 -35 -87.5t-86 -35.5q-138 0 -188 191q-6 23 -14 45l-25 83q-13 41 -29 75q-38 90 -86 245z" />
    <glyph glyph-name="mu" unicode="&#x3bc;" horiz-adv-x="1065" 
d="M393 -61q0 -32 -14 -111q-12 -52 -12 -115q0 -55 -40 -93t-100 -38q-61 0 -100 38.5t-39 92.5q0 45 10 101q23 134 29 313q-57 136 -57 522q0 204 31.5 311t131.5 107q60 0 101 -38t41 -93q0 -53 -15 -143q-14 -84 -14 -144q0 -293 37 -426q49 -24 94 -24q123 0 244 32
v175l-2 103q-6 331 20 441.5t135 110.5q58 0 99 -36.5t41 -94.5q0 -60 -10 -180q-9 -108 -9 -179v-206l6 -267q3 -44 3 -65q0 -55 -41 -92t-99 -37q-84 0 -121 76q-132 -48 -266 -48q-46 0 -84 7z" />
    <glyph glyph-name="nu" unicode="&#x3bd;" horiz-adv-x="995" 
d="M520 336q170 295 170 518q0 122 30.5 163.5t98.5 41.5q75 0 99 -40.5t24 -160.5q0 -192 -93.5 -419.5t-244.5 -405.5q-25 -72 -112 -72q-92 0 -136 107l-143 378l-166 426q-12 31 -12 56q0 54 40 93.5t97 39.5q74 0 113 -82z" />
    <glyph glyph-name="xi" unicode="&#x3be;" horiz-adv-x="985" 
d="M305 881q-182 89 -182 245q0 465 616 465q60 0 100 -38t40 -95q0 -59 -41 -97t-99 -38q-333 0 -333 -182q0 -35 34.5 -73.5t69.5 -41.5q203 -26 246 -63.5t43 -81.5q0 -103 -121 -103q-167 0 -259.5 -128t-92.5 -238q0 -80 44 -134t159 -85l259 -70q164 -71 164 -258
q0 -136 -132.5 -208.5t-334.5 -72.5q-139 0 -139 115q0 52 32 81.5t80 37t181 22.5q29 4 29 41q0 45 -56 56q-219 35 -330.5 79.5t-163.5 144.5t-52 251q0 261 239 469z" />
    <glyph glyph-name="omicron" unicode="&#x3bf;" horiz-adv-x="1077" 
d="M43 438q0 257 143.5 427.5t391.5 170.5q194 0 314 -151.5t120 -364.5q0 -243 -136 -411t-362 -168q-198 0 -334.5 144.5t-136.5 352.5zM319 438q0 -95 52.5 -164t142.5 -69q99 0 164 71t65 175q0 321 -180 321q-111 0 -177.5 -97t-66.5 -237z" />
    <glyph glyph-name="pi" unicode="&#x3c0;" horiz-adv-x="1286" 
d="M1020 416q-16 -106 -16 -211q23 -23 45 -37q57 -46 57 -94q0 -125 -125 -125q-90 0 -161.5 62t-71.5 157q0 100 16 244l55 356q-22 0 -262 10l-45 -389l-9 -177q-14 -219 -52 -246t-86 -27q-55 0 -93.5 37.5t-38.5 91.5l78 706q-37 -9 -63 -31q-62 -51 -101 -51
q-49 0 -89 39t-40 86q0 79 103 147t285 68h64l425 -8h99q21 0 50 2l55 2q105 4 137 -33t32 -96q0 -127 -195 -131z" />
    <glyph glyph-name="rho" unicode="&#x3c1;" horiz-adv-x="1116" 
d="M342 -27q-13 -236 -46.5 -311.5t-125.5 -75.5q-58 0 -98.5 38t-40.5 91v11l32 264q19 171 19 459q0 246 150 416.5t395 170.5q202 0 312 -154t110 -382q0 -237 -136 -407.5t-360 -170.5q-109 0 -211 51zM358 438q0 -248 195 -248q106 0 167.5 80t61.5 213q0 285 -170 285
q-114 0 -184 -97t-70 -233z" />
    <glyph glyph-name="sigma1" unicode="&#x3c2;" horiz-adv-x="1053" 
d="M578 809q-77 0 -164.5 -152t-87.5 -258q0 -78 44 -130.5t160 -83.5l258 -70q164 -68 164 -254q0 -136 -135 -206.5t-332 -70.5q-59 0 -99 38.5t-40 94.5q0 47 26.5 75t68 38t204.5 31q23 7 23 16q0 21 -4.5 27.5t-55.5 13.5q-345 48 -443.5 163t-98.5 318q0 210 153 437
t359 227q123 0 267 -66.5t144 -150.5q0 -52 -36 -91.5t-91 -39.5q-29 0 -106 47t-178 47z" />
    <glyph glyph-name="sigma" unicode="&#x3c3;" horiz-adv-x="1147" 
d="M915 797q43 -41 76 -165t33 -239q0 -222 -145.5 -337t-368.5 -115q-201 0 -334 136.5t-133 368.5q0 109 47.5 228.5t189 220t304 128.5t444.5 28q106 0 138 -38t32 -104q0 -127 -96 -127q-42 0 -187 15zM680 795q-143 -17 -252 -109.5t-109 -257.5q0 -98 53.5 -168
t143.5 -70q118 0 180 62t62 170q0 208 -46 271q-36 50 -36 67q0 26 4 35z" />
    <glyph glyph-name="tau" unicode="&#x3c4;" horiz-adv-x="965" 
d="M582 797q-4 -52 -4 -90q0 -14 -5 -62q-10 -97 -10 -145q0 -126 32.5 -196.5t86.5 -70.5q75 0 116.5 -23t41.5 -89q0 -85 -29.5 -119.5t-99.5 -34.5q-219 0 -313.5 148t-94.5 368q0 107 8 291v19q-195 10 -233.5 40t-38.5 93q0 58 36.5 96.5t92.5 38.5q51 0 102 -8
q64 -9 92 -9h33q20 13 54 13q27 0 57 -13h37q9 0 42 6q67 11 132 11q180 0 180 -135q0 -121 -147 -121h-37q-80 0 -131 -8z" />
    <glyph glyph-name="upsilon" unicode="&#x3c5;" horiz-adv-x="1124" 
d="M784 754v47q0 26 -2 55v74q0 56 40 92.5t100 36.5q57 0 98 -36.5t41 -92.5v-119l2 -68q10 -344 -118.5 -574t-381.5 -230t-377.5 155t-124.5 492q0 50 11 182q10 120 10 180q0 56 40.5 92.5t100.5 36.5q58 0 98.5 -36.5t40.5 -92.5q0 -60 -12 -180t-12 -182
q0 -254 62.5 -320.5t162.5 -66.5q221 0 221 555z" />
    </font>
</defs>
</svg>
